<svg width="350" height="323" viewBox="0 0 350 323" fill="none" xmlns="http://www.w3.org/2000/svg">
<path d="M78.6805 296.485C138.933 330.883 236.624 330.883 296.876 296.485C357.129 262.087 357.138 206.3 296.876 171.902C236.615 137.504 138.933 137.495 78.6805 171.902C18.4278 206.309 18.4278 262.078 78.6805 296.485Z" fill="#EBEBEB"/>
<path d="M314.599 211.137L305.81 205.672C305.81 205.672 303.656 185.53 305.086 169.935C307.105 148.008 320.339 121.654 336.12 127.83C351.9 134.006 328.872 156.389 323.763 174.972C318.653 193.556 314.599 211.137 314.599 211.137Z" fill="#02897A"/>
<path opacity="0.1" d="M314.599 211.137L305.81 205.672C305.81 205.672 303.656 185.53 305.086 169.935C307.105 148.008 320.339 121.654 336.12 127.83C351.9 134.006 328.872 156.389 323.763 174.972C318.653 193.556 314.599 211.137 314.599 211.137Z" fill="black"/>
<path d="M310.026 208.669C309.943 208.67 309.864 208.639 309.801 208.582C309.738 208.525 309.697 208.446 309.685 208.359C306.696 183.763 314.88 146.587 331.401 132.485C331.435 132.456 331.475 132.434 331.517 132.42C331.559 132.407 331.603 132.403 331.646 132.408C331.69 132.413 331.732 132.427 331.77 132.45C331.809 132.473 331.842 132.503 331.87 132.54C331.926 132.615 331.952 132.71 331.942 132.806C331.933 132.902 331.888 132.989 331.819 133.05C315.476 147.006 307.394 183.891 310.358 208.259C310.37 208.354 310.346 208.451 310.292 208.528C310.238 208.604 310.157 208.655 310.068 208.669H310.026Z" fill="white"/>
<path d="M319.291 215.027L313.04 211.156C313.04 211.156 311.976 197.336 318.312 180.547C323.822 165.972 337.508 153.802 344.389 156.352C351.27 158.903 351.1 164.123 347.744 169.598C344.389 175.073 323.975 188.127 319.291 215.027Z" fill="#02897A"/>
<path d="M315.416 215.383C315.372 215.38 315.328 215.368 315.288 215.348C315.248 215.327 315.212 215.298 315.183 215.263C315.154 215.227 315.131 215.185 315.117 215.14C315.103 215.095 315.098 215.047 315.101 215C317.162 180.602 333.428 163.686 343.205 161.108C343.293 161.085 343.386 161.1 343.463 161.149C343.541 161.199 343.598 161.278 343.622 161.372C343.643 161.465 343.629 161.563 343.582 161.644C343.536 161.726 343.462 161.785 343.375 161.809C333.079 164.542 317.716 182.852 315.791 215.046C315.788 215.094 315.775 215.142 315.755 215.185C315.734 215.229 315.705 215.268 315.67 215.299C315.635 215.33 315.595 215.354 315.551 215.368C315.508 215.383 315.462 215.388 315.416 215.383Z" fill="white"/>
<path d="M61.4604 213.816C61.4604 213.816 62.6271 193.62 51.6582 179.773C40.6892 165.926 26.4074 165.981 21.6808 168.559C16.9543 171.137 13.7777 178.507 21.9108 183.781C30.0438 189.056 47.3404 199.614 50.2189 209.033L61.4604 213.816Z" fill="#02897A"/>
<path opacity="0.1" d="M61.4604 213.816C61.4604 213.816 62.6271 193.62 51.6582 179.773C40.6892 165.926 26.4074 165.981 21.6808 168.559C16.9543 171.137 13.7777 178.507 21.9108 183.781C30.0438 189.056 47.3404 199.614 50.2189 209.033L61.4604 213.816Z" fill="black"/>
<path d="M56.2998 208.76C56.1944 208.759 56.0931 208.716 56.0148 208.641C55.9364 208.565 55.8864 208.462 55.874 208.35C53.6172 186.004 32.7352 173.624 24.4148 172.221C24.3589 172.212 24.3052 172.192 24.2567 172.161C24.2083 172.129 24.166 172.088 24.1324 172.04C24.0988 171.991 24.0745 171.936 24.0608 171.877C24.0472 171.818 24.0445 171.757 24.0529 171.698C24.0612 171.638 24.0806 171.58 24.1097 171.529C24.1389 171.477 24.1773 171.431 24.2227 171.396C24.2682 171.36 24.3199 171.334 24.3747 171.319C24.4296 171.304 24.4866 171.301 24.5425 171.31C33.0588 172.741 54.4092 185.403 56.7256 208.25C56.7315 208.31 56.7262 208.37 56.7101 208.428C56.694 208.486 56.6673 208.539 56.6317 208.586C56.5961 208.633 56.5521 208.671 56.5025 208.699C56.4528 208.728 56.3984 208.745 56.3424 208.751L56.2998 208.76Z" fill="white"/>
<path d="M52.2374 203.631C49.4866 196.926 46.3782 193.92 37.4361 195.524C28.494 197.127 29.7714 196.881 18.828 193.884C14.2122 192.627 9.02575 192.426 4.59728 194.558C0.858632 196.38 -1.93471 200.024 1.68471 203.904C5.7555 208.241 11.8276 209.725 16.3242 213.542C17.3443 214.314 18.1553 215.361 18.6747 216.576C19.8585 219.801 17.4909 223.435 18.1808 226.815C18.8706 230.195 22.1919 231.998 25.3089 232.217C28.4259 232.436 31.5002 231.434 34.6087 231.051C37.7171 230.668 41.2088 231.051 43.3549 233.52C45.6543 236.134 45.7139 240.316 47.8515 243.094C51.0536 247.257 58.9227 248.414 63.1808 245.827L74.3287 238.949C81.6953 228.327 70.0705 219.91 63.9814 211.666C61.0262 207.648 53.8896 207.667 52.2374 203.631Z" fill="#02897A"/>
<path d="M67.4223 232.536C67.3498 232.538 67.2781 232.518 67.2151 232.48C67.1521 232.441 67.1001 232.385 67.0646 232.317C54.3498 210.281 19.7311 199.131 7.48464 198.22C7.37315 198.211 7.26957 198.155 7.19627 198.065C7.12297 197.974 7.08584 197.857 7.09289 197.737C7.10161 197.617 7.15354 197.506 7.23774 197.426C7.32193 197.346 7.43182 197.304 7.54425 197.309C19.9525 198.22 54.9034 209.534 67.7885 231.862C67.8455 231.966 67.8623 232.09 67.8353 232.208C67.8083 232.325 67.7396 232.427 67.6437 232.491C67.5741 232.524 67.4984 232.539 67.4223 232.536Z" fill="white"/>
<path d="M27.1485 222.151C27.0821 222.153 27.0164 222.137 26.9571 222.105C26.8977 222.073 26.8465 222.027 26.8078 221.969C26.7401 221.872 26.711 221.751 26.7269 221.631C26.7429 221.512 26.8026 221.404 26.893 221.331C27.3358 220.976 37.896 212.686 48.1837 212.522C48.2392 212.521 48.2944 212.532 48.346 212.553C48.3976 212.575 48.4446 212.608 48.4843 212.65C48.524 212.691 48.5555 212.741 48.577 212.796C48.5985 212.85 48.6095 212.909 48.6095 212.969C48.6107 213.028 48.6008 213.088 48.5804 213.144C48.56 213.199 48.5296 213.25 48.4909 213.293C48.4521 213.336 48.4058 213.371 48.3545 213.395C48.3033 213.419 48.2481 213.432 48.1922 213.433C38.2026 213.588 27.5317 221.978 27.421 222.06C27.3441 222.126 27.2468 222.158 27.1485 222.151Z" fill="white"/>
<path d="M66.6296 240.279C66.7206 241.604 67.1019 242.887 67.7425 244.025C68.3831 245.163 69.2651 246.123 70.3172 246.829L173.645 310.642C174.788 311.262 176.051 311.585 177.333 311.585C178.614 311.585 179.878 311.262 181.02 310.642L322.391 223.326C323.505 222.697 324.438 221.755 325.088 220.6C325.739 219.446 326.083 218.124 326.083 216.776C326.083 215.429 325.739 214.106 325.088 212.952C324.438 211.798 323.505 210.856 322.391 210.226L219.071 146.459C217.929 145.839 216.665 145.516 215.384 145.516C214.102 145.516 212.839 145.839 211.696 146.459L70.3172 233.748C69.2673 234.451 68.3867 235.409 67.7462 236.544C67.1057 237.678 66.7232 238.958 66.6296 240.279Z" fill="#37474F"/>
<path d="M109.262 209.68L70.3174 233.747C69.2031 234.376 68.2705 235.319 67.6199 236.473C66.9693 237.627 66.6255 238.949 66.6255 240.297C66.6255 241.645 66.9693 242.967 67.6199 244.121C68.2705 245.275 69.2031 246.218 70.3174 246.847L173.646 310.66C174.782 311.295 176.051 311.608 177.333 311.571V209.68H109.262Z" fill="#263238"/>
<path d="M63.1637 233.875C62.1373 233.127 61.2897 232.131 60.6891 230.968C60.0885 229.805 59.7518 228.507 59.7061 227.179V95.2813C59.7746 93.9124 60.1443 92.5802 60.7851 91.393C61.4259 90.2057 62.3196 89.1971 63.3936 88.4491L204.764 1.13348C205.831 0.417503 207.06 0.0260774 208.32 0.0012584C209.579 -0.0235606 210.821 0.319161 211.912 0.992604C213.003 1.66605 213.902 2.64476 214.512 3.82358C215.123 5.00239 215.421 6.33674 215.375 7.68328V139.59C215.305 140.959 214.935 142.291 214.295 143.478C213.654 144.665 212.761 145.674 211.688 146.423L70.3174 233.747C69.2179 234.368 67.9975 234.702 66.7547 234.725C65.512 234.747 64.2818 234.456 63.1637 233.875Z" fill="#455A64"/>
<path d="M77.0111 101.412L60.7876 91.3915C60.1415 92.5737 59.7869 93.9122 59.7571 95.2813V227.179C59.8028 228.507 60.1396 229.805 60.7401 230.968C61.3407 232.131 62.1883 233.127 63.2147 233.875C64.333 234.451 65.5624 234.738 66.8035 234.713C68.0447 234.688 69.2629 234.351 70.3599 233.729L86.4897 223.772L77.0111 101.412Z" fill="#263238"/>
<path d="M66.6296 99.5627V231.452C66.6296 233.966 68.2818 234.986 70.3172 233.729L211.688 146.423C212.761 145.673 213.654 144.665 214.294 143.478C214.935 142.291 215.305 140.959 215.375 139.59V7.69224C215.375 5.17799 213.723 4.15771 211.688 5.41484L70.3172 92.7305C69.2432 93.4785 68.3495 94.4871 67.7087 95.6743C67.0679 96.8615 66.6982 98.1938 66.6296 99.5627V99.5627Z" fill="#37474F"/>
<path d="M70.3171 238.302L173.645 302.069C174.788 302.689 176.051 303.013 177.333 303.013C178.614 303.013 179.878 302.689 181.02 302.069L322.391 214.754C324.435 213.496 324.435 211.456 322.391 210.199L219.071 146.431C217.928 145.811 216.665 145.488 215.384 145.488C214.102 145.488 212.839 145.811 211.696 146.431L70.3171 233.747C68.2732 234.986 68.2732 237.027 70.3171 238.302Z" fill="#455A64"/>
<path d="M72.3016 100.046L209.712 15.1896C210.93 14.4335 211.926 15.0438 211.926 16.556V130.727C211.883 131.548 211.661 132.347 211.276 133.059C210.891 133.771 210.356 134.376 209.712 134.826L72.3016 219.682C71.0753 220.438 70.0874 219.828 70.0874 218.316V104.145C70.1283 103.323 70.3502 102.524 70.7351 101.811C71.1199 101.099 71.6566 100.494 72.3016 100.046V100.046Z" fill="white"/>
<path d="M82.3083 234.868L213.536 153.792C214.107 153.482 214.739 153.321 215.38 153.321C216.02 153.321 216.652 153.482 217.223 153.792L223.943 157.937C224.165 158.018 224.358 158.171 224.495 158.375C224.632 158.58 224.706 158.825 224.706 159.076C224.706 159.327 224.632 159.572 224.495 159.776C224.358 159.981 224.165 160.134 223.943 160.215L92.6897 241.281C92.1182 241.591 91.4866 241.752 90.8459 241.752C90.2053 241.752 89.5736 241.591 89.0021 241.281L82.3083 237.145C82.0859 237.064 81.8927 236.911 81.7558 236.707C81.619 236.503 81.5454 236.258 81.5454 236.007C81.5454 235.755 81.619 235.51 81.7558 235.306C81.8927 235.102 82.0859 234.949 82.3083 234.868Z" fill="#263238"/>
<path d="M99.6134 245.59L230.832 164.514C231.405 164.204 232.038 164.043 232.68 164.043C233.322 164.043 233.956 164.204 234.528 164.514L275.807 190.021C276.029 190.102 276.223 190.255 276.359 190.459C276.496 190.663 276.57 190.908 276.57 191.16C276.57 191.411 276.496 191.656 276.359 191.86C276.223 192.064 276.029 192.218 275.807 192.298L144.733 273.21C144.16 273.52 143.527 273.681 142.885 273.681C142.243 273.681 141.61 273.52 141.037 273.21L99.6134 247.822C99.4016 247.736 99.2193 247.583 99.0906 247.384C98.962 247.184 98.8931 246.948 98.8931 246.706C98.8931 246.463 98.962 246.227 99.0906 246.028C99.2193 245.828 99.4016 245.675 99.6134 245.59Z" fill="#263238"/>
<path d="M217.24 200.953L221.354 198.411C221.524 198.302 221.515 198.129 221.354 198.01L216.601 195.077C216.5 195.021 216.388 194.992 216.274 194.992C216.159 194.992 216.047 195.021 215.946 195.077L211.841 197.619C211.662 197.728 211.67 197.901 211.841 198.019L216.593 200.953C216.693 201.007 216.804 201.036 216.917 201.036C217.029 201.036 217.14 201.007 217.24 200.953ZM209.133 190.932L205.028 193.474C204.849 193.574 204.857 193.756 205.028 193.875L209.78 196.808C209.881 196.864 209.994 196.893 210.108 196.893C210.222 196.893 210.334 196.864 210.436 196.808L214.549 194.266C214.719 194.157 214.711 193.975 214.549 193.865L209.788 190.932C209.687 190.876 209.575 190.847 209.461 190.847C209.346 190.847 209.234 190.876 209.133 190.932ZM195.864 199.131L188.906 203.421C188.736 203.531 188.745 203.713 188.906 203.831L193.659 206.765C193.76 206.821 193.872 206.85 193.986 206.85C194.1 206.85 194.213 206.821 194.314 206.765L201.264 202.474C201.442 202.365 201.425 202.183 201.264 202.073L196.511 199.131C196.412 199.075 196.301 199.046 196.188 199.046C196.075 199.046 195.964 199.075 195.864 199.131ZM203.129 194.64L199.024 197.181C198.845 197.291 198.853 197.473 199.024 197.582L203.776 200.515C203.877 200.571 203.99 200.601 204.104 200.601C204.218 200.601 204.33 200.571 204.432 200.515L208.545 197.974C208.715 197.865 208.707 197.692 208.545 197.573L203.784 194.576C203.683 194.52 203.571 194.491 203.457 194.491C203.342 194.491 203.23 194.52 203.129 194.576V194.64ZM187.007 204.597L182.902 207.129C182.724 207.238 182.741 207.421 182.902 207.539L187.655 210.472C187.755 210.526 187.866 210.554 187.978 210.554C188.091 210.554 188.201 210.526 188.302 210.472L192.415 207.931C192.585 207.821 192.577 207.639 192.415 207.53L187.663 204.597C187.562 204.541 187.449 204.512 187.335 204.512C187.221 204.512 187.109 204.541 187.007 204.597ZM181.046 208.304L176.941 210.846C176.762 210.946 176.779 211.128 176.941 211.247L181.693 214.18C181.795 214.236 181.907 214.265 182.021 214.265C182.135 214.265 182.248 214.236 182.349 214.18L186.462 211.638C186.633 211.529 186.624 211.347 186.462 211.238L181.659 208.24C181.558 208.185 181.445 208.155 181.331 208.155C181.217 208.155 181.105 208.185 181.003 208.24L181.046 208.304ZM199.739 220.238L203.844 217.696C204.023 217.587 204.006 217.414 203.844 217.295L199.092 214.362C198.992 214.306 198.881 214.277 198.768 214.277C198.656 214.277 198.545 214.306 198.445 214.362L194.331 216.904C194.161 217.013 194.17 217.186 194.331 217.305L199.083 220.238C199.182 220.279 199.289 220.297 199.395 220.289C199.501 220.281 199.604 220.248 199.697 220.192L199.739 220.238ZM193.727 223.945L197.84 221.404C198.01 221.304 198.002 221.121 197.84 221.003L193.088 218.07C192.987 218.014 192.874 217.985 192.76 217.985C192.646 217.985 192.534 218.014 192.432 218.07L188.327 220.611C188.148 220.721 188.166 220.903 188.327 221.012L193.079 223.945C193.177 223.987 193.282 224.004 193.387 223.996C193.491 223.989 193.593 223.956 193.684 223.9L193.727 223.945ZM187.723 227.653L191.836 225.121C192.006 225.011 191.998 224.829 191.836 224.711L187.084 221.777C186.982 221.723 186.87 221.696 186.756 221.696C186.642 221.696 186.53 221.723 186.428 221.777L182.323 224.319C182.145 224.428 182.162 224.61 182.323 224.72L187.067 227.653C187.166 227.695 187.272 227.712 187.378 227.704C187.484 227.696 187.587 227.663 187.68 227.608L187.723 227.653ZM181.761 231.361L185.875 228.828C186.045 228.719 186.036 228.537 185.875 228.418L181.123 225.485C181.021 225.429 180.909 225.4 180.795 225.4C180.681 225.4 180.568 225.429 180.467 225.485L176.362 228.017C176.183 228.127 176.192 228.309 176.362 228.427L181.114 231.361C181.3 231.425 181.502 231.409 181.676 231.315L181.761 231.361ZM211.321 204.724L215.435 202.183C215.605 202.082 215.596 201.9 215.435 201.782L210.683 198.848C210.581 198.795 210.468 198.767 210.355 198.767C210.241 198.767 210.129 198.795 210.027 198.848L205.922 201.39C205.743 201.499 205.752 201.682 205.922 201.791L210.674 204.724C210.766 204.758 210.863 204.771 210.959 204.763C211.056 204.755 211.15 204.727 211.236 204.679L211.321 204.724ZM205.786 216.567L214.949 210.9C215.12 210.8 215.111 210.618 214.949 210.5L203.41 203.376C203.308 203.32 203.196 203.291 203.082 203.291C202.968 203.291 202.855 203.32 202.754 203.376L198.019 206.309C197.84 206.409 197.857 206.592 198.019 206.71L204.134 210.481C204.321 210.6 204.329 210.782 204.134 210.891L200.276 213.132C200.105 213.233 200.114 213.415 200.276 213.533L205.045 216.439C205.143 216.502 205.253 216.539 205.368 216.547C205.482 216.555 205.596 216.534 205.701 216.485L205.786 216.567ZM175.085 212.012L170.98 214.553C170.801 214.663 170.809 214.836 170.98 214.954L175.732 217.888C175.833 217.943 175.946 217.973 176.06 217.973C176.174 217.973 176.286 217.943 176.387 217.888L180.501 215.346C180.671 215.237 180.663 215.064 180.501 214.945L175.749 212.012C175.64 211.931 175.512 211.884 175.38 211.875C175.248 211.867 175.116 211.899 174.999 211.966L175.085 212.012ZM169.123 215.719L164.882 218.261C164.712 218.37 164.72 218.553 164.882 218.662L169.634 221.595C169.735 221.651 169.848 221.68 169.962 221.68C170.076 221.68 170.188 221.651 170.29 221.595L174.403 219.054C174.574 218.953 174.565 218.771 174.403 218.653L169.617 215.692C169.521 215.639 169.416 215.61 169.308 215.607C169.201 215.604 169.094 215.627 168.995 215.674L169.123 215.719ZM138.958 257.259C139.06 257.315 139.172 257.344 139.286 257.344C139.4 257.344 139.513 257.315 139.614 257.259L143.728 254.718C143.898 254.617 143.889 254.435 143.728 254.317L138.958 251.402C138.857 251.346 138.745 251.317 138.631 251.317C138.516 251.317 138.404 251.346 138.303 251.402L134.198 253.943C134.019 254.053 134.027 254.235 134.198 254.344L138.958 257.259ZM120.929 245.344L116.816 247.885C116.646 247.995 116.654 248.168 116.816 248.286L121.568 251.22C121.67 251.276 121.782 251.305 121.896 251.305C122.01 251.305 122.123 251.276 122.224 251.22L126.337 248.678C126.508 248.569 126.499 248.396 126.337 248.277L121.585 245.344C121.487 245.292 121.379 245.266 121.27 245.266C121.161 245.266 121.053 245.292 120.955 245.344H120.929ZM130.595 254.044C130.697 254.1 130.809 254.129 130.923 254.129C131.037 254.129 131.15 254.1 131.251 254.044L135.356 251.502C135.535 251.402 135.518 251.22 135.356 251.101L130.612 248.168C130.511 248.112 130.399 248.083 130.285 248.083C130.17 248.083 130.058 248.112 129.957 248.168L125.843 250.709C125.673 250.819 125.682 251.001 125.843 251.11L130.595 254.044ZM149.561 259.509L153.675 256.968C153.845 256.858 153.836 256.685 153.675 256.567L148.922 253.634C148.821 253.578 148.709 253.549 148.595 253.549C148.481 253.549 148.368 253.578 148.267 253.634L144.162 256.175C143.983 256.275 144 256.458 144.162 256.576L148.905 259.509C149.009 259.571 149.126 259.605 149.245 259.606C149.364 259.608 149.481 259.578 149.587 259.518L149.561 259.509ZM142.901 263.153C143.003 263.209 143.115 263.238 143.229 263.238C143.343 263.238 143.456 263.209 143.557 263.153L147.671 260.612C147.841 260.511 147.832 260.329 147.671 260.211L142.918 257.277C142.817 257.222 142.705 257.192 142.591 257.192C142.477 257.192 142.364 257.222 142.263 257.277L138.158 259.819C137.979 259.928 137.988 260.111 138.158 260.22L142.901 263.153ZM126.933 241.582L122.829 244.123C122.65 244.223 122.658 244.406 122.829 244.524L127.581 247.457C127.682 247.513 127.794 247.542 127.909 247.542C128.023 247.542 128.135 247.513 128.236 247.457L132.35 244.916C132.52 244.806 132.512 244.624 132.35 244.515L127.598 241.582C127.495 241.537 127.383 241.519 127.272 241.528C127.161 241.538 127.054 241.575 126.959 241.636L126.933 241.582ZM156.962 223.044L152.848 225.576C152.678 225.685 152.687 225.868 152.848 225.977L157.601 228.919C157.703 228.973 157.815 229.001 157.928 229.001C158.042 229.001 158.154 228.973 158.256 228.919L162.361 226.387C162.54 226.278 162.531 226.095 162.361 225.977L157.609 223.044C157.508 223.002 157.4 222.985 157.292 222.995C157.185 223.004 157.08 223.039 156.987 223.098L156.962 223.044ZM132.997 237.929L128.892 240.461C128.713 240.57 128.722 240.753 128.892 240.871L133.644 243.804C133.746 243.858 133.858 243.886 133.972 243.886C134.086 243.886 134.198 243.858 134.3 243.804L138.413 241.263C138.584 241.153 138.575 240.971 138.413 240.862L133.661 237.92C133.558 237.866 133.443 237.838 133.328 237.84C133.213 237.842 133.099 237.872 132.997 237.929ZM163.025 219.382L158.878 221.905C158.708 222.014 158.716 222.196 158.878 222.306L163.63 225.239C163.731 225.295 163.844 225.324 163.958 225.324C164.072 225.324 164.184 225.295 164.286 225.239L168.391 222.707C168.57 222.597 168.561 222.415 168.391 222.297L163.656 219.4C163.554 219.342 163.441 219.31 163.326 219.306C163.21 219.303 163.096 219.329 162.991 219.382H163.025ZM151.017 226.806L146.904 229.338C146.734 229.448 146.742 229.63 146.904 229.748L151.656 232.682C151.758 232.735 151.87 232.763 151.984 232.763C152.098 232.763 152.21 232.735 152.312 232.682L156.417 230.149C156.596 230.04 156.579 229.858 156.417 229.739L151.673 226.806C151.567 226.746 151.448 226.715 151.328 226.715C151.208 226.715 151.09 226.746 150.983 226.806H151.017ZM145.005 230.513L140.9 233.046C140.721 233.155 140.738 233.337 140.9 233.456L145.652 236.389C145.754 236.443 145.866 236.471 145.98 236.471C146.094 236.471 146.206 236.443 146.308 236.389L150.413 233.857C150.583 233.747 150.575 233.565 150.413 233.447L145.661 230.513C145.554 230.454 145.436 230.422 145.316 230.422C145.196 230.422 145.077 230.454 144.971 230.513H145.005ZM138.958 234.221L134.854 236.754C134.675 236.863 134.692 237.045 134.854 237.163L139.597 240.097C139.699 240.153 139.811 240.182 139.925 240.182C140.039 240.182 140.151 240.153 140.253 240.097L144.366 237.564C144.537 237.455 144.528 237.273 144.366 237.154L139.614 234.221C139.512 234.167 139.4 234.139 139.286 234.139C139.173 234.139 139.06 234.167 138.958 234.221ZM169.66 238.776L173.764 236.243C173.943 236.134 173.935 235.952 173.764 235.833L169.004 232.836C168.902 232.783 168.79 232.755 168.676 232.755C168.562 232.755 168.45 232.783 168.348 232.836L164.235 235.369C164.064 235.478 164.073 235.66 164.235 235.779L168.987 238.712C169.09 238.776 169.206 238.81 169.325 238.814C169.444 238.817 169.562 238.788 169.668 238.73L169.66 238.776ZM222.418 182.734L218.305 185.275C218.134 185.384 218.143 185.558 218.305 185.676L223.057 188.609C223.158 188.665 223.271 188.694 223.385 188.694C223.499 188.694 223.611 188.665 223.713 188.609L227.817 186.068C227.996 185.958 227.988 185.785 227.817 185.667L223.065 182.734C222.965 182.679 222.854 182.651 222.742 182.651C222.629 182.651 222.518 182.679 222.418 182.734ZM215.145 187.225L211.04 189.766C210.861 189.866 210.878 190.049 211.04 190.167L215.784 193.1C215.886 193.154 215.998 193.182 216.112 193.182C216.225 193.182 216.338 193.154 216.44 193.1L220.553 190.559C220.723 190.449 220.715 190.267 220.553 190.158L215.801 187.225C215.702 187.16 215.59 187.122 215.474 187.114C215.358 187.106 215.243 187.128 215.137 187.179L215.145 187.225ZM228.422 179.026L224.317 181.568C224.138 181.668 224.147 181.85 224.317 181.968L229.069 184.902C229.171 184.958 229.283 184.987 229.397 184.987C229.511 184.987 229.624 184.958 229.725 184.902L233.838 182.36C234.009 182.251 234 182.069 233.838 181.959L229.086 179.026C228.982 178.953 228.862 178.911 228.739 178.903C228.615 178.895 228.491 178.922 228.379 178.98L228.422 179.026ZM197.338 213.315L201.451 210.773C201.621 210.664 201.613 210.481 201.451 210.372L196.699 207.439C196.597 207.383 196.485 207.354 196.371 207.354C196.257 207.354 196.144 207.383 196.043 207.439L191.938 209.98C191.759 210.081 191.768 210.263 191.938 210.381L196.69 213.315C196.793 213.361 196.904 213.38 197.015 213.372C197.126 213.365 197.233 213.329 197.329 213.269L197.338 213.315ZM235.082 175.337C234.98 175.281 234.868 175.251 234.754 175.251C234.64 175.251 234.527 175.281 234.426 175.337L230.321 177.878C230.142 177.978 230.151 178.161 230.321 178.279L235.073 181.212C235.175 181.266 235.287 181.294 235.401 181.294C235.515 181.294 235.627 181.266 235.729 181.212L239.842 178.671C240.013 178.561 240.004 178.379 239.842 178.27L235.082 175.337ZM175.672 235.023L179.785 232.49C179.956 232.381 179.947 232.199 179.785 232.08L175.008 229.193C174.906 229.137 174.794 229.107 174.68 229.107C174.566 229.107 174.453 229.137 174.352 229.193L170.247 231.725C170.068 231.834 170.077 232.017 170.247 232.135L174.999 235.068C175.107 235.118 175.224 235.14 175.341 235.132C175.458 235.124 175.571 235.087 175.672 235.023ZM249.312 189.548L253.426 187.006C253.596 186.906 253.588 186.724 253.426 186.605L248.648 183.645C248.547 183.589 248.434 183.559 248.32 183.559C248.206 183.559 248.094 183.589 247.992 183.645L243.888 186.186C243.709 186.295 243.717 186.478 243.888 186.587L248.64 189.52C248.741 189.583 248.856 189.619 248.973 189.624C249.09 189.629 249.207 189.602 249.312 189.548ZM236.538 189.065L240.651 186.523C240.822 186.414 240.813 186.241 240.651 186.122L235.899 183.189C235.798 183.133 235.686 183.104 235.571 183.104C235.457 183.104 235.345 183.133 235.244 183.189L231.139 185.731C230.96 185.84 230.968 186.013 231.139 186.131L235.891 189.065C235.986 189.123 236.092 189.158 236.201 189.166C236.31 189.174 236.42 189.155 236.521 189.11L236.538 189.065ZM241.878 179.481C241.776 179.425 241.664 179.396 241.55 179.396C241.436 179.396 241.323 179.425 241.222 179.481L237.117 182.023C236.938 182.123 236.947 182.305 237.117 182.424L241.869 185.357C241.971 185.413 242.083 185.442 242.197 185.442C242.311 185.442 242.424 185.413 242.525 185.357L246.638 182.816C246.809 182.706 246.8 182.524 246.638 182.415L241.878 179.481ZM243.147 178.698L254.678 185.822C254.779 185.878 254.892 185.907 255.006 185.907C255.12 185.907 255.232 185.878 255.334 185.822L259.447 183.28C259.617 183.171 259.609 182.998 259.447 182.879L247.907 175.756C247.806 175.7 247.694 175.67 247.579 175.67C247.465 175.67 247.353 175.7 247.252 175.756L243.147 178.297C242.925 178.397 242.942 178.58 243.13 178.698H243.147ZM229.214 186.897L225.101 189.438C224.93 189.548 224.939 189.73 225.101 189.839L229.853 192.772C229.954 192.828 230.067 192.857 230.181 192.857C230.295 192.857 230.407 192.828 230.509 192.772L234.613 190.231C234.792 190.131 234.784 189.948 234.613 189.83L229.861 186.897C229.765 186.842 229.657 186.812 229.548 186.809C229.439 186.806 229.33 186.83 229.231 186.878L229.214 186.897ZM184.018 214.808L179.888 217.35C179.717 217.459 179.726 217.642 179.888 217.751L184.64 220.684C184.741 220.74 184.854 220.769 184.968 220.769C185.082 220.769 185.194 220.74 185.296 220.684L189.4 218.143C189.579 218.042 189.571 217.86 189.4 217.742L184.648 214.808C184.549 214.751 184.439 214.72 184.327 214.717C184.214 214.713 184.103 214.739 184.001 214.79L184.018 214.808ZM242.67 193.255C242.771 193.311 242.884 193.34 242.998 193.34C243.112 193.34 243.224 193.311 243.326 193.255L247.439 190.714C247.609 190.613 247.601 190.431 247.439 190.313L242.687 187.379C242.585 187.326 242.473 187.298 242.359 187.298C242.245 187.298 242.133 187.326 242.031 187.379L237.926 189.921C237.747 190.03 237.756 190.213 237.926 190.322L242.67 193.255ZM190.022 211.101L185.917 213.642C185.738 213.752 185.747 213.925 185.917 214.043L190.669 216.977C190.771 217.032 190.883 217.062 190.997 217.062C191.111 217.062 191.224 217.032 191.325 216.977L195.438 214.435C195.609 214.326 195.6 214.153 195.438 214.034L190.686 211.101C190.583 211.037 190.467 211.003 190.348 210.999C190.229 210.996 190.111 211.025 190.005 211.083L190.022 211.101ZM145.005 253.57C145.106 253.626 145.219 253.655 145.333 253.655C145.447 253.655 145.559 253.626 145.661 253.57L149.774 251.028C149.944 250.919 149.936 250.746 149.774 250.627L145.022 247.694C144.921 247.638 144.808 247.609 144.694 247.609C144.58 247.609 144.468 247.638 144.366 247.694L140.261 250.236C140.083 250.345 140.1 250.518 140.261 250.637L145.005 253.57ZM135.978 244.46L131.864 247.002C131.694 247.111 131.703 247.284 131.864 247.403L136.616 250.336C136.718 250.392 136.83 250.421 136.944 250.421C137.058 250.421 137.171 250.392 137.272 250.336L141.377 247.794C141.556 247.685 141.547 247.512 141.377 247.394L136.625 244.46C136.522 244.403 136.408 244.373 136.293 244.373C136.177 244.373 136.063 244.403 135.961 244.46H135.978ZM151.673 249.862L155.778 247.321C155.948 247.211 155.94 247.029 155.778 246.92L151.026 243.987C150.925 243.931 150.812 243.901 150.698 243.901C150.584 243.901 150.472 243.931 150.37 243.987L146.223 246.501C146.052 246.601 146.061 246.783 146.223 246.902L150.975 249.835C151.077 249.9 151.193 249.936 151.312 249.941C151.431 249.946 151.549 249.919 151.656 249.862H151.673ZM157.677 246.155L161.782 243.613C161.961 243.504 161.944 243.322 161.782 243.212L157.038 240.279C156.937 240.223 156.825 240.194 156.711 240.194C156.597 240.194 156.484 240.223 156.383 240.279L152.269 242.811C152.099 242.921 152.108 243.103 152.269 243.221L157.021 246.155C157.126 246.211 157.241 246.241 157.358 246.241C157.475 246.241 157.59 246.211 157.694 246.155H157.677ZM163.639 242.438L167.743 239.905C167.922 239.796 167.914 239.614 167.743 239.505L162.991 236.562C162.889 236.508 162.777 236.48 162.664 236.48C162.55 236.48 162.438 236.508 162.336 236.562L158.222 239.095C158.052 239.204 158.06 239.386 158.222 239.505L162.974 242.438C163.079 242.499 163.196 242.53 163.315 242.53C163.434 242.53 163.551 242.499 163.656 242.438H163.639ZM141.939 240.753L137.826 243.294C137.655 243.394 137.664 243.577 137.826 243.695L142.578 246.628C142.679 246.684 142.792 246.713 142.906 246.713C143.02 246.713 143.132 246.684 143.234 246.628L147.347 244.087C147.517 243.977 147.509 243.795 147.347 243.686L142.595 240.753C142.497 240.701 142.389 240.674 142.28 240.674C142.171 240.674 142.063 240.701 141.965 240.753H141.939ZM147.943 237.045L143.838 239.578C143.659 239.687 143.668 239.869 143.838 239.987L148.59 242.921C148.692 242.975 148.804 243.003 148.918 243.003C149.032 243.003 149.144 242.975 149.246 242.921L153.436 240.397C153.606 240.288 153.598 240.106 153.436 239.997L148.684 237.063C148.577 236.993 148.454 236.955 148.329 236.952C148.203 236.948 148.079 236.981 147.969 237.045H147.943ZM171.968 222.215L167.914 224.747C167.743 224.856 167.752 225.039 167.914 225.157L172.666 228.09C172.768 228.144 172.88 228.172 172.994 228.172C173.107 228.172 173.22 228.144 173.322 228.09L177.426 225.558C177.605 225.449 177.588 225.266 177.426 225.148L172.683 222.215C172.577 222.152 172.459 222.12 172.338 222.12C172.217 222.12 172.099 222.152 171.993 222.215H171.968ZM165.955 225.922L161.85 228.455C161.68 228.564 161.688 228.746 161.85 228.865L166.602 231.798C166.704 231.852 166.816 231.88 166.93 231.88C167.044 231.88 167.156 231.852 167.258 231.798L171.363 229.265C171.542 229.156 171.525 228.974 171.363 228.856L166.611 225.922C166.512 225.873 166.405 225.847 166.296 225.847C166.187 225.847 166.079 225.873 165.981 225.922H165.955ZM177.972 218.498L173.875 221.039C173.705 221.149 173.713 221.331 173.875 221.44L178.627 224.383C178.729 224.437 178.841 224.465 178.955 224.465C179.069 224.465 179.181 224.437 179.283 224.383L183.388 221.841C183.567 221.741 183.558 221.559 183.388 221.44L178.636 218.507C178.537 218.455 178.428 218.427 178.317 218.425C178.207 218.423 178.097 218.448 177.997 218.498H177.972ZM153.947 233.337L149.842 235.87C149.663 235.979 149.672 236.161 149.842 236.28L154.594 239.213C154.696 239.267 154.808 239.295 154.922 239.295C155.036 239.295 155.148 239.267 155.25 239.213L159.363 236.672C159.534 236.562 159.525 236.38 159.363 236.271L154.611 233.328C154.511 233.279 154.402 233.254 154.291 233.255C154.18 233.257 154.072 233.285 153.973 233.337H153.947ZM159.951 229.63L155.846 232.162C155.667 232.272 155.684 232.454 155.846 232.572L160.598 235.506C160.698 235.561 160.809 235.591 160.922 235.591C161.035 235.591 161.146 235.561 161.246 235.506L165.359 232.973C165.529 232.864 165.521 232.682 165.359 232.563L160.607 229.63C160.508 229.58 160.401 229.555 160.292 229.555C160.183 229.555 160.075 229.58 159.977 229.63H159.951ZM155.574 255.811L159.679 253.269C159.849 253.16 159.84 252.978 159.679 252.868L154.926 249.935C154.825 249.879 154.713 249.85 154.599 249.85C154.485 249.85 154.372 249.879 154.271 249.935L150.166 252.477C149.987 252.577 150.004 252.759 150.166 252.878L154.918 255.811C155.023 255.871 155.14 255.903 155.259 255.903C155.378 255.903 155.495 255.871 155.599 255.811H155.574ZM120.359 251.967L115.607 249.033C115.505 248.977 115.393 248.948 115.279 248.948C115.165 248.948 115.052 248.977 114.951 249.033L110.855 251.593C110.684 251.702 110.693 251.876 110.855 251.994L115.607 254.927C115.708 254.983 115.821 255.012 115.935 255.012C116.049 255.012 116.161 254.983 116.262 254.927L120.367 252.386C120.555 252.304 120.546 252.121 120.359 251.967ZM129.352 254.791L124.6 251.857C124.499 251.804 124.389 251.776 124.276 251.776C124.164 251.776 124.053 251.804 123.953 251.857L117.668 255.784C117.497 255.893 117.506 256.075 117.668 256.184L122.42 259.118C122.521 259.174 122.634 259.203 122.748 259.203C122.862 259.203 122.974 259.174 123.076 259.118L129.395 255.219C129.59 255.128 129.539 254.945 129.352 254.827V254.791ZM113.069 246.291L108.3 243.394C108.198 243.339 108.086 243.309 107.972 243.309C107.858 243.309 107.745 243.339 107.644 243.394L102.602 246.501C102.432 246.61 102.441 246.792 102.602 246.911L107.354 249.844C107.456 249.9 107.568 249.929 107.682 249.929C107.796 249.929 107.909 249.9 108.01 249.844L113.06 246.729C113.265 246.628 113.256 246.446 113.069 246.328V246.291ZM116.944 243.895C117.045 243.951 117.158 243.981 117.272 243.981C117.386 243.981 117.498 243.951 117.6 243.895L121.704 241.354C121.883 241.254 121.875 241.072 121.704 240.953L116.952 238.02C116.851 237.964 116.738 237.935 116.624 237.935C116.51 237.935 116.398 237.964 116.297 238.02L112.183 240.561C112.013 240.671 112.021 240.853 112.183 240.962L116.944 243.895ZM137.724 258.006L132.997 255.109C132.895 255.056 132.783 255.028 132.669 255.028C132.555 255.028 132.443 255.056 132.341 255.109L124.438 259.992C124.268 260.101 124.276 260.284 124.438 260.393L129.19 263.335C129.292 263.389 129.404 263.417 129.518 263.417C129.632 263.417 129.744 263.389 129.846 263.335L137.749 258.453C137.919 258.343 137.911 258.161 137.724 258.043V258.006ZM141.667 263.955L136.914 261.076C136.813 261.02 136.701 260.991 136.587 260.991C136.473 260.991 136.36 261.02 136.259 261.076L131.2 264.201C131.03 264.31 131.038 264.492 131.2 264.611L135.952 267.544C136.054 267.598 136.166 267.626 136.28 267.626C136.394 267.626 136.506 267.598 136.608 267.544L141.667 264.419C141.862 264.292 141.854 264.11 141.667 263.991V263.955ZM161.595 216.321C161.696 216.377 161.809 216.406 161.923 216.406C162.037 216.406 162.149 216.377 162.25 216.321L166.355 213.788C166.534 213.679 166.517 213.497 166.355 213.378L161.603 210.445C161.501 210.391 161.389 210.363 161.275 210.363C161.162 210.363 161.049 210.391 160.947 210.445L156.843 213.023C156.672 213.132 156.681 213.315 156.843 213.424L161.595 216.321ZM149.578 223.745C149.68 223.799 149.792 223.827 149.906 223.827C150.02 223.827 150.132 223.799 150.234 223.745L154.347 221.213C154.518 221.103 154.509 220.921 154.347 220.803L149.595 217.869C149.493 217.815 149.381 217.787 149.267 217.787C149.154 217.787 149.041 217.815 148.939 217.869L144.835 220.402C144.656 220.511 144.673 220.693 144.835 220.812L149.578 223.745ZM122.948 240.224C123.049 240.28 123.162 240.309 123.276 240.309C123.39 240.309 123.502 240.28 123.604 240.224L127.708 237.683C127.887 237.573 127.879 237.4 127.708 237.282L122.956 234.349C122.855 234.293 122.742 234.264 122.628 234.264C122.514 234.264 122.402 234.293 122.301 234.349L118.187 236.89C118.017 237 118.025 237.173 118.187 237.291L122.948 240.224ZM155.591 220.083C155.691 220.137 155.802 220.165 155.914 220.165C156.027 220.165 156.137 220.137 156.238 220.083L160.351 217.55C160.522 217.441 160.513 217.259 160.351 217.141L155.599 214.207C155.498 214.151 155.385 214.122 155.271 214.122C155.157 214.122 155.045 214.151 154.943 214.207L150.839 216.74C150.66 216.849 150.677 217.031 150.839 217.15L155.591 220.083ZM143.574 227.498C143.676 227.554 143.788 227.583 143.902 227.583C144.016 227.583 144.129 227.554 144.23 227.498L148.343 224.966C148.514 224.856 148.505 224.674 148.343 224.556L143.591 221.622C143.489 221.569 143.377 221.541 143.263 221.541C143.15 221.541 143.037 221.569 142.936 221.622L138.831 224.155C138.652 224.264 138.66 224.446 138.831 224.565L143.574 227.498ZM144.962 264.474C144.86 264.42 144.748 264.392 144.635 264.392C144.521 264.392 144.409 264.42 144.307 264.474L137.988 268.364C137.817 268.473 137.826 268.655 137.988 268.774L142.74 271.707C142.841 271.763 142.953 271.792 143.068 271.792C143.182 271.792 143.294 271.763 143.395 271.707L149.714 267.808C149.893 267.699 149.876 267.517 149.714 267.398L144.962 264.474ZM134.956 232.836C135.058 232.89 135.17 232.918 135.284 232.918C135.397 232.918 135.51 232.89 135.612 232.836L139.725 230.295C139.895 230.186 139.887 230.003 139.725 229.894L134.973 226.961C134.871 226.905 134.759 226.876 134.645 226.876C134.531 226.876 134.418 226.905 134.317 226.961L130.212 229.502C130.033 229.602 130.042 229.785 130.212 229.903L134.956 232.836ZM128.952 236.48C129.053 236.536 129.166 236.565 129.28 236.565C129.394 236.565 129.506 236.536 129.608 236.48L133.721 233.939C133.891 233.829 133.883 233.647 133.721 233.538L128.969 230.605C128.867 230.549 128.755 230.519 128.641 230.519C128.527 230.519 128.414 230.549 128.313 230.605L124.208 233.146C124.029 233.246 124.038 233.429 124.208 233.547L128.952 236.48ZM256.219 195.76C256.118 195.704 256.005 195.675 255.891 195.675C255.777 195.675 255.665 195.704 255.563 195.76L245.412 201.991C245.242 202.101 245.25 202.283 245.412 202.401L250.164 205.334C250.266 205.388 250.378 205.416 250.492 205.416C250.606 205.416 250.718 205.388 250.82 205.334L260.988 199.131C261.167 199.022 261.159 198.839 260.988 198.721L256.219 195.76ZM242.942 203.959C242.841 203.903 242.729 203.874 242.614 203.874C242.5 203.874 242.388 203.903 242.287 203.959L238.182 206.491C238.003 206.601 238.011 206.783 238.182 206.901L242.934 209.835C243.036 209.888 243.148 209.916 243.262 209.916C243.375 209.916 243.488 209.888 243.59 209.835L247.703 207.302C247.873 207.193 247.865 207.011 247.703 206.892L242.942 203.959ZM161.603 252.103L165.708 249.562C165.887 249.452 165.87 249.27 165.708 249.161L160.964 246.218C160.863 246.165 160.75 246.137 160.637 246.137C160.523 246.137 160.411 246.165 160.309 246.218L156.195 248.751C156.025 248.86 156.034 249.042 156.195 249.161L160.947 252.094C161.049 252.149 161.161 252.179 161.274 252.181C161.388 252.182 161.501 252.156 161.603 252.103ZM230.934 211.374C230.832 211.32 230.72 211.292 230.606 211.292C230.493 211.292 230.381 211.32 230.279 211.374L226.165 213.907C225.995 214.016 226.003 214.198 226.165 214.317L230.917 217.25C231.019 217.306 231.131 217.335 231.245 217.335C231.359 217.335 231.472 217.306 231.573 217.25L235.678 214.717C235.857 214.608 235.848 214.426 235.678 214.307L230.934 211.374ZM262.223 192.053C262.121 191.999 262.009 191.971 261.895 191.971C261.782 191.971 261.669 191.999 261.567 192.053L257.463 194.576C257.284 194.685 257.292 194.868 257.463 194.977L262.215 197.919C262.317 197.973 262.429 198.001 262.543 198.001C262.656 198.001 262.768 197.973 262.87 197.919L266.984 195.387C267.154 195.277 267.146 195.095 266.984 194.977L262.223 192.053ZM272.979 191.278L261.44 184.155C261.338 184.099 261.226 184.07 261.112 184.07C260.998 184.07 260.885 184.099 260.784 184.155L256.679 186.696C256.5 186.806 256.509 186.988 256.679 187.097L268.219 194.221C268.32 194.277 268.432 194.306 268.547 194.306C268.661 194.306 268.773 194.277 268.874 194.221L272.988 191.679C273.175 191.579 273.167 191.397 272.979 191.278ZM208.494 225.239C208.393 225.183 208.28 225.154 208.166 225.154C208.052 225.154 207.94 225.183 207.838 225.239L202.779 228.364C202.609 228.473 202.618 228.655 202.779 228.764L207.532 231.698C207.633 231.754 207.745 231.783 207.859 231.783C207.974 231.783 208.086 231.754 208.187 231.698L213.246 228.573C213.416 228.464 213.408 228.282 213.246 228.172L208.494 225.239ZM223.661 215.865C223.56 215.809 223.448 215.78 223.334 215.78C223.219 215.78 223.107 215.809 223.006 215.865L216.687 219.764C216.516 219.873 216.525 220.056 216.687 220.165L221.439 223.107C221.541 223.161 221.653 223.189 221.767 223.189C221.88 223.189 221.992 223.161 222.094 223.107L228.414 219.208C228.584 219.099 228.575 218.917 228.414 218.798L223.661 215.865ZM194.587 233.82C194.485 233.766 194.373 233.738 194.259 233.738C194.145 233.738 194.033 233.766 193.931 233.82L160.113 254.699C159.943 254.809 159.951 254.991 160.113 255.109L164.865 258.043C164.967 258.097 165.079 258.125 165.193 258.125C165.307 258.125 165.419 258.097 165.521 258.043L199.339 237.154C199.509 237.045 199.501 236.863 199.339 236.744L194.587 233.82ZM158.869 255.884C158.768 255.828 158.656 255.799 158.542 255.799C158.428 255.799 158.315 255.828 158.214 255.884L153.164 259.008C152.985 259.118 152.993 259.3 153.164 259.409L157.916 262.342C158.017 262.398 158.129 262.428 158.244 262.428C158.358 262.428 158.47 262.398 158.571 262.342L163.656 259.254C163.826 259.145 163.817 258.963 163.656 258.853L158.869 255.884ZM201.536 229.53C201.434 229.476 201.322 229.448 201.208 229.448C201.095 229.448 200.982 229.476 200.88 229.53L195.83 232.654C195.651 232.764 195.66 232.946 195.83 233.064L200.582 235.997C200.684 236.051 200.796 236.079 200.91 236.079C201.024 236.079 201.136 236.051 201.238 235.997L206.297 232.873C206.476 232.773 206.459 232.59 206.297 232.472L201.536 229.53ZM151.92 260.165C151.818 260.111 151.706 260.083 151.592 260.083C151.479 260.083 151.366 260.111 151.264 260.165L146.206 263.29C146.035 263.399 146.044 263.581 146.206 263.7L150.958 266.633C151.06 266.687 151.172 266.715 151.286 266.715C151.399 266.715 151.512 266.687 151.614 266.633L156.664 263.518C156.843 263.408 156.834 263.226 156.664 263.108L151.92 260.165ZM215.443 220.93C215.341 220.876 215.229 220.848 215.115 220.848C215.002 220.848 214.889 220.876 214.787 220.93L209.737 224.046C209.558 224.155 209.567 224.337 209.737 224.456L214.489 227.389C214.591 227.443 214.704 227.471 214.817 227.471C214.931 227.471 215.043 227.443 215.145 227.389L220.204 224.264C220.383 224.155 220.366 223.973 220.204 223.854L215.443 220.93ZM236.938 207.657C236.837 207.602 236.725 207.572 236.61 207.572C236.496 207.572 236.384 207.602 236.283 207.657L232.178 210.19C231.999 210.299 232.007 210.481 232.178 210.6L236.93 213.533C237.032 213.587 237.144 213.615 237.258 213.615C237.371 213.615 237.484 213.587 237.586 213.533L241.699 211.001C241.869 210.891 241.861 210.709 241.699 210.591L236.938 207.657ZM250.096 197.436L254.201 194.904C254.38 194.795 254.371 194.612 254.201 194.494L249.449 191.561C249.347 191.507 249.235 191.479 249.121 191.479C249.007 191.479 248.895 191.507 248.793 191.561L244.68 194.102C244.509 194.212 244.518 194.394 244.68 194.503L249.432 197.446C249.535 197.501 249.649 197.53 249.764 197.53C249.879 197.53 249.993 197.501 250.096 197.446V197.436ZM223.27 197.309L227.383 194.767C227.553 194.658 227.545 194.476 227.383 194.367L222.631 191.433C222.53 191.377 222.417 191.348 222.303 191.348C222.189 191.348 222.077 191.377 221.975 191.433L217.87 193.975C217.692 194.084 217.709 194.257 217.87 194.376L222.614 197.309C222.715 197.365 222.828 197.394 222.942 197.394C223.056 197.394 223.168 197.365 223.27 197.309ZM209.644 222.479L221.652 215.064C221.822 214.954 221.813 214.772 221.652 214.654L216.899 211.72C216.798 211.667 216.685 211.638 216.572 211.638C216.458 211.638 216.346 211.667 216.244 211.72L204.236 219.145C204.065 219.245 204.074 219.427 204.236 219.545L208.988 222.479C209.093 222.528 209.207 222.549 209.321 222.541C209.435 222.533 209.546 222.496 209.644 222.433V222.479ZM243.436 201.19C243.538 201.243 243.65 201.271 243.764 201.271C243.878 201.271 243.99 201.243 244.092 201.19L248.197 198.657C248.376 198.548 248.367 198.366 248.197 198.247L243.445 195.314C243.343 195.258 243.231 195.229 243.117 195.229C243.003 195.229 242.89 195.258 242.789 195.314L238.676 197.846C238.505 197.956 238.514 198.138 238.676 198.256L243.436 201.19ZM237.305 197.008L241.409 194.476C241.588 194.367 241.58 194.184 241.409 194.066L236.657 191.133C236.555 191.079 236.443 191.051 236.329 191.051C236.216 191.051 236.104 191.079 236.002 191.133L231.888 193.674C231.718 193.784 231.726 193.966 231.888 194.075L236.64 197.017C236.747 197.064 236.863 197.084 236.978 197.074C237.094 197.065 237.205 197.027 237.305 196.963V197.008ZM203.64 226.159L207.744 223.617C207.923 223.508 207.906 223.335 207.744 223.217L202.992 220.283C202.891 220.227 202.779 220.198 202.665 220.198C202.55 220.198 202.438 220.227 202.337 220.283L198.206 222.816C198.027 222.925 198.044 223.098 198.206 223.217L202.958 226.15C203.069 226.217 203.194 226.252 203.321 226.251C203.449 226.249 203.573 226.211 203.682 226.141L203.64 226.159ZM230.159 209.361C230.261 209.415 230.374 209.443 230.487 209.443C230.601 209.443 230.713 209.415 230.815 209.361L234.928 206.828C235.099 206.719 235.09 206.537 234.928 206.419L230.176 203.485C230.074 203.431 229.962 203.403 229.849 203.403C229.735 203.403 229.623 203.431 229.521 203.485L225.416 206.027C225.237 206.136 225.245 206.318 225.416 206.428L230.159 209.361ZM173.611 244.679L177.716 242.146C177.895 242.037 177.886 241.855 177.716 241.736L172.964 238.803C172.862 238.749 172.75 238.721 172.636 238.721C172.522 238.721 172.41 238.749 172.308 238.803L168.195 241.336C168.024 241.445 168.033 241.627 168.195 241.746L172.947 244.679C173.05 244.734 173.164 244.763 173.279 244.763C173.394 244.763 173.508 244.734 173.611 244.679ZM179.615 240.971L183.729 238.439C183.899 238.329 183.89 238.147 183.729 238.029L178.985 235.096C178.884 235.04 178.771 235.01 178.657 235.01C178.543 235.01 178.431 235.04 178.329 235.096L174.216 237.628C174.046 237.737 174.054 237.92 174.216 238.038L178.968 240.971C179.069 241.024 179.179 241.051 179.292 241.051C179.404 241.051 179.514 241.024 179.615 240.971ZM167.607 248.387L171.712 245.854C171.891 245.745 171.882 245.563 171.712 245.444L166.968 242.511C166.867 242.457 166.754 242.429 166.641 242.429C166.527 242.429 166.415 242.457 166.313 242.511L162.199 245.043C162.029 245.153 162.038 245.335 162.199 245.453L166.951 248.387C167.053 248.442 167.165 248.472 167.279 248.472C167.393 248.472 167.506 248.442 167.607 248.387ZM191.623 233.556L195.737 231.024C195.907 230.914 195.898 230.732 195.737 230.614L190.984 227.68C190.882 227.627 190.77 227.599 190.657 227.599C190.543 227.599 190.431 227.627 190.329 227.68L186.224 230.222C186.045 230.331 186.053 230.513 186.224 230.623L190.976 233.556C191.076 233.61 191.187 233.639 191.3 233.639C191.412 233.639 191.523 233.61 191.623 233.556ZM185.662 237.264L189.775 234.731C189.945 234.622 189.937 234.44 189.775 234.321L184.946 231.388C184.845 231.332 184.733 231.303 184.618 231.303C184.504 231.303 184.392 231.332 184.291 231.388L180.186 233.92C180.007 234.03 180.015 234.212 180.186 234.321L184.938 237.264C185.043 237.322 185.16 237.352 185.279 237.352C185.397 237.352 185.514 237.322 185.619 237.264H185.662ZM197.67 229.848L201.783 227.307C201.953 227.207 201.945 227.024 201.783 226.906L197.031 223.973C196.93 223.917 196.817 223.888 196.703 223.888C196.589 223.888 196.477 223.917 196.375 223.973L192.202 226.46C192.023 226.569 192.04 226.751 192.202 226.861L196.946 229.794C197.046 229.863 197.161 229.904 197.28 229.914C197.399 229.923 197.518 229.901 197.627 229.848H197.67ZM225.143 174.981C225.245 175.037 225.357 175.066 225.471 175.066C225.585 175.066 225.698 175.037 225.799 174.981L229.912 172.44C230.083 172.339 230.074 172.157 229.912 172.039L228.652 171.255C228.55 171.202 228.438 171.174 228.324 171.174C228.21 171.174 228.098 171.202 227.996 171.255L223.883 173.788C223.713 173.897 223.721 174.079 223.883 174.198L225.143 174.981ZM195.6 195.387C195.702 195.443 195.814 195.472 195.928 195.472C196.042 195.472 196.155 195.443 196.256 195.387L200.361 192.854C200.54 192.745 200.531 192.563 200.361 192.444L195.609 189.511C195.507 189.457 195.395 189.429 195.281 189.429C195.167 189.429 195.055 189.457 194.953 189.511L190.84 192.044C190.669 192.153 190.678 192.335 190.84 192.454L195.6 195.387ZM207.608 187.972C207.71 188.025 207.822 188.053 207.936 188.053C208.05 188.053 208.162 188.025 208.264 187.972L212.377 185.439C212.548 185.33 212.539 185.148 212.377 185.029L207.625 182.096C207.524 182.04 207.411 182.011 207.297 182.011C207.183 182.011 207.071 182.04 206.969 182.096L202.831 184.628C202.652 184.738 202.66 184.92 202.831 185.038L207.608 187.972ZM188.268 199.914C188.37 199.968 188.482 199.996 188.596 199.996C188.709 199.996 188.822 199.968 188.923 199.914L193.028 197.373C193.207 197.263 193.199 197.081 193.028 196.972L188.276 194.029C188.174 193.976 188.062 193.948 187.948 193.948C187.835 193.948 187.722 193.976 187.62 194.029L183.507 196.562C183.337 196.671 183.345 196.853 183.507 196.972L188.268 199.914ZM201.604 191.716C201.706 191.769 201.818 191.797 201.932 191.797C202.046 191.797 202.158 191.769 202.26 191.716L206.373 189.183C206.544 189.074 206.535 188.892 206.373 188.773L201.621 185.84C201.519 185.786 201.407 185.758 201.293 185.758C201.18 185.758 201.067 185.786 200.966 185.84L196.861 188.372C196.682 188.482 196.69 188.664 196.861 188.782L201.604 191.716ZM176.217 207.329C176.319 207.385 176.431 207.415 176.545 207.415C176.659 207.415 176.772 207.385 176.873 207.329L180.978 204.788C181.157 204.679 181.14 204.496 180.978 204.387L176.234 201.454C176.133 201.398 176.02 201.369 175.906 201.369C175.792 201.369 175.68 201.398 175.578 201.454L171.465 203.995C171.295 204.096 171.303 204.278 171.465 204.396L176.217 207.329ZM182.221 203.622C182.323 203.676 182.435 203.704 182.549 203.704C182.663 203.704 182.775 203.676 182.877 203.622L186.982 201.08C187.161 200.971 187.152 200.789 186.982 200.679L182.238 197.746C182.137 197.69 182.024 197.661 181.91 197.661C181.796 197.661 181.684 197.69 181.582 197.746L177.469 200.288C177.299 200.388 177.307 200.57 177.469 200.689L182.221 203.622ZM213.093 182.406C213.195 182.459 213.307 182.487 213.421 182.487C213.534 182.487 213.646 182.459 213.748 182.406L217.862 179.873C218.032 179.764 218.024 179.582 217.862 179.463L216.593 178.68C216.491 178.626 216.379 178.598 216.265 178.598C216.151 178.598 216.039 178.626 215.937 178.68L211.832 181.212C211.653 181.322 211.67 181.504 211.832 181.622L213.093 182.406ZM231.113 171.274C231.213 171.33 231.324 171.359 231.437 171.359C231.549 171.359 231.661 171.33 231.76 171.274L235.874 168.732C236.044 168.623 236.036 168.45 235.874 168.331L234.613 167.548C234.512 167.492 234.4 167.463 234.285 167.463C234.171 167.463 234.059 167.492 233.958 167.548L229.844 170.08C229.674 170.19 229.682 170.372 229.844 170.49L231.113 171.274ZM241.086 177.441C241.188 177.495 241.3 177.523 241.414 177.523C241.527 177.523 241.64 177.495 241.742 177.441L245.855 174.899C246.025 174.79 246.017 174.608 245.855 174.498L241.103 171.556C241.001 171.502 240.889 171.474 240.775 171.474C240.661 171.474 240.549 171.502 240.447 171.556L236.342 174.089C236.163 174.198 236.18 174.38 236.342 174.498L241.086 177.441ZM256.1 193.738L260.213 191.196C260.384 191.096 260.375 190.914 260.213 190.796L255.461 187.862C255.359 187.808 255.247 187.78 255.133 187.78C255.02 187.78 254.907 187.808 254.805 187.862L250.701 190.404C250.522 190.513 250.53 190.695 250.701 190.805L255.453 193.738C255.553 193.792 255.664 193.821 255.776 193.821C255.889 193.821 256 193.792 256.1 193.738ZM219.097 178.698C219.199 178.752 219.311 178.78 219.425 178.78C219.538 178.78 219.65 178.752 219.752 178.698L223.866 176.166C224.036 176.056 224.028 175.874 223.866 175.756L222.597 174.972C222.495 174.918 222.383 174.89 222.269 174.89C222.155 174.89 222.043 174.918 221.941 174.972L217.836 177.505C217.666 177.614 217.674 177.796 217.836 177.915L219.097 178.698ZM170.213 211.037C170.315 211.093 170.427 211.122 170.541 211.122C170.655 211.122 170.768 211.093 170.869 211.037L174.974 208.496C175.144 208.386 175.136 208.213 174.974 208.095L170.222 205.161C170.12 205.105 170.008 205.076 169.894 205.076C169.78 205.076 169.667 205.105 169.566 205.161L165.461 207.703C165.291 207.812 165.299 207.985 165.461 208.104L170.213 211.037Z" fill="#455A64"/>
<path d="M194.63 250.964L239.596 223.189L267.274 240.279L222.299 268.054L194.63 250.964Z" fill="#263238"/>
<path d="M94.6738 111.005L228.686 28.2437C231.301 26.6222 233.447 27.9522 233.447 31.1861V142.205C233.404 143.026 233.181 143.825 232.796 144.537C232.412 145.249 231.876 145.854 231.233 146.304L93.8222 231.169C92.6043 231.916 91.6079 231.306 91.6079 229.803V116.68C91.6691 115.543 91.9783 114.438 92.5107 113.453C93.0431 112.467 93.7839 111.629 94.6738 111.005Z" fill="#F5F5F5"/>
<path d="M233.489 33.8471V31.1871C233.489 27.9532 231.343 26.6323 228.729 28.2447L94.6738 111.006C93.7839 111.63 93.0431 112.468 92.5107 113.454C91.9783 114.439 91.6691 115.545 91.6079 116.681V121.445L233.489 33.8471Z" fill="#F03E3D"/>
<path d="M213.493 39.9041C213.015 40.2372 212.617 40.6863 212.331 41.215C212.045 41.7437 211.88 42.337 211.85 42.9467C211.85 44.0672 212.582 44.5227 213.493 43.9579C213.97 43.6258 214.366 43.1779 214.651 42.6507C214.935 42.1236 215.098 41.5321 215.128 40.9244C215.128 39.8039 214.396 39.3484 213.493 39.9041Z" fill="white"/>
<path d="M220 35.8864C219.523 36.2205 219.126 36.67 218.842 37.1987C218.558 37.7273 218.394 38.3201 218.365 38.929C218.365 40.0495 219.097 40.4958 220 39.9401C220.478 39.6071 220.876 39.1579 221.162 38.6292C221.447 38.1006 221.612 37.5072 221.643 36.8975C221.643 35.7771 220.911 35.3216 220 35.8864Z" fill="white"/>
<path d="M226.514 31.8601C226.037 32.1948 225.64 32.6443 225.355 33.1726C225.07 33.701 224.904 34.2935 224.871 34.9027C224.871 36.0232 225.612 36.4787 226.514 35.9139C226.992 35.5822 227.39 35.1347 227.676 34.6076C227.961 34.0804 228.127 33.4887 228.158 32.8804C228.158 31.7599 227.417 31.3044 226.514 31.8601Z" fill="white"/>
<path d="M124.7 175.798L119.486 172.578L106.716 196.238L111.93 199.458L124.7 175.798Z" fill="#37474F"/>
<path d="M124.711 175.791L122.107 174.183L109.337 197.843L111.94 199.451L124.711 175.791Z" fill="#263238"/>
<path d="M92.7155 242.438C90.3394 246.856 79.0894 239.842 81.4569 235.487L110.796 186.541C110.875 186.409 110.998 186.314 111.141 186.277C111.284 186.239 111.435 186.262 111.562 186.341L117.455 189.985C117.582 190.062 117.676 190.188 117.718 190.338C117.759 190.487 117.744 190.648 117.677 190.786L92.7155 242.438Z" fill="#11B5E4"/>
<path opacity="0.1" d="M92.7153 242.438L117.668 190.786C117.735 190.648 117.75 190.487 117.709 190.338C117.668 190.188 117.573 190.062 117.447 189.985L114.764 188.327L86.1577 242.72C88.7637 244.096 91.6422 244.433 92.7153 242.438Z" fill="black"/>
<path d="M178.986 127.21C178.986 126.837 178.986 126.472 178.935 126.108C178.884 125.744 178.935 125.388 178.858 125.033C178.781 124.678 178.858 124.559 178.79 124.323C178.73 123.703 178.645 123.093 178.552 122.501C178.509 122.237 178.466 121.963 178.415 121.699C178.364 121.435 178.322 121.198 178.27 120.952C178.126 120.278 177.972 119.622 177.794 118.994C177.7 118.693 177.615 118.392 177.521 118.083C177.503 118.038 177.489 117.993 177.478 117.946C177.376 117.654 177.283 117.372 177.18 117.099C177.078 116.825 176.942 116.461 176.806 116.188C176.669 115.914 176.618 115.741 176.508 115.523C176.446 115.359 176.372 115.2 176.286 115.049C176.201 114.858 176.107 114.666 176.005 114.484C175.903 114.302 175.963 114.393 175.937 114.357C175.911 114.32 175.758 114.029 175.664 113.865C175.571 113.701 175.537 113.655 175.477 113.555C175.041 112.82 174.551 112.122 174.012 111.469L173.74 111.141L173.51 110.886C173.416 110.777 173.314 110.676 173.212 110.567C172.944 110.266 172.66 109.983 172.36 109.72C172.215 109.583 172.062 109.456 171.909 109.337L171.44 108.973C171.197 108.782 170.944 108.606 170.682 108.445L170.478 108.308H170.435L158.368 100.856L158.3 100.811C155.985 99.4296 153.371 98.7228 150.72 98.7611C146.769 98.7611 142.306 100.146 137.58 103.061C121.348 113.081 108.181 137.477 108.181 157.536C108.181 167.557 111.452 174.571 116.74 177.869H116.791L128.867 185.311H128.919L129.063 185.393C129.29 185.537 129.523 185.667 129.762 185.785C130.051 185.94 130.349 186.077 130.613 186.204C130.877 186.332 131.15 186.432 131.422 186.523L131.857 186.66C132.009 186.722 132.165 186.771 132.325 186.805C132.482 186.857 132.641 186.899 132.802 186.933C132.916 186.969 133.033 186.996 133.151 187.015C133.356 187.061 133.577 187.106 133.79 187.133C133.838 187.142 133.887 187.142 133.935 187.133C134.19 187.182 134.446 187.218 134.701 187.243C139.079 187.735 144.171 186.414 149.622 183.052C165.862 173.032 179.028 148.627 179.028 128.577C178.986 128.158 178.986 127.684 178.986 127.21ZM159.288 113.027C159.925 115.519 160.238 118.095 160.216 120.679C160.216 138.37 148.114 160.761 133.815 169.634C131.725 170.963 129.468 171.966 127.113 172.613C126.479 170.116 126.167 167.539 126.185 164.952C126.185 147.261 138.286 124.869 152.585 115.996C154.668 114.672 156.916 113.672 159.262 113.027H159.288Z" fill="#11B5E4"/>
<path opacity="0.1" d="M128.373 185.057L116.646 177.824C111.358 174.517 108.087 167.484 108.087 157.5C108.087 148.554 110.71 138.752 115.045 129.752L127.121 137.186C122.778 146.186 120.163 155.988 120.163 164.933C120.163 174.735 123.28 181.668 128.373 185.057Z" fill="black"/>
<path opacity="0.4" d="M178.986 127.211C178.986 126.837 178.986 126.473 178.934 126.108C178.883 125.744 178.934 125.389 178.858 125.033C178.781 124.678 178.858 124.56 178.79 124.323C178.73 123.703 178.645 123.093 178.551 122.501C178.509 122.237 178.466 121.963 178.415 121.699C178.364 121.435 178.321 121.198 178.27 120.952C178.125 120.278 177.972 119.622 177.793 118.994C177.7 118.693 177.614 118.392 177.521 118.083C177.503 118.039 177.489 117.993 177.478 117.946C177.376 117.655 177.282 117.372 177.18 117.099C177.078 116.826 176.942 116.461 176.805 116.188C176.669 115.915 176.618 115.742 176.507 115.523C176.446 115.359 176.372 115.2 176.286 115.049C176.201 114.858 176.107 114.667 176.005 114.484C175.903 114.302 175.962 114.393 175.937 114.357C175.911 114.32 175.758 114.029 175.664 113.865C175.571 113.701 175.536 113.655 175.477 113.555C175.04 112.82 174.551 112.122 174.012 111.469L173.74 111.141L173.51 110.886C173.416 110.777 173.314 110.677 173.212 110.567C172.944 110.267 172.66 109.984 172.36 109.72C172.215 109.583 172.062 109.456 171.909 109.337L171.44 108.973C171.197 108.782 170.944 108.606 170.682 108.445C165.342 104.974 157.908 105.384 149.638 110.476C133.398 120.497 120.232 144.892 120.232 164.952C120.232 175.109 123.638 182.205 129.046 185.43C129.273 185.573 129.506 185.704 129.744 185.822C130.034 185.977 130.332 186.113 130.596 186.241C130.86 186.368 131.133 186.469 131.405 186.56L131.839 186.696C131.992 186.759 132.148 186.807 132.308 186.842C132.465 186.893 132.624 186.936 132.785 186.97C132.899 187.006 133.016 187.033 133.134 187.052C133.338 187.097 133.56 187.143 133.773 187.17C133.821 187.179 133.869 187.179 133.917 187.17C134.173 187.219 134.428 187.255 134.684 187.279C139.061 187.771 144.154 186.45 149.604 183.089C165.845 173.068 179.011 148.664 179.011 128.613C178.986 128.158 178.986 127.684 178.986 127.211ZM146.624 177.596C142.979 179.846 139.47 181.03 136.472 181.03C130.843 181.03 128.254 176.922 127.104 172.613C126.47 170.116 126.158 167.539 126.176 164.952C126.176 147.261 138.278 124.869 152.577 115.997C154.667 114.67 156.924 113.67 159.279 113.027C160.394 112.731 161.537 112.575 162.685 112.562C171.994 112.562 172.99 123.804 172.99 128.641C173.024 146.295 160.923 168.75 146.624 177.596Z" fill="white"/>
<path opacity="0.1" d="M173.024 128.641C173.024 146.331 160.931 168.723 146.624 177.596C142.979 179.846 139.47 181.03 136.472 181.03C130.843 181.03 128.254 176.922 127.104 172.613C129.459 171.966 131.716 170.963 133.807 169.634C148.131 160.788 160.207 138.37 160.207 120.679C160.229 118.094 159.917 115.519 159.279 113.027C160.394 112.731 161.537 112.575 162.685 112.562C172.019 112.589 173.024 123.803 173.024 128.641Z" fill="black"/>
<path opacity="0.7" d="M167.914 125.552C167.914 143.243 155.821 165.635 141.514 174.507C137.869 176.758 134.36 177.942 131.362 177.942C130.766 177.943 130.171 177.892 129.582 177.787C128.432 176.266 127.593 174.503 127.121 172.613C126.487 170.116 126.175 167.539 126.193 164.952C126.193 147.261 138.295 124.869 152.593 115.996C154.684 114.67 156.941 113.67 159.296 113.027C160.411 112.731 161.554 112.575 162.702 112.562C163.301 112.561 163.9 112.612 164.491 112.717C167.437 116.425 167.914 122.373 167.914 125.552Z" fill="white"/>
<path d="M188.499 107.124V127.293C188.499 128.805 189.495 129.415 190.713 128.659L314.284 52.348C314.928 51.8981 315.463 51.2927 315.848 50.5806C316.233 49.8685 316.455 49.0697 316.498 48.2486V28.0526C316.498 26.5404 315.502 25.9301 314.284 26.6862L190.713 102.997C190.066 103.451 189.529 104.06 189.144 104.777C188.759 105.494 188.538 106.298 188.499 107.124Z" fill="#E6E6E6"/>
<path d="M190.712 102.997L212.718 89.4147V115.049L190.712 128.632C189.494 129.388 188.498 128.777 188.498 127.265V107.124C188.538 106.298 188.759 105.494 189.144 104.777C189.528 104.06 190.066 103.45 190.712 102.997Z" fill="#BA68C8"/>
<path d="M205.437 100.602C204.049 99.7454 202.294 99.882 200.498 100.993C198.79 102.164 197.369 103.754 196.354 105.633C195.339 107.511 194.76 109.621 194.664 111.788C194.604 113.193 195.018 114.573 195.831 115.678L193.463 120.014C193.309 120.325 193.271 120.686 193.359 121.025C193.446 121.364 193.651 121.654 193.931 121.836C194.127 121.954 194.346 122.016 194.57 122.018C194.795 122.019 195.015 121.955 195.209 121.836C195.404 121.716 195.565 121.543 195.677 121.335L198.019 116.999C198.272 117.05 198.529 117.077 198.786 117.081C199.831 117.061 200.853 116.746 201.749 116.17C203.454 114.997 204.872 113.405 205.885 111.528C206.898 109.65 207.478 107.541 207.575 105.375C207.6 103.162 206.834 101.467 205.437 100.602ZM200.498 113.811C200.198 114.155 199.799 114.38 199.364 114.45C198.93 114.52 198.486 114.431 198.105 114.196C197.725 113.961 197.43 113.595 197.269 113.158C197.108 112.721 197.09 112.238 197.219 111.788C197.318 110.103 197.781 108.465 198.572 107.003C199.362 105.541 200.459 104.295 201.775 103.362C202.286 103.014 202.873 102.816 203.478 102.788C203.728 102.778 203.975 102.841 204.194 102.97C204.514 103.263 204.76 103.638 204.909 104.06C205.058 104.482 205.105 104.938 205.045 105.384C204.947 107.069 204.485 108.707 203.696 110.168C202.907 111.63 201.812 112.877 200.498 113.811Z" fill="white"/>
</svg>
