<svg width="40" height="40" viewBox="0 0 40 40" fill="none" xmlns="http://www.w3.org/2000/svg">
<rect width="40" height="40" rx="10" fill="url(#paint0_linear_503_412)"/>
<path opacity="0.4" d="M16.2182 20.6361C15.8495 20.6361 15.5511 20.939 15.5511 21.3131L15.3672 24.5836C15.3672 25.0604 15.7484 25.4464 16.2182 25.4464C16.688 25.4464 17.0683 25.0604 17.0683 24.5836L16.8853 21.3131C16.8853 20.939 16.5868 20.6361 16.2182 20.6361" fill="white"/>
<path d="M17.1291 14.0524C17.1291 14.0524 16.9377 13.8556 16.819 13.7699C16.6468 13.6376 16.4344 13.5714 16.2229 13.5714C15.9855 13.5714 15.7648 13.6461 15.5851 13.7869C15.5525 13.82 15.4137 13.9447 15.2992 14.0609C14.5803 14.7405 13.4041 16.5145 13.0447 17.4434C12.9878 17.5843 12.8649 17.9406 12.8574 18.1315C12.8574 18.313 12.8975 18.4878 12.9795 18.6532C13.094 18.8602 13.2737 19.0265 13.4861 19.1173C13.6332 19.1758 14.0737 19.2666 14.0821 19.2666C14.5644 19.3582 15.3485 19.4074 16.2146 19.4074C17.0397 19.4074 17.7912 19.3582 18.281 19.2836C18.2894 19.2751 18.8361 19.1843 19.0242 19.0842C19.3669 18.9018 19.5801 18.5455 19.5801 18.1646V18.1315C19.5718 17.8829 19.3586 17.3603 19.3511 17.3603C18.9916 16.4814 17.8723 14.749 17.1291 14.0524" fill="white"/>
<path opacity="0.4" d="M23.7826 19.364C24.1513 19.364 24.4497 19.0611 24.4497 18.687L24.6328 15.4164C24.6328 14.9396 24.2524 14.5536 23.7826 14.5536C23.3128 14.5536 22.9316 14.9396 22.9316 15.4164L23.1155 18.687C23.1155 19.0611 23.414 19.364 23.7826 19.364" fill="white"/>
<path d="M27.0215 21.3466C26.907 21.1396 26.7273 20.9742 26.515 20.8826C26.3678 20.824 25.9264 20.7332 25.9189 20.7332C25.4366 20.6416 24.6525 20.5924 23.7864 20.5924C22.9613 20.5924 22.2098 20.6416 21.72 20.7163C21.7116 20.7248 21.1649 20.8164 20.9768 20.9156C20.6332 21.0981 20.4209 21.4544 20.4209 21.8362V21.8693C20.4293 22.1178 20.6416 22.6396 20.6499 22.6396C21.0094 23.5185 22.1279 25.2518 22.8719 25.9475C22.8719 25.9475 23.0633 26.1444 23.182 26.2292C23.3534 26.3624 23.5657 26.4286 23.7789 26.4286C24.0155 26.4286 24.2353 26.3539 24.4159 26.2131C24.4485 26.18 24.5873 26.0553 24.7018 25.9399C25.4199 25.2595 26.5969 23.4855 26.9555 22.5573C27.0132 22.4165 27.1361 22.0593 27.1436 21.8693C27.1436 21.6868 27.1035 21.5121 27.0215 21.3466" fill="white"/>
<defs>
<linearGradient id="paint0_linear_503_412" x1="20" y1="0" x2="20" y2="40" gradientUnits="userSpaceOnUse">
<stop stop-color="#038B73"/>
<stop offset="1" stop-color="#006A57"/>
</linearGradient>
</defs>
</svg>
