<svg width="40" height="40" viewBox="0 0 40 40" fill="none" xmlns="http://www.w3.org/2000/svg">
<rect width="40" height="40" rx="10" fill="url(#paint0_linear_503_412)"/>
<path opacity="0.4" d="M16.2182 20.6362C15.8495 20.6362 15.5511 20.9391 15.5511 21.3132L15.3672 24.5838C15.3672 25.0606 15.7484 25.4466 16.2182 25.4466C16.688 25.4466 17.0683 25.0606 17.0683 24.5838L16.8853 21.3132C16.8853 20.9391 16.5868 20.6362 16.2182 20.6362" fill="white"/>
<path d="M17.1291 14.0528C17.1291 14.0528 16.9377 13.856 16.819 13.7703C16.6468 13.638 16.4344 13.5718 16.2229 13.5718C15.9855 13.5718 15.7648 13.6464 15.5851 13.7873C15.5525 13.8204 15.4137 13.9451 15.2992 14.0613C14.5803 14.7409 13.4041 16.5148 13.0447 17.4438C12.9878 17.5846 12.8649 17.941 12.8574 18.1318C12.8574 18.3134 12.8975 18.4882 12.9795 18.6536C13.094 18.8606 13.2737 19.0269 13.4861 19.1177C13.6332 19.1762 14.0737 19.267 14.0821 19.267C14.5644 19.3586 15.3485 19.4078 16.2146 19.4078C17.0397 19.4078 17.7912 19.3586 18.281 19.2839C18.2894 19.2755 18.8361 19.1847 19.0242 19.0846C19.3669 18.9022 19.5801 18.5459 19.5801 18.1649V18.1318C19.5718 17.8833 19.3586 17.3607 19.3511 17.3607C18.9916 16.4817 17.8723 14.7493 17.1291 14.0528" fill="white"/>
<path opacity="0.4" d="M23.7826 19.3642C24.1513 19.3642 24.4497 19.0613 24.4497 18.6871L24.6328 15.4165C24.6328 14.9397 24.2524 14.5537 23.7826 14.5537C23.3128 14.5537 22.9316 14.9397 22.9316 15.4165L23.1155 18.6871C23.1155 19.0613 23.414 19.3642 23.7826 19.3642" fill="white"/>
<path d="M27.0215 21.347C26.907 21.14 26.7273 20.9746 26.515 20.8829C26.3678 20.8244 25.9264 20.7336 25.9189 20.7336C25.4366 20.642 24.6525 20.5928 23.7864 20.5928C22.9613 20.5928 22.2098 20.642 21.72 20.7166C21.7116 20.7251 21.1649 20.8168 20.9768 20.916C20.6332 21.0984 20.4209 21.4548 20.4209 21.8365V21.8696C20.4293 22.1182 20.6416 22.64 20.6499 22.64C21.0094 23.5189 22.1279 25.2522 22.8719 25.9479C22.8719 25.9479 23.0633 26.1447 23.182 26.2296C23.3534 26.3628 23.5657 26.4289 23.7789 26.4289C24.0155 26.4289 24.2353 26.3543 24.4159 26.2134C24.4485 26.1804 24.5873 26.0556 24.7018 25.9403C25.4199 25.2598 26.5969 23.4858 26.9555 22.5577C27.0132 22.4168 27.1361 22.0597 27.1436 21.8696C27.1436 21.6872 27.1035 21.5124 27.0215 21.347" fill="white"/>
<defs>
<linearGradient id="paint0_linear_503_412" x1="20" y1="0" x2="20" y2="40" gradientUnits="userSpaceOnUse">
<stop stop-color="#1E55B3"/>
<stop offset="1" stop-color="#002565"/>
</linearGradient>
</defs>
</svg>
