<svg width="40" height="40" viewBox="0 0 40 40" fill="none" xmlns="http://www.w3.org/2000/svg">
<rect width="40" height="40" rx="10" fill="url(#paint0_linear_503_394)"/>
<path opacity="0.4" fill-rule="evenodd" clip-rule="evenodd" d="M15.6504 26.1347C15.6504 25.5347 16.1361 25.049 16.7361 25.049C17.329 25.049 17.8147 25.5347 17.8147 26.1347C17.8147 26.7275 17.329 27.2132 16.7361 27.2132C16.1361 27.2132 15.6504 26.7275 15.6504 26.1347ZM23.6861 26.1347C23.6861 25.5347 24.1718 25.049 24.7718 25.049C25.3647 25.049 25.8504 25.5347 25.8504 26.1347C25.8504 26.7275 25.3647 27.2132 24.7718 27.2132C24.1718 27.2132 23.6861 26.7275 23.6861 26.1347Z" fill="white"/>
<path fill-rule="evenodd" clip-rule="evenodd" d="M25.8508 15.9636C26.2865 15.9636 26.5722 16.1136 26.858 16.4422C27.1437 16.7708 27.1937 17.2422 27.1294 17.6701L26.4508 22.3558C26.3222 23.2565 25.5508 23.9201 24.6437 23.9201H16.8508C15.9008 23.9201 15.1151 23.1915 15.0365 22.2493L14.3794 14.4629L13.3008 14.2772C13.0151 14.2272 12.8151 13.9486 12.8651 13.6629C12.9151 13.3701 13.1937 13.1772 13.4865 13.2201L15.1901 13.4772C15.433 13.5208 15.6115 13.7201 15.633 13.9629L15.7687 15.5629C15.7901 15.7922 15.9758 15.9636 16.2044 15.9636H25.8508ZM21.5222 19.6772H23.5008C23.8008 19.6772 24.0365 19.4343 24.0365 19.1415C24.0365 18.8415 23.8008 18.6058 23.5008 18.6058H21.5222C21.2222 18.6058 20.9865 18.8415 20.9865 19.1415C20.9865 19.4343 21.2222 19.6772 21.5222 19.6772Z" fill="white"/>
<defs>
<linearGradient id="paint0_linear_503_394" x1="20" y1="0" x2="20" y2="40" gradientUnits="userSpaceOnUse">
<stop stop-color="#038B73"/>
<stop offset="1" stop-color="#006A57"/>
</linearGradient>
</defs>
</svg>
