<svg width="40" height="40" viewBox="0 0 40 40" fill="none" xmlns="http://www.w3.org/2000/svg">
<rect width="40" height="40" rx="10" fill="url(#paint0_linear_503_394)"/>
<path opacity="0.4" fill-rule="evenodd" clip-rule="evenodd" d="M15.6504 26.135C15.6504 25.535 16.1361 25.0493 16.7361 25.0493C17.329 25.0493 17.8147 25.535 17.8147 26.135C17.8147 26.7279 17.329 27.2136 16.7361 27.2136C16.1361 27.2136 15.6504 26.7279 15.6504 26.135ZM23.6861 26.135C23.6861 25.535 24.1718 25.0493 24.7718 25.0493C25.3647 25.0493 25.8504 25.535 25.8504 26.135C25.8504 26.7279 25.3647 27.2136 24.7718 27.2136C24.1718 27.2136 23.6861 26.7279 23.6861 26.135Z" fill="white"/>
<path fill-rule="evenodd" clip-rule="evenodd" d="M25.8508 15.9639C26.2865 15.9639 26.5722 16.1139 26.858 16.4424C27.1437 16.771 27.1937 17.2424 27.1294 17.6703L26.4508 22.356C26.3222 23.2567 25.5508 23.9203 24.6437 23.9203H16.8508C15.9008 23.9203 15.1151 23.1917 15.0365 22.2496L14.3794 14.4632L13.3008 14.2774C13.0151 14.2274 12.8151 13.9489 12.8651 13.6632C12.9151 13.3703 13.1937 13.1774 13.4865 13.2203L15.1901 13.4774C15.433 13.521 15.6115 13.7203 15.633 13.9632L15.7687 15.5632C15.7901 15.7924 15.9758 15.9639 16.2044 15.9639H25.8508ZM21.5222 19.6774H23.5008C23.8008 19.6774 24.0365 19.4346 24.0365 19.1417C24.0365 18.8417 23.8008 18.606 23.5008 18.606H21.5222C21.2222 18.606 20.9865 18.8417 20.9865 19.1417C20.9865 19.4346 21.2222 19.6774 21.5222 19.6774Z" fill="white"/>
<defs>
<linearGradient id="paint0_linear_503_394" x1="20" y1="0" x2="20" y2="40" gradientUnits="userSpaceOnUse">
<stop stop-color="#1E55B3"/>
<stop offset="1" stop-color="#002565"/>
</linearGradient>
</defs>
</svg>
