<svg width="40" height="40" viewBox="0 0 40 40" fill="none" xmlns="http://www.w3.org/2000/svg">
<rect width="40" height="40" rx="10" fill="url(#paint0_linear_503_387)"/>
<path opacity="0.4" d="M12.8574 19.3418C12.8931 21.0118 12.9931 23.8682 13.0074 24.1832C13.0581 24.8568 13.316 25.5375 13.7174 26.0175C14.276 26.6911 14.9639 26.9918 15.9231 26.9918C17.2489 26.9989 18.7103 26.9989 20.1296 26.9989C21.5546 26.9989 22.9374 26.9989 24.1053 26.9918C25.051 26.9918 25.7603 26.6832 26.3117 26.0175C26.7131 25.5375 26.971 24.8497 27.0074 24.1832C27.0217 23.9182 27.0931 20.8175 27.136 19.3418H12.8574Z" fill="white"/>
<path d="M19.4609 22.4173V23.3416C19.4609 23.6373 19.7009 23.8773 19.9967 23.8773C20.2924 23.8773 20.5324 23.6373 20.5324 23.3416V22.4173C20.5324 22.1216 20.2924 21.8816 19.9967 21.8816C19.7009 21.8816 19.4609 22.1216 19.4609 22.4173" fill="white"/>
<path fill-rule="evenodd" clip-rule="evenodd" d="M18.7224 21.826C18.651 22.0853 18.4017 22.251 18.1317 22.2153C16.3096 21.961 14.5681 21.3146 13.0981 20.3439C12.9474 20.2453 12.8574 20.0767 12.8574 19.8967V17.421C12.8574 15.921 14.0803 14.701 15.5839 14.701H16.9889C17.1231 13.6639 18.0017 12.8574 19.0746 12.8574H20.9189C21.991 12.8574 22.8703 13.6639 23.0046 14.701H24.4167C25.916 14.701 27.136 15.921 27.136 17.421V19.8967C27.136 20.0767 27.0453 20.2446 26.896 20.3439C25.4231 21.3189 23.6746 21.9681 21.8403 22.2217C21.8153 22.2253 21.791 22.2267 21.7667 22.2267C21.5246 22.2267 21.3081 22.0631 21.2474 21.8231C21.1031 21.2546 20.5867 20.8567 19.9931 20.8567C19.3917 20.8567 18.881 21.246 18.7224 21.826ZM20.9188 13.9289H19.0746C18.5939 13.9289 18.1924 14.2574 18.0724 14.701H21.9203C21.8003 14.2574 21.3989 13.9289 20.9188 13.9289Z" fill="white"/>
<defs>
<linearGradient id="paint0_linear_503_387" x1="20" y1="0" x2="20" y2="40" gradientUnits="userSpaceOnUse">
<stop stop-color="#038B73"/>
<stop offset="1" stop-color="#006A57"/>
</linearGradient>
</defs>
</svg>
