<svg width="40" height="40" viewBox="0 0 40 40" fill="none" xmlns="http://www.w3.org/2000/svg">
<rect width="40" height="40" rx="10" fill="url(#paint0_linear_503_418)"/>
<path opacity="0.4" d="M23.34 12.8574H16.6669C14.2352 12.8574 12.8574 14.2352 12.8574 16.6669V23.3336C12.8574 25.7654 14.2352 27.1431 16.6669 27.1431H23.34C25.7717 27.1431 27.1431 25.7654 27.1431 23.3336V16.6669C27.1431 14.2352 25.7717 12.8574 23.34 12.8574" fill="white"/>
<path d="M16.692 18.1211C16.3682 18.1211 16.1016 18.3878 16.1016 18.7179V23.6259C16.1016 23.9497 16.3682 24.2163 16.692 24.2163C17.0222 24.2163 17.2889 23.9497 17.2889 23.6259V18.7179C17.2889 18.3878 17.0222 18.1211 16.692 18.1211" fill="white"/>
<path d="M20.026 15.7783C19.7022 15.7783 19.4355 16.045 19.4355 16.3751V23.6259C19.4355 23.9497 19.7022 24.2164 20.026 24.2164C20.3562 24.2164 20.6228 23.9497 20.6228 23.6259V16.3751C20.6228 16.045 20.3562 15.7783 20.026 15.7783" fill="white"/>
<path d="M23.3146 20.7114C22.9844 20.7114 22.7178 20.9781 22.7178 21.3083V23.6257C22.7178 23.9495 22.9844 24.2162 23.3082 24.2162C23.6384 24.2162 23.9051 23.9495 23.9051 23.6257V21.3083C23.9051 20.9781 23.6384 20.7114 23.3146 20.7114" fill="white"/>
<defs>
<linearGradient id="paint0_linear_503_418" x1="20" y1="0" x2="20" y2="40" gradientUnits="userSpaceOnUse">
<stop stop-color="#1E55B3"/>
<stop offset="1" stop-color="#002565"/>
</linearGradient>
</defs>
</svg>
