<svg width="40" height="40" viewBox="0 0 40 40" fill="none" xmlns="http://www.w3.org/2000/svg">
<rect width="40" height="40" rx="10" fill="url(#paint0_linear_503_418)"/>
<path opacity="0.4" d="M23.34 12.8572H16.6669C14.2352 12.8572 12.8574 14.235 12.8574 16.6667V23.3334C12.8574 25.7651 14.2352 27.1429 16.6669 27.1429H23.34C25.7717 27.1429 27.1431 25.7651 27.1431 23.3334V16.6667C27.1431 14.235 25.7717 12.8572 23.34 12.8572" fill="white"/>
<path d="M16.692 18.1207C16.3682 18.1207 16.1016 18.3874 16.1016 18.7176V23.6255C16.1016 23.9493 16.3682 24.216 16.692 24.216C17.0222 24.216 17.2889 23.9493 17.2889 23.6255V18.7176C17.2889 18.3874 17.0222 18.1207 16.692 18.1207" fill="white"/>
<path d="M20.026 15.7778C19.7022 15.7778 19.4355 16.0445 19.4355 16.3747V23.6255C19.4355 23.9493 19.7022 24.2159 20.026 24.2159C20.3562 24.2159 20.6228 23.9493 20.6228 23.6255V16.3747C20.6228 16.0445 20.3562 15.7778 20.026 15.7778" fill="white"/>
<path d="M23.3146 20.7112C22.9844 20.7112 22.7178 20.9778 22.7178 21.308V23.6255C22.7178 23.9493 22.9844 24.2159 23.3082 24.2159C23.6384 24.2159 23.9051 23.9493 23.9051 23.6255V21.308C23.9051 20.9778 23.6384 20.7112 23.3146 20.7112" fill="white"/>
<defs>
<linearGradient id="paint0_linear_503_418" x1="20" y1="0" x2="20" y2="40" gradientUnits="userSpaceOnUse">
<stop stop-color="#038B73"/>
<stop offset="1" stop-color="#006A57"/>
</linearGradient>
</defs>
</svg>
