<svg width="40" height="40" viewBox="0 0 40 40" fill="none" xmlns="http://www.w3.org/2000/svg">
<rect width="40" height="40" rx="10" fill="url(#paint0_linear_503_406)"/>
<path fill-rule="evenodd" clip-rule="evenodd" d="M22.3166 14.813C22.3166 16.3994 23.6045 17.6854 25.1932 17.6854C25.3682 17.6846 25.5427 17.6678 25.7146 17.6353V23.33C25.7146 25.7259 24.3013 27.1433 21.902 27.1433H16.6763C14.2706 27.1433 12.8574 25.7259 12.8574 23.33V18.1119C12.8574 15.7161 14.2706 14.2861 16.6763 14.2861H22.3668C22.333 14.4597 22.3162 14.6361 22.3166 14.813ZM20.8217 22.0694L22.863 19.4353V19.4227C23.0378 19.1879 22.9932 18.8568 22.7625 18.6764C22.6509 18.5902 22.509 18.5529 22.3693 18.573C22.2296 18.5931 22.1041 18.6688 22.0214 18.783L20.3004 20.9969L18.3407 19.4541C18.2288 19.3669 18.0865 19.3284 17.9459 19.3473C17.8052 19.3662 17.6781 19.4408 17.5933 19.5544L15.4829 22.2764C15.4087 22.3688 15.3688 22.484 15.3698 22.6025C15.3576 22.8419 15.5088 23.0594 15.7377 23.1317C15.9666 23.204 16.2155 23.1128 16.3434 22.9098L18.1083 20.6269L20.068 22.1635C20.1794 22.2533 20.3227 22.2941 20.4648 22.2763C20.607 22.2586 20.7358 22.1839 20.8217 22.0694Z" fill="white"/>
<ellipse opacity="0.4" cx="25.357" cy="14.6431" rx="1.78571" ry="1.78571" fill="white"/>
<defs>
<linearGradient id="paint0_linear_503_406" x1="20" y1="0" x2="20" y2="40" gradientUnits="userSpaceOnUse">
<stop stop-color="#1E55B3"/>
<stop offset="1" stop-color="#002565"/>
</linearGradient>
</defs>
</svg>
