<svg width="40" height="40" viewBox="0 0 40 40" fill="none" xmlns="http://www.w3.org/2000/svg">
<rect width="40" height="40" rx="10" fill="url(#paint0_linear_503_406)"/>
<path fill-rule="evenodd" clip-rule="evenodd" d="M22.3166 14.8126C22.3166 16.399 23.6045 17.6851 25.1932 17.6851C25.3682 17.6842 25.5427 17.6674 25.7146 17.6349V23.3297C25.7146 25.7255 24.3013 27.1429 21.902 27.1429H16.6763C14.2706 27.1429 12.8574 25.7255 12.8574 23.3297V18.1116C12.8574 15.7157 14.2706 14.2858 16.6763 14.2858H22.3668C22.333 14.4593 22.3162 14.6358 22.3166 14.8126ZM20.8217 22.069L22.863 19.4349V19.4224C23.0378 19.1875 22.9932 18.8564 22.7625 18.676C22.6509 18.5898 22.509 18.5525 22.3693 18.5726C22.2296 18.5927 22.1041 18.6685 22.0214 18.7826L20.3004 20.9966L18.3407 19.4537C18.2288 19.3665 18.0865 19.3281 17.9459 19.3469C17.8052 19.3658 17.6781 19.4405 17.5933 19.5541L15.4829 22.276C15.4087 22.3685 15.3688 22.4837 15.3698 22.6021C15.3576 22.8416 15.5088 23.0591 15.7377 23.1313C15.9666 23.2036 16.2155 23.1124 16.3434 22.9095L18.1083 20.6265L20.068 22.1631C20.1794 22.253 20.3227 22.2937 20.4648 22.276C20.607 22.2582 20.7358 22.1835 20.8217 22.069Z" fill="white"/>
<ellipse opacity="0.4" cx="25.357" cy="14.6429" rx="1.78571" ry="1.78571" fill="white"/>
<defs>
<linearGradient id="paint0_linear_503_406" x1="20" y1="0" x2="20" y2="40" gradientUnits="userSpaceOnUse">
<stop stop-color="#038B73"/>
<stop offset="1" stop-color="#006A57"/>
</linearGradient>
</defs>
</svg>
