<svg width="433" height="242" viewBox="0 0 433 242" fill="none" xmlns="http://www.w3.org/2000/svg">
<path d="M36.6182 69.6762H45.5878L28.278 124.753H18.0495L0.818359 69.6762H9.7093L23.1637 113.738L36.6182 69.6762ZM49.2071 78.7245V69.6762H57.7047V78.7245H49.2071ZM49.2071 124.753V85.7271H57.7047V124.753H49.2071ZM76.8241 125.54C73.8343 125.54 71.563 124.658 70.0104 122.896C68.4682 121.144 67.6971 118.721 67.6971 115.626V92.8084H62.8976L63.6844 85.7271H67.6971V76.7575L76.1947 75.8133V85.7271H83.5907V92.8084H76.1947V113.108C76.1947 114.944 76.5619 116.282 77.2962 117.121C78.0306 117.96 79.237 118.38 80.9155 118.38H83.5907L82.8039 125.54H76.8241ZM96.7933 125.54C93.8559 125.54 91.3906 124.543 89.3973 122.55C87.4041 120.557 86.4075 117.881 86.4075 114.524C86.4075 111.01 87.4723 108.177 89.6019 106.027C91.721 103.876 94.2231 102.355 97.1081 101.463C99.993 100.572 102.747 100.073 105.37 99.9684C105.37 97.3457 104.924 95.4678 104.032 94.3348C103.14 93.2123 101.619 92.6511 99.4685 92.6511C97.8949 92.6511 96.3737 92.9133 94.905 93.4379C93.4363 93.9624 91.8102 94.7492 90.0268 95.7983L89.3187 88.6383C93.2527 86.2255 97.3441 85.019 101.593 85.019C109.881 85.019 114.024 89.9235 114.024 99.7323V111.456C114.024 113.449 114.103 114.918 114.261 115.862C114.418 116.806 114.696 117.462 115.095 117.829C115.483 118.196 116.096 118.38 116.936 118.38H118.037L117.329 125.54H114.103C112.32 125.54 110.788 125.104 109.508 124.234C108.218 123.373 107.232 122.156 106.55 120.583C105.186 122.209 103.717 123.442 102.144 124.281C100.57 125.12 98.7866 125.54 96.7933 125.54ZM99.5472 118.694C101.75 118.694 103.717 117.462 105.448 114.996V105.948C98.7341 106.63 95.3771 109.227 95.3771 113.738C95.3771 117.042 96.7671 118.694 99.5472 118.694ZM160.997 85.019C165.298 85.019 168.524 86.3933 170.675 89.1419C172.825 91.901 173.901 95.6672 173.901 100.44V124.753H165.324V101.542C165.324 98.3948 164.852 96.0448 163.908 94.4922C162.964 92.95 161.417 92.179 159.266 92.179C157.115 92.179 155.463 92.8871 154.309 94.3034C153.155 95.7196 152.578 97.7653 152.578 100.44V124.753H144.002V101.542C144.002 95.3 142.035 92.179 138.101 92.179C135.268 92.179 132.96 93.569 131.177 96.3491V124.753H122.679V85.7271H129.839L130.311 89.4251C132.672 86.4877 135.924 85.019 140.068 85.019C142.271 85.019 144.212 85.5016 145.89 86.4667C147.569 87.4424 148.906 88.8219 149.903 90.6054C151.057 88.8219 152.594 87.4424 154.514 86.4667C156.423 85.5016 158.584 85.019 160.997 85.019ZM189.086 125.54C186.149 125.54 183.683 124.543 181.69 122.55C179.697 120.557 178.7 117.881 178.7 114.524C178.7 111.01 179.76 108.177 181.879 106.027C184.009 103.876 186.516 102.355 189.401 101.463C192.286 100.572 195.04 100.073 197.662 99.9684C197.662 97.3457 197.216 95.4678 196.325 94.3348C195.433 93.2123 193.912 92.6511 191.761 92.6511C190.188 92.6511 188.666 92.9133 187.198 93.4379C185.729 93.9624 184.103 94.7492 182.319 95.7983L181.611 88.6383C185.545 86.2255 189.637 85.019 193.886 85.019C202.173 85.019 206.317 89.9235 206.317 99.7323V111.456C206.317 113.449 206.396 114.918 206.553 115.862C206.711 116.806 206.983 117.462 207.371 117.829C207.77 118.196 208.389 118.38 209.228 118.38H210.33L209.622 125.54H206.396C204.612 125.54 203.076 125.104 201.785 124.234C200.505 123.373 199.524 122.156 198.842 120.583C197.479 122.209 196.01 123.442 194.436 124.281C192.863 125.12 191.079 125.54 189.086 125.54ZM191.84 118.694C194.043 118.694 196.01 117.462 197.741 114.996V105.948C191.027 106.63 187.67 109.227 187.67 113.738C187.67 117.042 189.06 118.694 191.84 118.694ZM211.51 124.753L222.683 105.24L211.51 85.7271H221.188L227.718 98.6308L233.934 85.7271H243.533L232.282 105.004L243.533 124.753H233.855L227.246 111.849L221.188 124.753H211.51ZM248.474 124.753V69.6762H263.817C269.587 69.6762 274.114 71.2079 277.398 74.2712C280.671 77.345 282.307 81.8455 282.307 87.7728C282.307 93.7001 280.655 98.2112 277.35 101.306C274.046 104.401 269.535 105.948 263.817 105.948H257.208V124.753H248.474ZM257.208 98.2374H263.03C266.387 98.2374 268.931 97.3824 270.662 95.6724C272.393 93.9729 273.259 91.3397 273.259 87.7728C273.259 84.3109 272.393 81.7144 270.662 79.9834C268.931 78.2525 266.387 77.387 263.03 77.387H257.208V98.2374ZM304.967 85.019C308.901 85.019 311.917 86.409 314.016 89.1891C316.114 91.9692 317.163 95.7196 317.163 100.44V124.753H308.665V101.542C308.665 95.3 306.672 92.179 302.686 92.179C299.853 92.179 297.545 93.569 295.762 96.3491V124.753H287.264V65.7422H295.762V88.481C298.175 86.173 301.243 85.019 304.967 85.019ZM332.427 125.54C329.49 125.54 327.024 124.543 325.031 122.55C323.038 120.557 322.041 117.881 322.041 114.524C322.041 111.01 323.101 108.177 325.22 106.027C327.349 103.876 329.857 102.355 332.742 101.463C335.627 100.572 338.38 100.073 341.003 99.9684C341.003 97.3457 340.557 95.4678 339.666 94.3348C338.774 93.2123 337.253 92.6511 335.102 92.6511C333.528 92.6511 332.007 92.9133 330.539 93.4379C329.07 93.9624 327.444 94.7492 325.66 95.7983L324.952 88.6383C328.886 86.2255 332.978 85.019 337.226 85.019C345.514 85.019 349.658 89.9235 349.658 99.7323V111.456C349.658 113.449 349.737 114.918 349.894 115.862C350.051 116.806 350.324 117.462 350.712 117.829C351.111 118.196 351.73 118.38 352.569 118.38H353.671L352.963 125.54H349.737C347.953 125.54 346.416 125.104 345.126 124.234C343.846 123.373 342.865 122.156 342.183 120.583C340.82 122.209 339.351 123.442 337.777 124.281C336.204 125.12 334.42 125.54 332.427 125.54ZM335.181 118.694C337.384 118.694 339.351 117.462 341.082 114.996V105.948C334.368 106.63 331.011 109.227 331.011 113.738C331.011 117.042 332.401 118.694 335.181 118.694ZM358.234 124.753V85.7271H365.552L366.26 90.684C367.833 88.7432 369.313 87.3113 370.697 86.3881C372.093 85.4754 373.656 85.019 375.387 85.019C376.069 85.019 376.698 85.0977 377.275 85.2551L376.567 94.146C375.937 93.9362 375.124 93.8313 374.128 93.8313C371.505 93.8313 369.066 95.1426 366.81 97.7653V124.753H358.234ZM419.432 85.019C423.734 85.019 426.959 86.3933 429.11 89.1419C431.261 91.901 432.336 95.6672 432.336 100.44V124.753H423.76V101.542C423.76 98.3948 423.288 96.0448 422.343 94.4922C421.399 92.95 419.852 92.179 417.701 92.179C415.551 92.179 413.898 92.8871 412.744 94.3034C411.59 95.7196 411.013 97.7653 411.013 100.44V124.753H402.437V101.542C402.437 95.3 400.47 92.179 396.536 92.179C393.704 92.179 391.396 93.569 389.612 96.3491V124.753H381.115V85.7271H388.275L388.747 89.4251C391.107 86.4877 394.359 85.019 398.503 85.019C400.706 85.019 402.647 85.5016 404.326 86.4667C406.004 87.4424 407.342 88.8219 408.338 90.6054C409.492 88.8219 411.029 87.4424 412.949 86.4667C414.858 85.5016 417.019 85.019 419.432 85.019Z" fill="white"/>
<path d="M0.794922 175.934V142.075H5.87375V155.812H20.0945V142.075H25.1733V175.934H20.0945V160.794H5.87375V175.934H0.794922ZM49.4162 176.417C46.9977 176.417 44.9436 175.859 43.2539 174.744C41.5577 173.634 40.284 172.128 39.4327 170.226C38.5749 168.323 38.1461 166.211 38.1461 163.89C38.1461 161.6 38.5427 159.52 39.336 157.65C40.1228 155.78 41.2836 154.303 42.8186 153.219C44.3471 152.142 46.1754 151.604 48.3037 151.604C50.9802 151.604 53.1342 152.523 54.7659 154.361C56.3911 156.199 57.2038 158.714 57.2038 161.906C57.2038 162.616 57.1231 163.486 56.9619 164.518H43.1765C43.3055 167.034 43.9827 168.936 45.208 170.226C46.4334 171.516 47.9812 172.161 49.8515 172.161C50.9157 172.161 51.9895 172.022 53.073 171.745C54.15 171.474 55.1239 171.08 55.9945 170.565L56.2847 174.918C54.4467 175.917 52.1572 176.417 49.4162 176.417ZM43.3216 161.084H52.2217C52.2217 159.504 51.8928 158.23 51.2349 157.263C50.5706 156.295 49.5452 155.812 48.1586 155.812C46.8687 155.812 45.8046 156.254 44.9662 157.137C44.1278 158.027 43.5796 159.343 43.3216 161.084ZM74.6265 176.417C72.8207 176.417 71.3213 175.795 70.1282 174.55C68.935 173.312 68.3385 171.661 68.3385 169.597C68.3385 167.469 68.9834 165.76 70.2733 164.47C71.5631 163.18 73.1045 162.261 74.8974 161.713C76.6839 161.165 78.4155 160.874 80.0923 160.842C80.0923 159.069 79.8118 157.817 79.2507 157.089C78.6832 156.366 77.7222 156.005 76.3679 156.005C74.4976 156.005 72.5789 156.682 70.6119 158.037L70.1282 153.925C72.3532 152.378 74.8039 151.604 77.4804 151.604C79.9956 151.604 81.8917 152.329 83.1686 153.78C84.4392 155.231 85.0744 157.553 85.0744 160.745V167.807C85.0744 169.581 85.197 170.774 85.442 171.387C85.6807 172 86.1869 172.306 86.9608 172.306H87.5896L87.1543 176.417H85.5097C83.188 176.417 81.6079 175.353 80.7695 173.225C79.0604 175.353 77.0128 176.417 74.6265 176.417ZM76.2227 172.451C76.9322 172.451 77.6255 172.225 78.3026 171.774C78.9798 171.322 79.5925 170.694 80.1407 169.887V164.276C75.7229 164.599 73.514 166.244 73.514 169.21C73.514 171.371 74.4169 172.451 76.2227 172.451ZM105.061 176.417C103.287 176.417 101.959 175.859 101.075 174.744C100.185 173.634 99.7401 172.193 99.7401 170.419V139.656H104.674V168.146C104.674 169.339 104.738 170.216 104.867 170.777C104.996 171.345 105.248 171.742 105.622 171.967C105.99 172.193 106.56 172.306 107.334 172.306L106.85 176.417H105.061ZM126.498 176.417C124.692 176.417 123.316 175.876 122.368 174.792C121.413 173.715 120.936 172.274 120.936 170.468V156.054H117.937L118.372 152.039H120.936V146.38L125.869 145.896V152.039H130.561V156.054H125.869V168.872C125.869 170.097 126.111 170.974 126.595 171.503C127.079 172.038 127.869 172.306 128.965 172.306H130.561L130.126 176.417H126.498ZM153.837 151.604C156.288 151.604 158.158 152.49 159.448 154.264C160.738 156.037 161.383 158.424 161.383 161.423V175.934H156.449V162.051C156.449 159.955 156.136 158.391 155.51 157.36C154.878 156.328 153.901 155.812 152.579 155.812C150.677 155.812 149.161 156.747 148.033 158.617V175.934H143.099V139.656H148.033V153.974C149.516 152.394 151.451 151.604 153.837 151.604ZM202.613 176.611C200.968 176.611 199.285 176.427 197.563 176.059C195.835 175.685 194.39 175.208 193.229 174.628L193.858 169.017C196.921 170.823 199.985 171.725 203.048 171.725C204.854 171.725 206.266 171.361 207.285 170.632C208.298 169.91 208.804 168.855 208.804 167.469C208.804 165.986 208.282 164.776 207.237 163.841C206.186 162.906 204.338 161.858 201.694 160.697C199.662 159.794 198.034 158.924 196.809 158.085C195.583 157.247 194.632 156.231 193.955 155.038C193.278 153.845 192.939 152.394 192.939 150.685C192.939 148.847 193.407 147.225 194.342 145.819C195.277 144.419 196.593 143.332 198.289 142.558C199.978 141.785 201.952 141.398 204.209 141.398C207.273 141.398 210.126 142.026 212.771 143.284L212.239 148.653C209.369 147.073 206.563 146.283 203.822 146.283C202.113 146.283 200.791 146.621 199.856 147.299C198.921 147.976 198.453 149.024 198.453 150.443C198.453 151.442 198.727 152.281 199.275 152.958C199.824 153.635 200.549 154.222 201.452 154.719C202.355 155.222 203.806 155.941 205.805 156.876C208.74 158.262 210.884 159.72 212.239 161.249C213.593 162.783 214.27 164.728 214.27 167.082C214.27 170.016 213.238 172.338 211.174 174.047C209.111 175.756 206.257 176.611 202.613 176.611ZM236.191 176.417C234.063 176.417 232.209 175.859 230.629 174.744C229.049 173.634 227.839 172.135 227.001 170.245C226.163 168.362 225.743 166.276 225.743 163.986C225.743 161.697 226.163 159.61 227.001 157.727C227.839 155.838 229.042 154.345 230.609 153.248C232.17 152.152 234.031 151.604 236.191 151.604C238.352 151.604 240.222 152.152 241.802 153.248C243.382 154.345 244.591 155.838 245.43 157.727C246.268 159.61 246.688 161.697 246.688 163.986C246.688 166.276 246.268 168.362 245.43 170.245C244.591 172.135 243.382 173.634 241.802 174.744C240.222 175.859 238.352 176.417 236.191 176.417ZM236.191 172.257C237.933 172.257 239.28 171.516 240.235 170.032C241.183 168.549 241.657 166.534 241.657 163.986C241.657 161.439 241.173 159.433 240.206 157.969C239.239 156.499 237.9 155.763 236.191 155.763C234.482 155.763 233.154 156.499 232.206 157.969C231.251 159.433 230.774 161.439 230.774 163.986C230.774 166.534 231.251 168.549 232.206 170.032C233.154 171.516 234.482 172.257 236.191 172.257ZM264.739 176.417C262.966 176.417 261.637 175.859 260.753 174.744C259.863 173.634 259.418 172.193 259.418 170.419V139.656H264.352V168.146C264.352 169.339 264.417 170.216 264.546 170.777C264.675 171.345 264.926 171.742 265.3 171.967C265.668 172.193 266.239 172.306 267.012 172.306L266.529 176.417H264.739ZM292.126 152.039H297.06V175.934H292.803L292.561 173.515C291.078 175.418 289.047 176.369 286.467 176.369C283.984 176.369 282.13 175.553 280.904 173.921C279.679 172.296 279.066 170.016 279.066 167.082V152.039H284V166.453C284 168.323 284.29 169.742 284.871 170.71C285.451 171.677 286.402 172.161 287.724 172.161C289.498 172.161 290.965 171.242 292.126 169.404V152.039ZM318.159 176.417C316.353 176.417 314.976 175.876 314.028 174.792C313.073 173.715 312.596 172.274 312.596 170.468V156.054H309.597L310.033 152.039H312.596V146.38L317.53 145.896V152.039H322.222V156.054H317.53V168.872C317.53 170.097 317.772 170.974 318.255 171.503C318.739 172.038 319.529 172.306 320.626 172.306H322.222L321.786 176.417H318.159ZM334.808 147.395V142.075H339.741V147.395H334.808ZM334.808 175.934V152.039H339.741V175.934H334.808ZM362.978 176.417C360.85 176.417 358.996 175.859 357.416 174.744C355.836 173.634 354.626 172.135 353.788 170.245C352.949 168.362 352.53 166.276 352.53 163.986C352.53 161.697 352.949 159.61 353.788 157.727C354.626 155.838 355.826 154.345 357.387 153.248C358.954 152.152 360.818 151.604 362.978 151.604C365.139 151.604 367.009 152.152 368.589 153.248C370.169 154.345 371.378 155.838 372.217 157.727C373.055 159.61 373.474 161.697 373.474 163.986C373.474 166.276 373.055 168.362 372.217 170.245C371.378 172.135 370.169 173.634 368.589 174.744C367.009 175.859 365.139 176.417 362.978 176.417ZM362.978 172.257C364.719 172.257 366.064 171.516 367.012 170.032C367.967 168.549 368.444 166.534 368.444 163.986C368.444 161.439 367.96 159.433 366.993 157.969C366.025 156.499 364.687 155.763 362.978 155.763C361.269 155.763 359.937 156.499 358.983 157.969C358.035 159.433 357.561 161.439 357.561 163.986C357.561 166.534 358.035 168.549 358.983 170.032C359.937 171.516 361.269 172.257 362.978 172.257ZM396.895 151.604C399.314 151.604 401.174 152.49 402.477 154.264C403.786 156.037 404.441 158.424 404.441 161.423V175.934H399.507V162.051C399.507 159.955 399.191 158.382 398.559 157.331C397.933 156.286 396.96 155.763 395.637 155.763C393.735 155.763 392.219 156.699 391.091 158.569V175.934H386.157V152.039H390.365L390.607 154.506C391.316 153.603 392.21 152.893 393.287 152.378C394.37 151.862 395.573 151.604 396.895 151.604ZM424.33 176.417C422.944 176.417 421.676 176.266 420.528 175.963C419.387 175.653 418.284 175.192 417.22 174.579L417.752 169.936C419.945 171.548 422.009 172.354 423.943 172.354C425.072 172.354 425.949 172.128 426.575 171.677C427.207 171.226 427.523 170.565 427.523 169.694C427.523 168.791 427.216 168.072 426.604 167.537C425.991 167.008 424.733 166.292 422.831 165.389C420.961 164.518 419.597 163.557 418.739 162.506C417.887 161.461 417.462 160.068 417.462 158.327C417.462 156.328 418.171 154.706 419.59 153.461C421.009 152.223 422.911 151.604 425.298 151.604C427.652 151.604 429.716 152.152 431.489 153.248L430.957 157.65C430.054 156.94 429.2 156.415 428.393 156.073C427.587 155.738 426.668 155.57 425.636 155.57C424.604 155.57 423.782 155.796 423.169 156.247C422.557 156.699 422.25 157.327 422.25 158.134C422.25 158.94 422.541 159.575 423.121 160.039C423.702 160.51 424.846 161.165 426.555 162.003C428.619 162.97 430.102 163.993 431.005 165.07C431.908 166.153 432.36 167.566 432.36 169.307C432.36 171.532 431.634 173.273 430.183 174.531C428.732 175.788 426.781 176.417 424.33 176.417Z" fill="white"/>
<path d="M77.2754 51.6245C116.225 18.7007 165.576 0.636719 216.577 0.636719C267.577 0.636719 316.929 18.7007 355.878 51.6245H350.486C312.793 20.5195 265.447 3.50652 216.577 3.50652C167.706 3.50652 120.361 20.5195 82.6675 51.6245H77.2754ZM77.2754 190.728C116.225 223.652 165.576 241.716 216.577 241.716C267.577 241.716 316.929 223.652 355.878 190.728H350.486C312.793 221.833 265.447 238.846 216.577 238.846C167.706 238.846 120.361 221.833 82.6675 190.728H77.2754Z" fill="#B31F1E"/>
</svg>
