<svg width="617" height="345" viewBox="0 0 617 345" fill="none" xmlns="http://www.w3.org/2000/svg">
<g clip-path="url(#clip0_538_71)">
<g clip-path="url(#clip1_538_71)">
<g clip-path="url(#clip2_538_71)">
<g clip-path="url(#clip3_538_71)">
<g clip-path="url(#clip4_538_71)">
<g clip-path="url(#clip5_538_71)">
<g clip-path="url(#clip6_538_71)">
<path d="M51.3106 99.1806H64.1243L39.396 177.862H24.7839L0.167969 99.1806H12.8693L32.0899 162.125L51.3106 99.1806ZM69.2948 112.107V99.1806H81.4341V112.107H69.2948ZM69.2948 177.862V122.11H81.4341V177.862H69.2948ZM108.748 178.986C104.476 178.986 101.232 177.727 99.0137 175.209C96.8106 172.706 95.7091 169.244 95.7091 164.823V132.227H88.8526L89.9766 122.11H95.7091V109.297L107.848 107.948V122.11H118.414V132.227H107.848V161.226C107.848 163.849 108.373 165.76 109.422 166.959C110.471 168.158 112.195 168.757 114.593 168.757H118.414L117.29 178.986H108.748ZM137.275 178.986C133.079 178.986 129.557 177.562 126.709 174.714C123.862 171.867 122.438 168.045 122.438 163.249C122.438 158.229 123.959 154.182 127.002 151.11C130.029 148.038 133.603 145.865 137.725 144.591C141.846 143.317 145.78 142.605 149.527 142.455C149.527 138.708 148.89 136.026 147.616 134.407C146.342 132.804 144.169 132.002 141.097 132.002C138.849 132.002 136.676 132.376 134.577 133.126C132.479 133.875 130.156 134.999 127.609 136.498L126.597 126.269C132.217 122.822 138.062 121.099 144.132 121.099C155.971 121.099 161.891 128.105 161.891 142.118V158.866C161.891 161.713 162.003 163.811 162.228 165.16C162.453 166.509 162.85 167.446 163.42 167.97C163.974 168.495 164.851 168.757 166.05 168.757H167.623L166.612 178.986H162.003C159.456 178.986 157.268 178.364 155.439 177.12C153.596 175.891 152.187 174.152 151.213 171.904C149.265 174.227 147.166 175.988 144.918 177.187C142.67 178.386 140.123 178.986 137.275 178.986ZM141.209 169.207C144.356 169.207 147.166 167.446 149.639 163.924V150.998C140.048 151.972 135.252 155.681 135.252 162.125C135.252 166.846 137.238 169.207 141.209 169.207ZM228.995 121.099C235.139 121.099 239.748 123.062 242.82 126.989C245.892 130.93 247.428 136.311 247.428 143.13V177.862H235.177V144.703C235.177 140.207 234.502 136.85 233.153 134.632C231.805 132.429 229.594 131.327 226.522 131.327C223.449 131.327 221.089 132.339 219.44 134.362C217.792 136.385 216.968 139.308 216.968 143.13V177.862H204.716V144.703C204.716 135.786 201.906 131.327 196.286 131.327C192.239 131.327 188.942 133.313 186.394 137.285V177.862H174.255V122.11H184.484L185.158 127.393C188.53 123.197 193.176 121.099 199.096 121.099C202.243 121.099 205.016 121.788 207.414 123.167C209.811 124.561 211.722 126.532 213.146 129.079C214.795 126.532 216.99 124.561 219.733 123.167C222.46 121.788 225.548 121.099 228.995 121.099ZM269.122 178.986C264.925 178.986 261.404 177.562 258.556 174.714C255.709 171.867 254.285 168.045 254.285 163.249C254.285 158.229 255.799 154.182 258.826 151.11C261.868 148.038 265.45 145.865 269.571 144.591C273.693 143.317 277.627 142.605 281.374 142.455C281.374 138.708 280.737 136.026 279.463 134.407C278.189 132.804 276.016 132.002 272.943 132.002C270.695 132.002 268.522 132.376 266.424 133.126C264.326 133.875 262.003 134.999 259.455 136.498L258.444 126.269C264.064 122.822 269.909 121.099 275.978 121.099C287.818 121.099 293.738 128.105 293.738 142.118V158.866C293.738 161.713 293.85 163.811 294.075 165.16C294.3 166.509 294.689 167.446 295.244 167.97C295.813 168.495 296.698 168.757 297.897 168.757H299.47L298.459 178.986H293.85C291.302 178.986 289.107 178.364 287.263 177.12C285.435 175.891 284.034 174.152 283.06 171.904C281.111 174.227 279.013 175.988 276.765 177.187C274.517 178.386 271.969 178.986 269.122 178.986ZM273.056 169.207C276.203 169.207 279.013 167.446 281.486 163.924V150.998C271.894 151.972 267.099 155.681 267.099 162.125C267.099 166.846 269.084 169.207 273.056 169.207ZM301.156 177.862L317.117 149.986L301.156 122.11H314.982L324.311 140.544L333.191 122.11H346.903L330.83 149.649L346.903 177.862H333.078L323.636 159.428L314.982 177.862H301.156ZM353.962 177.862V99.1806H375.881C384.123 99.1806 390.59 101.369 395.281 105.745C399.957 110.136 402.295 116.565 402.295 125.033C402.295 133.5 399.934 139.945 395.214 144.366C390.493 148.787 384.048 150.998 375.881 150.998H366.439V177.862H353.962ZM366.439 139.982H374.757C379.552 139.982 383.187 138.761 385.659 136.318C388.132 133.89 389.369 130.128 389.369 125.033C389.369 120.087 388.132 116.378 385.659 113.905C383.187 111.432 379.552 110.196 374.757 110.196H366.439V139.982ZM434.666 121.099C440.287 121.099 444.595 123.085 447.593 127.056C450.59 131.028 452.089 136.385 452.089 143.13V177.862H439.949V144.703C439.949 135.786 437.102 131.327 431.407 131.327C427.36 131.327 424.063 133.313 421.515 137.285V177.862H409.376V93.5605H421.515V126.045C424.962 122.747 429.346 121.099 434.666 121.099ZM473.895 178.986C469.698 178.986 466.176 177.562 463.329 174.714C460.481 171.867 459.058 168.045 459.058 163.249C459.058 158.229 460.571 154.182 463.599 151.11C466.641 148.038 470.223 145.865 474.344 144.591C478.465 143.317 482.4 142.605 486.146 142.455C486.146 138.708 485.509 136.026 484.235 134.407C482.962 132.804 480.788 132.002 477.716 132.002C475.468 132.002 473.295 132.376 471.197 133.126C469.099 133.875 466.776 134.999 464.228 136.498L463.216 126.269C468.836 122.822 474.681 121.099 480.751 121.099C492.591 121.099 498.51 128.105 498.51 142.118V158.866C498.51 161.713 498.623 163.811 498.848 165.16C499.072 166.509 499.462 167.446 500.017 167.97C500.586 168.495 501.47 168.757 502.669 168.757H504.243L503.231 178.986H498.623C496.075 178.986 493.879 178.364 492.036 177.12C490.208 175.891 488.806 174.152 487.832 171.904C485.884 174.227 483.786 175.988 481.538 177.187C479.29 178.386 476.742 178.986 473.895 178.986ZM477.829 169.207C480.976 169.207 483.786 167.446 486.259 163.924V150.998C476.667 151.972 471.871 155.681 471.871 162.125C471.871 166.846 473.857 169.207 477.829 169.207ZM510.762 177.862V122.11H521.215L522.227 129.192C524.475 126.419 526.588 124.373 528.566 123.055C530.56 121.751 532.793 121.099 535.266 121.099C536.24 121.099 537.139 121.211 537.963 121.436L536.952 134.137C536.052 133.838 534.891 133.688 533.467 133.688C529.72 133.688 526.236 135.561 523.014 139.308V177.862H510.762ZM598.188 121.099C604.332 121.099 608.941 123.062 612.013 126.989C615.086 130.93 616.622 136.311 616.622 143.13V177.862H604.37V144.703C604.37 140.207 603.696 136.85 602.347 134.632C600.998 132.429 598.787 131.327 595.715 131.327C592.643 131.327 590.282 132.339 588.634 134.362C586.985 136.385 586.161 139.308 586.161 143.13V177.862H573.909V144.703C573.909 135.786 571.099 131.327 565.479 131.327C561.433 131.327 558.136 133.313 555.588 137.285V177.862H543.448V122.11H553.677L554.351 127.393C557.723 123.197 562.369 121.099 568.289 121.099C571.436 121.099 574.209 121.788 576.607 123.167C579.005 124.561 580.916 126.532 582.339 129.079C583.988 126.532 586.183 124.561 588.926 123.167C591.654 121.788 594.741 121.099 598.188 121.099Z" fill="#1E55B3"/>
</g>
</g>
<g clip-path="url(#clip7_538_71)">
<g clip-path="url(#clip8_538_71)">
<path d="M0.132812 250.977V202.607H7.38828V222.232H27.7036V202.607H34.9591V250.977H27.7036V229.349H7.38828V250.977H0.132812ZM69.5918 251.668C66.1368 251.668 63.2024 250.871 60.7885 249.277C58.3654 247.693 56.5458 245.541 55.3296 242.823C54.1043 240.105 53.4916 237.088 53.4916 233.771C53.4916 230.501 54.0582 227.529 55.1914 224.857C56.3155 222.186 57.9739 220.076 60.1666 218.528C62.3502 216.989 64.9621 216.22 68.0025 216.22C71.826 216.22 74.9033 217.533 77.2342 220.159C79.556 222.784 80.7169 226.378 80.7169 230.938C80.7169 231.952 80.6017 233.195 80.3714 234.67H60.678C60.8622 238.263 61.8296 240.981 63.5801 242.823C65.3307 244.666 67.5418 245.587 70.2137 245.587C71.7339 245.587 73.2679 245.389 74.8157 244.993C76.3544 244.606 77.7456 244.044 78.9894 243.307L79.404 249.526C76.7782 250.954 73.5075 251.668 69.5918 251.668ZM60.8852 229.763H73.5996C73.5996 227.506 73.1297 225.687 72.19 224.305C71.241 222.923 69.7761 222.232 67.7952 222.232C65.9526 222.232 64.4324 222.863 63.2346 224.125C62.0369 225.396 61.2538 227.276 60.8852 229.763ZM105.607 251.668C103.027 251.668 100.885 250.779 99.1803 249.001C97.4758 247.232 96.6236 244.873 96.6236 241.925C96.6236 238.885 97.5449 236.443 99.3876 234.6C101.23 232.758 103.432 231.445 105.994 230.662C108.546 229.879 111.019 229.464 113.415 229.418C113.415 226.884 113.014 225.097 112.212 224.056C111.402 223.024 110.029 222.508 108.094 222.508C105.422 222.508 102.681 223.475 99.8713 225.41L99.1803 219.537C102.359 217.326 105.86 216.22 109.683 216.22C113.277 216.22 115.985 217.256 117.81 219.329C119.625 221.402 120.532 224.719 120.532 229.28V239.368C120.532 241.902 120.707 243.606 121.057 244.482C121.398 245.357 122.121 245.795 123.227 245.795H124.125L123.503 251.668H121.154C117.837 251.668 115.58 250.148 114.382 247.108C111.941 250.148 109.015 251.668 105.607 251.668ZM107.887 246.002C108.9 246.002 109.891 245.679 110.858 245.035C111.826 244.39 112.701 243.491 113.484 242.34V234.324C107.173 234.785 104.017 237.134 104.017 241.372C104.017 244.459 105.307 246.002 107.887 246.002ZM149.084 251.668C146.55 251.668 144.652 250.871 143.39 249.277C142.119 247.693 141.483 245.633 141.483 243.1V199.152H148.531V239.852C148.531 241.557 148.623 242.81 148.808 243.611C148.992 244.422 149.351 244.988 149.886 245.311C150.411 245.633 151.226 245.795 152.332 245.795L151.641 251.668H149.084ZM179.709 251.668C177.129 251.668 175.162 250.894 173.808 249.346C172.444 247.808 171.763 245.749 171.763 243.169V222.577H167.478L168.1 216.842H171.763V208.757L178.811 208.066V216.842H185.513V222.577H178.811V240.889C178.811 242.639 179.156 243.892 179.847 244.648C180.538 245.412 181.667 245.795 183.233 245.795H185.513L184.892 251.668H179.709ZM218.764 216.22C222.265 216.22 224.937 217.487 226.78 220.02C228.622 222.554 229.544 225.963 229.544 230.247V250.977H222.496V231.145C222.496 228.151 222.049 225.917 221.155 224.443C220.252 222.969 218.856 222.232 216.968 222.232C214.25 222.232 212.085 223.568 210.472 226.239V250.977H203.424V199.152H210.472V219.606C212.591 217.349 215.355 216.22 218.764 216.22ZM288.444 251.944C286.095 251.944 283.69 251.682 281.23 251.157C278.761 250.622 276.697 249.941 275.039 249.111L275.937 241.096C280.314 243.676 284.69 244.965 289.066 244.965C291.646 244.965 293.664 244.445 295.119 243.404C296.566 242.372 297.289 240.866 297.289 238.885C297.289 236.766 296.543 235.038 295.05 233.702C293.548 232.366 290.909 230.869 287.131 229.211C284.229 227.921 281.903 226.677 280.152 225.479C278.402 224.282 277.043 222.83 276.075 221.126C275.108 219.422 274.624 217.349 274.624 214.907C274.624 212.281 275.292 209.964 276.628 207.956C277.964 205.956 279.844 204.404 282.267 203.298C284.681 202.193 287.5 201.64 290.725 201.64C295.101 201.64 299.178 202.538 302.955 204.335L302.195 212.005C298.095 209.748 294.087 208.619 290.172 208.619C287.73 208.619 285.842 209.103 284.506 210.07C283.17 211.037 282.502 212.535 282.502 214.562C282.502 215.99 282.893 217.187 283.676 218.155C284.46 219.122 285.496 219.961 286.786 220.67C288.076 221.389 290.149 222.416 293.005 223.752C297.197 225.733 300.26 227.815 302.195 229.998C304.13 232.191 305.097 234.969 305.097 238.332C305.097 242.524 303.623 245.841 300.675 248.282C297.727 250.724 293.65 251.944 288.444 251.944ZM336.413 251.668C333.373 251.668 330.724 250.871 328.467 249.277C326.21 247.693 324.482 245.55 323.284 242.851C322.087 240.161 321.488 237.18 321.488 233.909C321.488 230.639 322.087 227.658 323.284 224.968C324.482 222.268 326.2 220.136 328.439 218.569C330.669 217.003 333.327 216.22 336.413 216.22C339.5 216.22 342.172 217.003 344.429 218.569C346.686 220.136 348.414 222.268 349.611 224.968C350.809 227.658 351.408 230.639 351.408 233.909C351.408 237.18 350.809 240.161 349.611 242.851C348.414 245.55 346.686 247.693 344.429 249.277C342.172 250.871 339.5 251.668 336.413 251.668ZM336.413 245.726C338.901 245.726 340.826 244.666 342.19 242.547C343.544 240.428 344.222 237.549 344.222 233.909C344.222 230.27 343.531 227.405 342.149 225.313C340.767 223.213 338.855 222.163 336.413 222.163C333.972 222.163 332.074 223.213 330.719 225.313C329.356 227.405 328.674 230.27 328.674 233.909C328.674 237.549 329.356 240.428 330.719 242.547C332.074 244.666 333.972 245.726 336.413 245.726ZM377.196 251.668C374.662 251.668 372.764 250.871 371.502 249.277C370.231 247.693 369.595 245.633 369.595 243.1V199.152H376.643V239.852C376.643 241.557 376.735 242.81 376.92 243.611C377.104 244.422 377.463 244.988 377.998 245.311C378.523 245.633 379.338 245.795 380.444 245.795L379.753 251.668H377.196ZM416.32 216.842H423.368V250.977H417.288L416.942 247.522C414.823 250.24 411.921 251.599 408.236 251.599C404.688 251.599 402.04 250.434 400.289 248.103C398.539 245.781 397.663 242.524 397.663 238.332V216.842H404.711V237.434C404.711 240.105 405.126 242.132 405.955 243.514C406.784 244.896 408.143 245.587 410.032 245.587C412.566 245.587 414.662 244.274 416.32 241.649V216.842ZM453.51 251.668C450.93 251.668 448.963 250.894 447.609 249.346C446.245 247.808 445.563 245.749 445.563 243.169V222.577H441.279L441.901 216.842H445.563V208.757L452.611 208.066V216.842H459.314V222.577H452.611V240.889C452.611 242.639 452.957 243.892 453.648 244.648C454.339 245.412 455.467 245.795 457.034 245.795H459.314L458.692 251.668H453.51ZM477.294 210.208V202.607H484.342V210.208H477.294ZM477.294 250.977V216.842H484.342V250.977H477.294ZM517.537 251.668C514.497 251.668 511.848 250.871 509.591 249.277C507.334 247.693 505.606 245.55 504.408 242.851C503.211 240.161 502.612 237.18 502.612 233.909C502.612 230.639 503.211 227.658 504.408 224.968C505.606 222.268 507.32 220.136 509.549 218.569C511.788 217.003 514.451 216.22 517.537 216.22C520.624 216.22 523.296 217.003 525.553 218.569C527.81 220.136 529.538 222.268 530.735 224.968C531.933 227.658 532.532 230.639 532.532 233.909C532.532 237.18 531.933 240.161 530.735 242.851C529.538 245.55 527.81 247.693 525.553 249.277C523.296 250.871 520.624 251.668 517.537 251.668ZM517.537 245.726C520.025 245.726 521.946 244.666 523.3 242.547C524.664 240.428 525.346 237.549 525.346 233.909C525.346 230.27 524.655 227.405 523.273 225.313C521.891 223.213 519.979 222.163 517.537 222.163C515.096 222.163 513.193 223.213 511.83 225.313C510.475 227.405 509.798 230.27 509.798 233.909C509.798 237.549 510.475 240.428 511.83 242.547C513.193 244.666 515.096 245.726 517.537 245.726ZM565.99 216.22C569.445 216.22 572.103 217.487 573.964 220.02C575.834 222.554 576.77 225.963 576.77 230.247V250.977H569.721V231.145C569.721 228.151 569.27 225.903 568.367 224.401C567.473 222.909 566.082 222.163 564.194 222.163C561.476 222.163 559.31 223.498 557.698 226.17V250.977H550.65V216.842H556.662L557.007 220.366C558.021 219.076 559.297 218.063 560.835 217.326C562.383 216.588 564.101 216.22 565.99 216.22ZM605.183 251.668C603.203 251.668 601.392 251.452 599.752 251.019C598.121 250.576 596.546 249.918 595.026 249.042L595.786 242.409C598.918 244.712 601.867 245.864 604.631 245.864C606.243 245.864 607.496 245.541 608.39 244.896C609.293 244.251 609.744 243.307 609.744 242.063C609.744 240.773 609.306 239.746 608.431 238.981C607.556 238.226 605.759 237.203 603.041 235.913C600.369 234.67 598.421 233.297 597.195 231.795C595.979 230.302 595.371 228.312 595.371 225.825C595.371 222.969 596.385 220.652 598.412 218.873C600.439 217.104 603.156 216.22 606.565 216.22C609.928 216.22 612.877 217.003 615.41 218.569L614.65 224.857C613.36 223.844 612.139 223.093 610.988 222.605C609.836 222.126 608.523 221.886 607.049 221.886C605.575 221.886 604.4 222.209 603.525 222.854C602.65 223.498 602.212 224.397 602.212 225.548C602.212 226.7 602.627 227.608 603.456 228.271C604.285 228.944 605.92 229.879 608.362 231.076C611.31 232.458 613.429 233.919 614.719 235.457C616.009 237.005 616.654 239.023 616.654 241.51C616.654 244.689 615.617 247.177 613.544 248.973C611.471 250.77 608.684 251.668 605.183 251.668Z" fill="#168D42"/>
</g>
</g>
</g>
</g>
</g>
</g>
</g>
<path d="M109.391 73.3925C165.032 26.3585 235.535 0.552734 308.392 0.552734C381.25 0.552734 451.752 26.3585 507.394 73.3925H499.691C445.844 28.9567 378.207 4.65246 308.392 4.65246C238.578 4.65246 170.941 28.9567 117.094 73.3925H109.391ZM109.391 272.112C165.032 319.146 235.535 344.952 308.392 344.952C381.25 344.952 451.752 319.146 507.394 272.112H499.691C445.844 316.548 378.207 340.852 308.392 340.852C238.578 340.852 170.941 316.548 117.094 272.112H109.391Z" fill="#B31F1E"/>
<defs>
<clipPath id="clip0_538_71">
<rect width="616.521" height="158.384" fill="white" transform="translate(0.132812 93.5605)"/>
</clipPath>
<clipPath id="clip1_538_71">
<rect width="616.521" height="158.384" fill="white" transform="translate(0.132812 93.5605)"/>
</clipPath>
<clipPath id="clip2_538_71">
<rect width="616.521" height="158.384" fill="white" transform="translate(0.132812 93.5605)"/>
</clipPath>
<clipPath id="clip3_538_71">
<rect width="616.521" height="158.384" fill="white" transform="translate(0.132812 93.5605)"/>
</clipPath>
<clipPath id="clip4_538_71">
<rect width="616.521" height="158.384" fill="white" transform="translate(0.132812 93.5605)"/>
</clipPath>
<clipPath id="clip5_538_71">
<rect width="616.521" height="85.425" fill="white" transform="translate(0.132812 93.5605)"/>
</clipPath>
<clipPath id="clip6_538_71">
<rect width="616.521" height="85.425" fill="white" transform="translate(0.132812 93.5605)"/>
</clipPath>
<clipPath id="clip7_538_71">
<rect width="616.521" height="52.7926" fill="white" transform="translate(0.132812 199.152)"/>
</clipPath>
<clipPath id="clip8_538_71">
<rect width="616.521" height="52.7926" fill="white" transform="translate(0.132812 199.152)"/>
</clipPath>
</defs>
</svg>
