<svg xmlns="http://www.w3.org/2000/svg" version="1.1" xmlns:xlink="http://www.w3.org/1999/xlink" xmlns:svgjs="http://svgjs.dev/svgjs" width="1000" height="623" viewBox="0 0 1000 623"><g transform="matrix(1,0,0,1,-0.6060606060606233,0.2522267206477409)"><svg viewBox="0 0 396 247" data-background-color="#ffffff" preserveAspectRatio="xMidYMid meet" height="623" width="1000" xmlns="http://www.w3.org/2000/svg" xmlns:xlink="http://www.w3.org/1999/xlink"><g id="tight-bounds" transform="matrix(1,0,0,1,0.2400000000000091,-0.09999999999999432)"><svg viewBox="0 0 395.52 247.2" height="247.2" width="395.52"><g><svg></svg></g><g><svg viewBox="0 0 395.52 247.2" height="247.2" width="395.52"><g transform="matrix(1,0,0,1,75.54432,92.20276373293039)"><svg viewBox="0 0 244.43135999999998 62.7944725341392" height="62.7944725341392" width="244.43135999999998"><g><svg viewBox="0 0 244.43135999999998 62.7944725341392" height="62.7944725341392" width="244.43135999999998"><g><svg viewBox="0 0 244.43135999999998 62.7944725341392" height="62.7944725341392" width="244.43135999999998"><g><svg viewBox="0 0 244.43135999999998 62.7944725341392" height="62.7944725341392" width="244.43135999999998"><g><svg viewBox="0 0 244.43135999999998 62.7944725341392" height="62.7944725341392" width="244.43135999999998"><g><svg viewBox="0 0 244.43135999999998 33.86833793983591" height="33.86833793983591" width="244.43135999999998"><g transform="matrix(1,0,0,1,0,0)"><svg width="244.43135999999998" viewBox="0.10000000149011612 -37.5 274.2200012207031 38" height="33.86833793983591" data-palette-color="#1e55b3"><path d="M22.85-35L28.55-35 17.55 0 11.05 0 0.1-35 5.75-35 14.3-7 22.85-35ZM30.85-29.25L30.85-35 36.25-35 36.25-29.25 30.85-29.25ZM30.85 0L30.85-24.8 36.25-24.8 36.25 0 30.85 0ZM48.4 0.5Q45.55 0.5 44.07-1.18 42.6-2.85 42.6-5.8L42.6-5.8 42.6-20.3 39.55-20.3 40.05-24.8 42.6-24.8 42.6-30.5 48-31.1 48-24.8 52.7-24.8 52.7-20.3 48-20.3 48-7.4Q48-5.65 48.7-4.85 49.4-4.05 51-4.05L51-4.05 52.7-4.05 52.2 0.5 48.4 0.5ZM61.09 0.5Q58.29 0.5 56.39-1.4 54.49-3.3 54.49-6.5L54.49-6.5Q54.49-9.85 56.52-11.9 58.54-13.95 61.29-14.8 64.04-15.65 66.54-15.75L66.54-15.75Q66.54-18.25 65.69-19.33 64.84-20.4 62.79-20.4L62.79-20.4Q61.29-20.4 59.89-19.9 58.49-19.4 56.79-18.4L56.79-18.4 56.34-22.95Q60.09-25.25 64.14-25.25L64.14-25.25Q72.04-25.25 72.04-15.9L72.04-15.9 72.04-8.45Q72.04-6.55 72.19-5.65 72.34-4.75 72.72-4.4 73.09-4.05 73.89-4.05L73.89-4.05 74.59-4.05 74.14 0.5 72.09 0.5Q70.39 0.5 69.17-0.33 67.94-1.15 67.29-2.65L67.29-2.65Q65.99-1.1 64.49-0.3 62.99 0.5 61.09 0.5L61.09 0.5ZM62.84-3.85Q64.94-3.85 66.59-6.2L66.59-6.2 66.59-11.95Q60.19-11.3 60.19-7L60.19-7Q60.19-3.85 62.84-3.85L62.84-3.85ZM101.89-25.25Q105.99-25.25 108.04-22.63 110.09-20 110.09-15.45L110.09-15.45 110.09 0 104.64 0 104.64-14.75Q104.64-17.75 103.74-19.23 102.84-20.7 100.79-20.7L100.79-20.7Q98.74-20.7 97.64-19.35 96.54-18 96.54-15.45L96.54-15.45 96.54 0 91.09 0 91.09-14.75Q91.09-20.7 87.34-20.7L87.34-20.7Q84.64-20.7 82.94-18.05L82.94-18.05 82.94 0 77.54 0 77.54-24.8 82.09-24.8 82.39-22.45Q84.64-25.25 88.59-25.25L88.59-25.25Q90.69-25.25 92.29-24.33 93.89-23.4 94.84-21.7L94.84-21.7Q95.94-23.4 97.77-24.33 99.59-25.25 101.89-25.25L101.89-25.25ZM119.74 0.5Q116.94 0.5 115.04-1.4 113.14-3.3 113.14-6.5L113.14-6.5Q113.14-9.85 115.16-11.9 117.19-13.95 119.94-14.8 122.69-15.65 125.19-15.75L125.19-15.75Q125.19-18.25 124.34-19.33 123.49-20.4 121.44-20.4L121.44-20.4Q119.94-20.4 118.54-19.9 117.14-19.4 115.44-18.4L115.44-18.4 114.99-22.95Q118.74-25.25 122.79-25.25L122.79-25.25Q130.69-25.25 130.69-15.9L130.69-15.9 130.69-8.45Q130.69-6.55 130.84-5.65 130.99-4.75 131.36-4.4 131.74-4.05 132.54-4.05L132.54-4.05 133.24-4.05 132.79 0.5 130.74 0.5Q129.04 0.5 127.81-0.33 126.59-1.15 125.94-2.65L125.94-2.65Q124.64-1.1 123.14-0.3 121.64 0.5 119.74 0.5L119.74 0.5ZM121.49-3.85Q123.59-3.85 125.24-6.2L125.24-6.2 125.24-11.95Q118.84-11.3 118.84-7L118.84-7Q118.84-3.85 121.49-3.85L121.49-3.85ZM133.99 0L141.09-12.4 133.99-24.8 140.14-24.8 144.29-16.6 148.24-24.8 154.34-24.8 147.19-12.55 154.34 0 148.19 0 143.99-8.2 140.14 0 133.99 0ZM157.48 0L157.48-35 167.23-35Q172.73-35 175.86-32.08 178.98-29.15 178.98-23.5L178.98-23.5Q178.98-17.85 175.83-14.9 172.68-11.95 167.23-11.95L167.23-11.95 163.03-11.95 163.03 0 157.48 0ZM163.03-16.85L166.73-16.85Q169.93-16.85 171.58-18.48 173.23-20.1 173.23-23.5L173.23-23.5Q173.23-26.8 171.58-28.45 169.93-30.1 166.73-30.1L166.73-30.1 163.03-30.1 163.03-16.85ZM193.38-25.25Q197.13-25.25 199.13-22.6 201.13-19.95 201.13-15.45L201.13-15.45 201.13 0 195.73 0 195.73-14.75Q195.73-20.7 191.93-20.7L191.93-20.7Q189.23-20.7 187.53-18.05L187.53-18.05 187.53 0 182.13 0 182.13-37.5 187.53-37.5 187.53-23.05Q189.83-25.25 193.38-25.25L193.38-25.25ZM210.83 0.5Q208.03 0.5 206.13-1.4 204.23-3.3 204.23-6.5L204.23-6.5Q204.23-9.85 206.25-11.9 208.28-13.95 211.03-14.8 213.78-15.65 216.28-15.75L216.28-15.75Q216.28-18.25 215.43-19.33 214.58-20.4 212.53-20.4L212.53-20.4Q211.03-20.4 209.63-19.9 208.23-19.4 206.53-18.4L206.53-18.4 206.08-22.95Q209.83-25.25 213.88-25.25L213.88-25.25Q221.78-25.25 221.78-15.9L221.78-15.9 221.78-8.45Q221.78-6.55 221.93-5.65 222.08-4.75 222.45-4.4 222.83-4.05 223.63-4.05L223.63-4.05 224.33-4.05 223.88 0.5 221.83 0.5Q220.13 0.5 218.9-0.33 217.68-1.15 217.03-2.65L217.03-2.65Q215.73-1.1 214.23-0.3 212.73 0.5 210.83 0.5L210.83 0.5ZM212.58-3.85Q214.68-3.85 216.33-6.2L216.33-6.2 216.33-11.95Q209.93-11.3 209.93-7L209.93-7Q209.93-3.85 212.58-3.85L212.58-3.85ZM227.23 0L227.23-24.8 231.88-24.8 232.33-21.65Q233.83-23.5 235.15-24.38 236.48-25.25 238.13-25.25L238.13-25.25Q238.78-25.25 239.33-25.1L239.33-25.1 238.88-19.45Q238.28-19.65 237.33-19.65L237.33-19.65Q234.83-19.65 232.68-17.15L232.68-17.15 232.68 0 227.23 0ZM266.12-25.25Q270.22-25.25 272.27-22.63 274.32-20 274.32-15.45L274.32-15.45 274.32 0 268.87 0 268.87-14.75Q268.87-17.75 267.97-19.23 267.07-20.7 265.02-20.7L265.02-20.7Q262.97-20.7 261.87-19.35 260.77-18 260.77-15.45L260.77-15.45 260.77 0 255.32 0 255.32-14.75Q255.32-20.7 251.57-20.7L251.57-20.7Q248.87-20.7 247.17-18.05L247.17-18.05 247.17 0 241.77 0 241.77-24.8 246.32-24.8 246.62-22.45Q248.87-25.25 252.82-25.25L252.82-25.25Q254.92-25.25 256.52-24.33 258.12-23.4 259.07-21.7L259.07-21.7Q260.17-23.4 262-24.33 263.82-25.25 266.12-25.25L266.12-25.25Z" opacity="1" transform="matrix(1,0,0,1,0,0)" fill="#1e55b3" class="undefined-text-0" data-fill-palette-color="primary" id="text-0"></path></svg></g></svg></g><g transform="matrix(1,0,0,1,0,41.86383968732061)"><svg viewBox="0 0 244.43135999999998 20.930632846818593" height="20.930632846818593" width="244.43135999999998"><g transform="matrix(1,0,0,1,0,0)"><svg width="244.43135999999998" viewBox="3.299999952316284 -37.5 446.1100158691406 38.20000076293945" height="20.930632846818593" data-palette-color="#168d42"><path d="M3.3 0L3.3-35 8.55-35 8.55-20.8 23.25-20.8 23.25-35 28.5-35 28.5 0 23.25 0 23.25-15.65 8.55-15.65 8.55 0 3.3 0ZM53.56 0.5Q49.81 0.5 47.19-1.23 44.56-2.95 43.24-5.9 41.91-8.85 41.91-12.45L41.91-12.45Q41.91-16 43.14-18.9 44.36-21.8 46.74-23.48 49.11-25.15 52.41-25.15L52.41-25.15Q56.56-25.15 59.09-22.3 61.61-19.45 61.61-14.5L61.61-14.5Q61.61-13.4 61.36-11.8L61.36-11.8 47.11-11.8Q47.31-7.9 49.21-5.9 51.11-3.9 54.01-3.9L54.01-3.9Q55.66-3.9 57.34-4.33 59.01-4.75 60.36-5.55L60.36-5.55 60.66-1.05Q57.81 0.5 53.56 0.5L53.56 0.5ZM47.26-15.35L56.46-15.35Q56.46-17.8 55.44-19.3 54.41-20.8 52.26-20.8L52.26-20.8Q50.26-20.8 48.96-19.43 47.66-18.05 47.26-15.35L47.26-15.35ZM79.62 0.5Q76.82 0.5 74.97-1.43 73.12-3.35 73.12-6.55L73.12-6.55Q73.12-9.85 75.12-11.85 77.12-13.85 79.9-14.7 82.67-15.55 85.27-15.6L85.27-15.6Q85.27-18.35 84.4-19.48 83.52-20.6 81.42-20.6L81.42-20.6Q78.52-20.6 75.47-18.5L75.47-18.5 74.97-22.75Q78.42-25.15 82.57-25.15L82.57-25.15Q86.47-25.15 88.45-22.9 90.42-20.65 90.42-15.7L90.42-15.7 90.42-8.4Q90.42-5.65 90.8-4.7 91.17-3.75 92.37-3.75L92.37-3.75 93.02-3.75 92.57 0.5 90.87 0.5Q87.27 0.5 85.97-2.8L85.97-2.8Q83.32 0.5 79.62 0.5L79.62 0.5ZM81.27-3.6Q82.37-3.6 83.42-4.3 84.47-5 85.32-6.25L85.32-6.25 85.32-12.05Q78.47-11.55 78.47-6.95L78.47-6.95Q78.47-3.6 81.27-3.6L81.27-3.6ZM111.08 0.5Q108.33 0.5 106.96-1.23 105.58-2.95 105.58-5.7L105.58-5.7 105.58-37.5 110.68-37.5 110.68-8.05Q110.68-6.2 110.88-5.33 111.08-4.45 111.66-4.1 112.23-3.75 113.43-3.75L113.43-3.75 112.93 0.5 111.08 0.5ZM133.24 0.5Q130.44 0.5 128.97-1.18 127.49-2.85 127.49-5.65L127.49-5.65 127.49-20.55 124.39-20.55 124.84-24.7 127.49-24.7 127.49-30.55 132.59-31.05 132.59-24.7 137.44-24.7 137.44-20.55 132.59-20.55 132.59-7.3Q132.59-5.4 133.34-4.58 134.09-3.75 135.79-3.75L135.79-3.75 137.44-3.75 136.99 0.5 133.24 0.5ZM161.5-25.15Q165.3-25.15 167.3-22.4 169.3-19.65 169.3-15L169.3-15 169.3 0 164.2 0 164.2-14.35Q164.2-17.6 163.23-19.2 162.25-20.8 160.2-20.8L160.2-20.8Q157.25-20.8 155.5-17.9L155.5-17.9 155.5 0 150.4 0 150.4-37.5 155.5-37.5 155.5-22.7Q157.8-25.15 161.5-25.15L161.5-25.15ZM211.92 0.7Q209.37 0.7 206.7 0.13 204.02-0.45 202.22-1.35L202.22-1.35 202.87-7.15Q207.62-4.35 212.37-4.35L212.37-4.35Q215.17-4.35 216.75-5.48 218.32-6.6 218.32-8.75L218.32-8.75Q218.32-11.05 216.7-12.5 215.07-13.95 210.97-15.75L210.97-15.75Q207.82-17.15 205.92-18.45 204.02-19.75 202.97-21.6 201.92-23.45 201.92-26.1L201.92-26.1Q201.92-28.95 203.37-31.13 204.82-33.3 207.45-34.5 210.07-35.7 213.57-35.7L213.57-35.7Q218.32-35.7 222.42-33.75L222.42-33.75 221.87-28.2Q217.42-30.65 213.17-30.65L213.17-30.65Q210.52-30.65 209.07-29.6 207.62-28.55 207.62-26.35L207.62-26.35Q207.62-24.8 208.47-23.75 209.32-22.7 210.72-21.93 212.12-21.15 215.22-19.7L215.22-19.7Q219.77-17.55 221.87-15.18 223.97-12.8 223.97-9.15L223.97-9.15Q223.97-4.6 220.77-1.95 217.57 0.7 211.92 0.7L211.92 0.7ZM246.63 0.5Q243.33 0.5 240.88-1.23 238.43-2.95 237.13-5.88 235.83-8.8 235.83-12.35L235.83-12.35Q235.83-15.9 237.13-18.82 238.43-21.75 240.86-23.45 243.28-25.15 246.63-25.15L246.63-25.15Q249.98-25.15 252.43-23.45 254.88-21.75 256.18-18.82 257.48-15.9 257.48-12.35L257.48-12.35Q257.48-8.8 256.18-5.88 254.88-2.95 252.43-1.23 249.98 0.5 246.63 0.5L246.63 0.5ZM246.63-3.8Q249.33-3.8 250.81-6.1 252.28-8.4 252.28-12.35L252.28-12.35Q252.28-16.3 250.78-18.57 249.28-20.85 246.63-20.85L246.63-20.85Q243.98-20.85 242.51-18.57 241.03-16.3 241.03-12.35L241.03-12.35Q241.03-8.4 242.51-6.1 243.98-3.8 246.63-3.8L246.63-3.8ZM276.14 0.5Q273.39 0.5 272.02-1.23 270.64-2.95 270.64-5.7L270.64-5.7 270.64-37.5 275.74-37.5 275.74-8.05Q275.74-6.2 275.94-5.33 276.14-4.45 276.72-4.1 277.29-3.75 278.49-3.75L278.49-3.75 277.99 0.5 276.14 0.5ZM304.45-24.7L309.55-24.7 309.55 0 305.15 0 304.9-2.5Q302.6 0.45 298.6 0.45L298.6 0.45Q294.75 0.45 292.85-2.08 290.95-4.6 290.95-9.15L290.95-9.15 290.95-24.7 296.05-24.7 296.05-9.8Q296.05-6.9 296.95-5.4 297.85-3.9 299.9-3.9L299.9-3.9Q302.65-3.9 304.45-6.75L304.45-6.75 304.45-24.7ZM331.36 0.5Q328.56 0.5 327.09-1.18 325.61-2.85 325.61-5.65L325.61-5.65 325.61-20.55 322.51-20.55 322.96-24.7 325.61-24.7 325.61-30.55 330.71-31.05 330.71-24.7 335.56-24.7 335.56-20.55 330.71-20.55 330.71-7.3Q330.71-5.4 331.46-4.58 332.21-3.75 333.91-3.75L333.91-3.75 335.56-3.75 335.11 0.5 331.36 0.5ZM348.57-29.5L348.57-35 353.67-35 353.67-29.5 348.57-29.5ZM348.57 0L348.57-24.7 353.67-24.7 353.67 0 348.57 0ZM377.69 0.5Q374.39 0.5 371.94-1.23 369.49-2.95 368.19-5.88 366.89-8.8 366.89-12.35L366.89-12.35Q366.89-15.9 368.19-18.82 369.49-21.75 371.91-23.45 374.34-25.15 377.69-25.15L377.69-25.15Q381.04-25.15 383.49-23.45 385.94-21.75 387.24-18.82 388.54-15.9 388.54-12.35L388.54-12.35Q388.54-8.8 387.24-5.88 385.94-2.95 383.49-1.23 381.04 0.5 377.69 0.5L377.69 0.5ZM377.69-3.8Q380.39-3.8 381.86-6.1 383.34-8.4 383.34-12.35L383.34-12.35Q383.34-16.3 381.84-18.57 380.34-20.85 377.69-20.85L377.69-20.85Q375.04-20.85 373.56-18.57 372.09-16.3 372.09-12.35L372.09-12.35Q372.09-8.4 373.56-6.1 375.04-3.8 377.69-3.8L377.69-3.8ZM412.75-25.15Q416.5-25.15 418.52-22.4 420.55-19.65 420.55-15L420.55-15 420.55 0 415.45 0 415.45-14.35Q415.45-17.6 414.47-19.23 413.5-20.85 411.45-20.85L411.45-20.85Q408.5-20.85 406.75-17.95L406.75-17.95 406.75 0 401.65 0 401.65-24.7 406-24.7 406.25-22.15Q407.35-23.55 409.02-24.35 410.7-25.15 412.75-25.15L412.75-25.15ZM441.11 0.5Q438.96 0.5 437.18 0.03 435.41-0.45 433.76-1.4L433.76-1.4 434.31-6.2Q437.71-3.7 440.71-3.7L440.71-3.7Q442.46-3.7 443.43-4.4 444.41-5.1 444.41-6.45L444.41-6.45Q444.41-7.85 443.46-8.68 442.51-9.5 439.56-10.9L439.56-10.9Q436.66-12.25 435.33-13.88 434.01-15.5 434.01-18.2L434.01-18.2Q434.01-21.3 436.21-23.23 438.41-25.15 442.11-25.15L442.11-25.15Q445.76-25.15 448.51-23.45L448.51-23.45 447.96-18.9Q446.56-20 445.31-20.53 444.06-21.05 442.46-21.05L442.46-21.05Q440.86-21.05 439.91-20.35 438.96-19.65 438.96-18.4L438.96-18.4Q438.96-17.15 439.86-16.43 440.76-15.7 443.41-14.4L443.41-14.4Q446.61-12.9 448.01-11.23 449.41-9.55 449.41-6.85L449.41-6.85Q449.41-3.4 447.16-1.45 444.91 0.5 441.11 0.5L441.11 0.5Z" opacity="1" transform="matrix(1,0,0,1,0,0)" fill="#168d42" class="undefined-text-1" data-fill-palette-color="secondary" id="text-1"></path></svg></g></svg></g></svg></g></svg></g><g></g></svg></g></svg></g></svg></g><g><path d="M118.862 84.207A122.216 122.216 0 0 1 276.658 84.207L273.604 84.207A119.161 119.161 0 0 0 121.916 84.207L118.862 84.207M118.862 162.993A122.216 122.216 0 0 0 276.658 162.993L273.604 162.993A119.161 119.161 0 0 1 121.916 162.993L118.862 162.993" fill="#b31f1e" stroke="transparent" data-fill-palette-color="tertiary"></path></g></svg></g><defs></defs></svg><rect width="395.52" height="247.2" fill="none" stroke="none" visibility="hidden"></rect></g></svg></g></svg>