<svg width="15" height="15" viewBox="0 0 15 15" fill="none" xmlns="http://www.w3.org/2000/svg">
<path d="M7.5 0C3.3645 0 0 3.3645 0 7.5C0 11.6355 3.3645 15 7.5 15C11.6355 15 15 11.6355 15 7.5C15 3.3645 11.6355 0 7.5 0ZM6.00075 10.8098L3.74659 8.56045C3.45352 8.26801 3.45293 7.7934 3.74527 7.50023V7.50023C4.03778 7.20689 4.51276 7.20635 4.80595 7.49902L5.99925 8.69025L9.4395 5.25C9.73235 4.95715 10.2072 4.95715 10.5 5.25V5.25C10.7928 5.54285 10.7928 6.01765 10.5 6.3105L6.00075 10.8098Z" fill="#038B73"/>
</svg>
