<svg width="40" height="40" viewBox="0 0 40 40" fill="none" xmlns="http://www.w3.org/2000/svg">
<rect width="40" height="40" rx="10" fill="url(#paint0_linear_503_424)"/>
<path opacity="0.4" d="M18.6312 22.8276H13.9344C13.34 22.8276 12.8574 23.3017 12.8574 23.8857C12.8574 24.469 13.34 24.9438 13.9344 24.9438H18.6312C19.2256 24.9438 19.7082 24.469 19.7082 23.8857C19.7082 23.3017 19.2256 22.8276 18.6312 22.8276" fill="white"/>
<path opacity="0.4" d="M27.1429 15.985C27.1429 15.4018 26.6604 14.9277 26.0667 14.9277H21.3699C20.7755 14.9277 20.293 15.4018 20.293 15.985C20.293 16.5691 20.7755 17.0431 21.3699 17.0431H26.0667C26.6604 17.0431 27.1429 16.5691 27.1429 15.985" fill="white"/>
<path d="M17.7701 15.985C17.7701 17.3184 16.6709 18.3991 15.3138 18.3991C13.9574 18.3991 12.8574 17.3184 12.8574 15.985C12.8574 14.6525 13.9574 13.5718 15.3138 13.5718C16.6709 13.5718 17.7701 14.6525 17.7701 15.985" fill="white"/>
<path d="M27.1431 23.8569C27.1431 25.1895 26.0439 26.2702 24.6868 26.2702C23.3305 26.2702 22.2305 25.1895 22.2305 23.8569C22.2305 22.5236 23.3305 21.4429 24.6868 21.4429C26.0439 21.4429 27.1431 22.5236 27.1431 23.8569" fill="white"/>
<defs>
<linearGradient id="paint0_linear_503_424" x1="20" y1="0" x2="20" y2="40" gradientUnits="userSpaceOnUse">
<stop stop-color="#1E55B3"/>
<stop offset="1" stop-color="#002565"/>
</linearGradient>
</defs>
</svg>
