<svg width="40" height="40" viewBox="0 0 40 40" fill="none" xmlns="http://www.w3.org/2000/svg">
<rect width="40" height="40" rx="10" fill="url(#paint0_linear_503_424)"/>
<path opacity="0.4" d="M18.6312 22.8271H13.9344C13.34 22.8271 12.8574 23.3012 12.8574 23.8852C12.8574 24.4685 13.34 24.9433 13.9344 24.9433H18.6312C19.2256 24.9433 19.7082 24.4685 19.7082 23.8852C19.7082 23.3012 19.2256 22.8271 18.6312 22.8271" fill="white"/>
<path opacity="0.4" d="M27.1429 15.9847C27.1429 15.4014 26.6604 14.9274 26.0667 14.9274H21.3699C20.7755 14.9274 20.293 15.4014 20.293 15.9847C20.293 16.5687 20.7755 17.0428 21.3699 17.0428H26.0667C26.6604 17.0428 27.1429 16.5687 27.1429 15.9847" fill="white"/>
<path d="M17.7701 15.9847C17.7701 17.318 16.6709 18.3987 15.3138 18.3987C13.9574 18.3987 12.8574 17.318 12.8574 15.9847C12.8574 14.6521 13.9574 13.5714 15.3138 13.5714C16.6709 13.5714 17.7701 14.6521 17.7701 15.9847" fill="white"/>
<path d="M27.1431 23.8565C27.1431 25.1891 26.0439 26.2698 24.6868 26.2698C23.3305 26.2698 22.2305 25.1891 22.2305 23.8565C22.2305 22.5232 23.3305 21.4425 24.6868 21.4425C26.0439 21.4425 27.1431 22.5232 27.1431 23.8565" fill="white"/>
<defs>
<linearGradient id="paint0_linear_503_424" x1="20" y1="0" x2="20" y2="40" gradientUnits="userSpaceOnUse">
<stop stop-color="#038B73"/>
<stop offset="1" stop-color="#006A57"/>
</linearGradient>
</defs>
</svg>
