<svg width="40" height="40" viewBox="0 0 40 40" fill="none" xmlns="http://www.w3.org/2000/svg">
<rect width="40" height="40" rx="10" fill="url(#paint0_linear_503_400)"/>
<path d="M18.6808 15.3968C18.7172 15.4708 18.7412 15.5501 18.752 15.6317L18.9509 18.5887V18.5887L19.0496 20.075C19.0506 20.2279 19.0746 20.3798 19.1208 20.5257C19.24 20.809 19.5268 20.989 19.8389 20.9764L24.5941 20.6654C24.8 20.662 24.9988 20.739 25.1469 20.8795C25.2702 20.9965 25.3499 21.1497 25.375 21.3144L25.3834 21.4144C25.1866 24.1392 23.1854 26.4119 20.4662 26.9986C17.7471 27.5852 14.9588 26.3459 13.6151 23.9535C13.2277 23.2584 12.9857 22.4945 12.9034 21.7064C12.869 21.4731 12.8539 21.2375 12.8581 21.0018C12.8539 18.0805 14.9342 15.555 17.8462 14.9461C18.1967 14.8915 18.5403 15.0771 18.6808 15.3968Z" fill="white"/>
<path opacity="0.4" d="M20.6221 12.8578C23.8792 12.9406 26.6166 15.2827 27.1435 18.4374L27.1385 18.4607V18.4607L27.1241 18.4945L27.1261 18.5874C27.1187 18.7105 27.0711 18.829 26.9892 18.9247C26.9039 19.0243 26.7873 19.0922 26.659 19.1185L26.5807 19.1293L21.0944 19.4848C20.9119 19.5028 20.7302 19.4439 20.5945 19.3229C20.4814 19.222 20.4091 19.0858 20.3887 18.9391L20.0204 13.4608C20.014 13.4423 20.014 13.4222 20.0204 13.4037C20.0255 13.2527 20.0919 13.1099 20.205 13.0073C20.3181 12.9048 20.4683 12.8509 20.6221 12.8578Z" fill="white"/>
<defs>
<linearGradient id="paint0_linear_503_400" x1="20" y1="0" x2="20" y2="40" gradientUnits="userSpaceOnUse">
<stop stop-color="#038B73"/>
<stop offset="1" stop-color="#006A57"/>
</linearGradient>
</defs>
</svg>
