<svg width="40" height="40" viewBox="0 0 40 40" fill="none" xmlns="http://www.w3.org/2000/svg">
<rect width="40" height="40" rx="10" fill="url(#paint0_linear_503_400)"/>
<path d="M18.6808 15.3972C18.7172 15.4712 18.7412 15.5505 18.752 15.632L18.9509 18.5891V18.5891L19.0496 20.0754C19.0506 20.2283 19.0746 20.3801 19.1208 20.5261C19.24 20.8093 19.5268 20.9893 19.8389 20.9768L24.5941 20.6657C24.8 20.6624 24.9988 20.7394 25.1469 20.8798C25.2702 20.9969 25.3499 21.15 25.375 21.3148L25.3834 21.4148C25.1866 24.1396 23.1854 26.4123 20.4662 26.9989C17.7471 27.5856 14.9588 26.3463 13.6151 23.9539C13.2277 23.2588 12.9857 22.4948 12.9034 21.7068C12.869 21.4735 12.8539 21.2379 12.8581 21.0022C12.8539 18.0809 14.9342 15.5553 17.8462 14.9465C18.1967 14.8919 18.5403 15.0774 18.6808 15.3972Z" fill="white"/>
<path opacity="0.4" d="M20.6221 12.858C23.8792 12.9409 26.6166 15.283 27.1435 18.4376L27.1385 18.4609V18.4609L27.1241 18.4948L27.1261 18.5877C27.1187 18.7108 27.0711 18.8292 26.9892 18.9249C26.9039 19.0246 26.7873 19.0924 26.659 19.1188L26.5807 19.1295L21.0944 19.485C20.9119 19.503 20.7302 19.4442 20.5945 19.3231C20.4814 19.2222 20.4091 19.0861 20.3887 18.9393L20.0204 13.461C20.014 13.4425 20.014 13.4224 20.0204 13.4039C20.0255 13.2529 20.0919 13.1102 20.205 13.0076C20.3181 12.905 20.4683 12.8511 20.6221 12.858Z" fill="white"/>
<defs>
<linearGradient id="paint0_linear_503_400" x1="20" y1="0" x2="20" y2="40" gradientUnits="userSpaceOnUse">
<stop stop-color="#1E55B3"/>
<stop offset="1" stop-color="#002565"/>
</linearGradient>
</defs>
</svg>
