<svg width="277" height="377" viewBox="0 0 277 377" fill="none" xmlns="http://www.w3.org/2000/svg">
<path d="M202.655 163.516C203.191 157.053 217.965 132.808 222.482 129.05C227 125.293 234.977 115.797 231.541 110.402C228.104 105.008 218.004 107.409 208.518 124.225C201.162 137.267 198.876 166.112 198.876 166.112L202.655 163.516Z" fill="#02897A"/>
<path d="M200.633 162.908H200.571C200.52 162.9 200.472 162.883 200.429 162.856C200.385 162.83 200.348 162.795 200.318 162.753C200.288 162.712 200.267 162.665 200.256 162.615C200.244 162.565 200.243 162.514 200.252 162.463C204.427 135.396 213.299 118.51 227.373 110.839C227.463 110.789 227.57 110.778 227.669 110.807C227.718 110.822 227.764 110.846 227.804 110.878C227.844 110.91 227.877 110.95 227.901 110.995C227.926 111.04 227.941 111.089 227.947 111.14C227.952 111.191 227.948 111.243 227.933 111.292C227.919 111.341 227.895 111.387 227.863 111.427C227.83 111.467 227.791 111.5 227.746 111.525C213.898 119.071 205.158 135.778 201.014 162.588C200.998 162.678 200.951 162.759 200.881 162.817C200.811 162.875 200.724 162.907 200.633 162.908V162.908Z" fill="white"/>
<path d="M204.14 132.161C204.14 132.161 215.997 111.611 225.818 102.201C231.261 96.9856 234.604 93.6255 234.309 89.6808C234.091 86.6872 231.611 85.089 226.277 86.4065C215.648 89.026 209.948 99.8233 206.278 111.915C203.673 120.428 204.14 132.161 204.14 132.161Z" fill="#37474F"/>
<path opacity="0.2" d="M204.14 132.161C204.14 132.161 215.997 111.611 225.818 102.201C231.261 96.9856 234.604 93.6255 234.309 89.6808C234.091 86.6872 231.611 85.089 226.277 86.4065C215.648 89.026 209.948 99.8233 206.278 111.915C203.673 120.428 204.14 132.161 204.14 132.161Z" fill="#00FFE3"/>
<path d="M205.516 128.785H205.462C205.359 128.768 205.267 128.71 205.206 128.626C205.145 128.541 205.12 128.436 205.135 128.333C209.357 101.624 225.406 91.5671 230.227 89.1192C230.319 89.073 230.425 89.0651 230.523 89.0972C230.62 89.1293 230.701 89.1989 230.748 89.2907C230.772 89.3361 230.786 89.3858 230.79 89.437C230.795 89.4881 230.789 89.5396 230.773 89.5883C230.757 89.6371 230.731 89.6821 230.698 89.7207C230.664 89.7593 230.623 89.7907 230.577 89.8131C225.841 92.222 210.073 102.107 205.905 128.457C205.89 128.55 205.843 128.633 205.771 128.694C205.7 128.754 205.61 128.786 205.516 128.785V128.785Z" fill="white"/>
<path d="M197.414 6.26444L121.821 49.9995C120.841 50.6405 120.026 51.5039 119.441 52.5197C118.856 53.5355 118.518 54.6752 118.454 55.8464V223.607C118.454 225.758 119.963 226.631 121.821 225.555L197.414 181.82C198.393 181.179 199.209 180.316 199.794 179.3C200.379 178.284 200.717 177.145 200.781 175.974V8.21341C200.781 6.06174 199.272 5.1886 197.414 6.26444Z" fill="#37474F"/>
<path d="M121.822 49.9994L197.415 6.26442C199.079 5.30552 200.455 5.9058 200.728 7.58192C200.574 6.52738 200.2 5.51739 199.629 4.61845C199.058 3.71951 198.303 2.952 197.415 2.36646L194.671 0.807282C193.627 0.276537 192.474 -6.10352e-05 191.304 -6.10352e-05C190.134 -6.10352e-05 188.98 0.276537 187.937 0.807282L112.344 44.5189C111.35 45.1409 110.531 46.0078 109.965 47.037L119.443 52.4941C120.012 51.4735 120.831 50.6149 121.822 49.9994V49.9994Z" fill="#455A64"/>
<path d="M108.977 218.118C109.039 219.29 109.377 220.43 109.962 221.446C110.547 222.462 111.363 223.325 112.343 223.965L115.088 225.524C116.037 226.004 117.076 226.276 118.138 226.323C119.199 226.37 120.259 226.191 121.246 225.797C119.691 226.397 118.455 225.501 118.455 223.575V55.823C118.494 54.6468 118.834 53.5005 119.442 52.4941L109.964 47.037C109.357 48.044 109.017 49.1899 108.977 50.3658V218.118Z" fill="#263238"/>
<path d="M123.633 70.8924L195.602 29.2545C196.714 28.6074 197.624 29.1297 197.624 30.4239V157.427C197.584 158.13 197.381 158.813 197.03 159.422C196.678 160.031 196.19 160.55 195.602 160.935L123.633 202.565C122.521 203.212 121.611 202.69 121.611 201.396V74.4006C121.649 73.6975 121.851 73.0132 122.203 72.4035C122.554 71.7938 123.044 71.276 123.633 70.8924Z" fill="#FAFAFA"/>
<path d="M158.856 34.6415C158.512 34.8679 158.226 35.172 158.02 35.5295C157.815 35.887 157.696 36.2878 157.674 36.6996C157.674 37.4792 158.203 37.7677 158.856 37.3857C159.2 37.1602 159.487 36.8563 159.693 36.4986C159.898 36.141 160.016 35.7397 160.038 35.3276C160.038 34.5714 159.509 34.2673 158.856 34.6415Z" fill="#263238"/>
<path d="M147.668 46.7097C146.985 47.1649 146.418 47.7746 146.013 48.4895C145.608 49.2044 145.375 50.0047 145.335 50.8259C145.335 52.3383 146.392 52.9542 147.668 52.198C148.358 51.7475 148.933 51.1399 149.345 50.4246C149.757 49.7093 149.995 48.9066 150.039 48.0818C150.039 46.5693 148.974 45.9535 147.668 46.7097Z" fill="#263238"/>
<path d="M153.46 46.1949C153.46 47.2084 154.237 47.5904 155.147 47.0525L170.698 38.0326C171.178 37.7296 171.58 37.3177 171.872 36.8302C172.164 36.3427 172.337 35.7932 172.378 35.2261C172.378 34.2204 171.6 33.8384 170.698 34.3763L155.147 43.3962C154.667 43.6971 154.263 44.1072 153.97 44.5935C153.677 45.0797 153.502 45.6284 153.46 46.1949Z" fill="#263238"/>
<path d="M114.218 75.9132C114.771 76.2722 115.231 76.7575 115.561 77.3294C115.891 77.9012 116.08 78.5434 116.115 79.203C116.115 80.4114 115.267 80.9025 114.218 80.3023C113.667 79.9394 113.209 79.4519 112.881 78.8791C112.553 78.3063 112.363 77.6642 112.328 77.0046C112.344 75.7962 113.176 75.3129 114.218 75.9132Z" fill="#37474F"/>
<path d="M114.217 90.5458C114.768 90.9061 115.228 91.3918 115.557 91.9634C115.887 92.535 116.078 93.1764 116.114 93.8357C116.114 95.0518 115.266 95.543 114.217 94.9349C113.675 94.5754 113.223 94.0946 112.898 93.5305C112.573 92.9664 112.383 92.3343 112.343 91.684C112.343 90.4366 113.175 89.9455 114.217 90.5458Z" fill="#37474F"/>
<path d="M113.634 76.2012C114.185 76.5616 114.645 77.0472 114.974 77.6188C115.304 78.1904 115.495 78.8318 115.531 79.4911C115.531 80.7072 114.683 81.1984 113.634 80.5903C113.083 80.229 112.624 79.7431 112.294 79.1717C111.965 78.6004 111.774 77.9594 111.736 77.3004C111.736 76.0921 112.592 75.6009 113.634 76.2012Z" fill="#455A64"/>
<path d="M113.634 90.842C114.185 91.2024 114.645 91.688 114.974 92.2596C115.304 92.8312 115.495 93.4726 115.531 94.1319C115.531 95.348 114.683 95.8392 113.634 95.2311C113.083 94.8698 112.624 94.3839 112.294 93.8126C111.965 93.2412 111.774 92.6002 111.736 91.9412C111.736 90.7251 112.592 90.2339 113.634 90.842Z" fill="#455A64"/>
<path d="M159.618 187.356C158.259 188.245 157.129 189.444 156.318 190.854C155.507 192.264 155.04 193.846 154.953 195.471C154.953 198.465 157.045 199.673 159.618 198.184C160.978 197.292 162.108 196.092 162.919 194.681C163.729 193.27 164.197 191.687 164.284 190.061C164.291 187.067 162.2 185.859 159.618 187.356Z" fill="#263238"/>
<path d="M138.555 200.757C137.894 200.757 137.824 199.977 137.824 199.696V72.701C137.865 72.0669 138.051 71.4507 138.368 70.9004C138.685 70.3501 139.124 69.8805 139.651 69.5281L211.621 27.8902C211.836 27.7614 212.079 27.6865 212.329 27.6719C212.989 27.6719 213.059 28.4047 213.059 28.7243V155.727C213.019 156.361 212.833 156.976 212.516 157.525C212.199 158.074 211.76 158.542 211.232 158.893L139.263 200.53C139.05 200.666 138.806 200.744 138.555 200.757V200.757Z" fill="white" stroke="#141414" stroke-miterlimit="10"/>
<path d="M212.328 28.0618C212.623 28.0618 212.67 28.475 212.67 28.7245V155.728C212.631 156.293 212.463 156.842 212.18 157.332C211.897 157.823 211.506 158.242 211.037 158.557L139.067 200.195C138.913 200.293 138.737 200.352 138.554 200.367C138.259 200.367 138.212 199.946 138.212 199.696V72.7012C138.251 72.1359 138.419 71.5871 138.702 71.0967C138.985 70.6062 139.376 70.1871 139.845 69.8713L211.814 28.2333C211.968 28.1322 212.145 28.0731 212.328 28.0618V28.0618ZM212.328 27.2822C212.008 27.2929 211.698 27.387 211.426 27.5551L139.456 69.193C138.867 69.5766 138.377 70.0944 138.026 70.7041C137.675 71.3137 137.472 71.9981 137.435 72.7012V199.696C137.435 200.616 137.893 201.147 138.554 201.147C138.874 201.133 139.185 201.036 139.456 200.866L211.426 159.236C212.014 158.852 212.504 158.334 212.855 157.724C213.206 157.115 213.409 156.431 213.447 155.728V28.7245C213.447 27.8123 212.989 27.2822 212.328 27.2822V27.2822Z" fill="#37474F" stroke="#141414" stroke-miterlimit="10"/>
<path d="M213.424 28.7243C213.424 27.4302 212.522 26.9079 211.402 27.555L139.433 69.1929C138.844 69.5765 138.354 70.0943 138.002 70.7039C137.651 71.3136 137.448 71.9979 137.411 72.701V83.1086L213.424 39.1319V28.7243Z" fill="#37474F"/>
<path opacity="0.1" d="M213.424 28.7243C213.424 27.4302 212.522 26.9079 211.402 27.555L139.433 69.1929C138.844 69.5765 138.354 70.0943 138.002 70.7039C137.651 71.3136 137.448 71.9979 137.411 72.701V83.1086L213.424 39.1319V28.7243Z" fill="black"/>
<path d="M145.366 71.594C145.238 71.5455 145.1 71.5294 144.964 71.5471C144.828 71.5647 144.699 71.6157 144.588 71.6953C144.188 71.9614 143.855 72.3166 143.615 72.7331C143.375 73.1497 143.234 73.6163 143.204 74.0965C143.184 74.2346 143.202 74.3755 143.256 74.5044C143.309 74.6333 143.396 74.7455 143.507 74.8293C143.635 74.8819 143.774 74.8995 143.911 74.8803C144.047 74.8612 144.176 74.8059 144.285 74.7201C144.682 74.454 145.013 74.0997 145.252 73.6846C145.49 73.2695 145.63 72.8049 145.661 72.3268C145.681 72.1893 145.665 72.0489 145.613 71.9201C145.561 71.7912 145.475 71.6786 145.366 71.594Z" fill="white"/>
<path d="M147.006 68.9358L146.835 69.0371V68.6863C146.835 68.1952 146.492 67.9925 146.057 68.242L142.791 70.1286C142.567 70.2744 142.379 70.4709 142.244 70.7024C142.109 70.9339 142.03 71.194 142.014 71.4617V71.8203L141.835 71.9216C141.536 72.1161 141.288 72.3784 141.11 72.6872C140.931 72.9961 140.828 73.3428 140.809 73.6991V76.872C140.809 77.5269 141.267 77.7998 141.835 77.4723L146.99 74.4865C147.289 74.2908 147.538 74.0272 147.716 73.717C147.895 73.4068 147.997 73.0588 148.016 72.7012V69.5127C148.032 68.8734 147.573 68.6084 147.006 68.9358ZM144.58 75.2349C144.329 75.3887 144.042 75.4747 143.748 75.4844C143.557 75.4862 143.369 75.4378 143.203 75.344C143.002 75.208 142.841 75.0208 142.736 74.8016C142.63 74.5824 142.585 74.3392 142.605 74.0967C142.632 73.5125 142.798 72.9434 143.091 72.4374C143.383 71.9313 143.792 71.5031 144.284 71.1888C144.482 71.0461 144.714 70.9604 144.957 70.9411C145.2 70.9219 145.443 70.9698 145.66 71.0797C145.862 71.2149 146.023 71.4022 146.127 71.6218C146.231 71.8413 146.274 72.085 146.251 72.327C146.224 72.9102 146.058 73.4784 145.767 73.9842C145.476 74.49 145.069 74.9188 144.58 75.2349V75.2349ZM146.912 71.0017C146.648 71.1498 146.438 71.0017 146.438 70.7211C146.446 70.5555 146.493 70.3942 146.576 70.2505C146.658 70.1068 146.774 69.9848 146.912 69.8947C147.177 69.7388 147.394 69.8947 147.394 70.1676C147.388 70.332 147.345 70.4929 147.266 70.6376C147.188 70.7823 147.078 70.9069 146.943 71.0017H146.912Z" fill="white"/>
<path d="M209.288 31.9284L204.257 34.8363C203.965 35.0268 203.723 35.2834 203.548 35.5854C203.374 35.8875 203.273 36.2264 203.254 36.5748V39.6932C203.254 40.3246 203.705 40.5897 204.257 40.2701L207.25 38.5394L208.425 39.7165C208.452 39.7422 208.487 39.7593 208.524 39.7657C208.561 39.7721 208.599 39.7677 208.633 39.7528C208.668 39.7379 208.697 39.7134 208.718 39.682C208.739 39.6507 208.751 39.6139 208.751 39.5762V37.6662L209.288 37.3544C209.584 37.1665 209.831 36.9111 210.009 36.6089C210.188 36.3067 210.292 35.9664 210.314 35.6159V32.4975C210.314 31.8661 209.84 31.6088 209.288 31.9284Z" fill="white"/>
<path d="M147.123 81.2533C149.751 79.7565 151.881 80.9727 151.881 83.9819C151.787 85.6278 151.307 87.2281 150.48 88.6531C149.653 90.0781 148.503 91.2875 147.123 92.1832C144.487 93.7424 142.356 92.4872 142.356 89.4546C142.445 87.8065 142.923 86.2031 143.752 84.777C144.581 83.3509 145.736 82.143 147.123 81.2533V81.2533Z" fill="#37474F"/>
<path d="M156.594 77.5814L172.385 68.4446C173.319 67.9067 174.073 68.2887 174.073 69.2944C174.032 69.8623 173.857 70.4125 173.564 70.9002C173.271 71.3879 172.867 71.7993 172.385 72.1009L156.594 81.2377C155.668 81.7756 154.914 81.3936 154.914 80.388C154.955 79.8209 155.128 79.2714 155.42 78.7838C155.712 78.2963 156.114 77.8844 156.594 77.5814Z" fill="#37474F"/>
<g opacity="0.7">
<path opacity="0.7" d="M156.594 77.5814L172.385 68.4446C173.319 67.9067 174.073 68.2887 174.073 69.2944C174.032 69.8623 173.857 70.4125 173.564 70.9002C173.271 71.3879 172.867 71.7993 172.385 72.1009L156.594 81.2377C155.668 81.7756 154.914 81.3936 154.914 80.388C154.955 79.8209 155.128 79.2714 155.42 78.7838C155.712 78.2963 156.114 77.8844 156.594 77.5814Z" fill="white"/>
</g>
<path d="M156.065 84.0597L166.896 77.823C167.534 77.4566 168.047 77.7138 168.047 78.4077C168.019 78.7966 167.9 79.1735 167.7 79.508C167.501 79.8425 167.225 80.1252 166.896 80.3333L156.065 86.57C155.427 86.9364 154.914 86.6713 154.914 85.9775C154.942 85.5897 155.061 85.2141 155.261 84.881C155.461 84.5478 155.736 84.2665 156.065 84.0597Z" fill="#37474F"/>
<g opacity="0.7">
<path opacity="0.7" d="M156.065 84.0597L166.896 77.823C167.534 77.4566 168.047 77.7138 168.047 78.4077C168.019 78.7966 167.9 79.1735 167.7 79.508C167.501 79.8425 167.225 80.1252 166.896 80.3333L156.065 86.57C155.427 86.9364 154.914 86.6713 154.914 85.9775C154.942 85.5897 155.061 85.2141 155.261 84.881C155.461 84.5478 155.736 84.2665 156.065 84.0597Z" fill="white"/>
</g>
<path d="M147.123 163.219C149.751 161.722 151.881 162.946 151.881 165.948C151.787 167.594 151.307 169.194 150.48 170.619C149.653 172.044 148.503 173.253 147.123 174.149C144.487 175.708 142.356 174.453 142.356 171.421C142.447 169.773 142.926 168.17 143.754 166.744C144.583 165.319 145.738 164.11 147.123 163.219Z" fill="#37474F"/>
<path d="M156.594 159.555L172.385 150.411C173.319 149.873 174.073 150.255 174.073 151.261C174.032 151.829 173.857 152.379 173.564 152.866C173.271 153.354 172.867 153.766 172.385 154.067L156.594 163.212C155.668 163.75 154.914 163.368 154.914 162.354C154.956 161.788 155.13 161.241 155.422 160.754C155.713 160.268 156.115 159.858 156.594 159.555Z" fill="#37474F"/>
<g opacity="0.7">
<path opacity="0.7" d="M156.594 159.555L172.385 150.411C173.319 149.873 174.073 150.255 174.073 151.261C174.032 151.829 173.857 152.379 173.564 152.866C173.271 153.354 172.867 153.766 172.385 154.067L156.594 163.212C155.668 163.75 154.914 163.368 154.914 162.354C154.956 161.788 155.13 161.241 155.422 160.754C155.713 160.268 156.115 159.858 156.594 159.555Z" fill="white"/>
</g>
<path d="M156.065 166.026L166.896 159.789C167.534 159.423 168.047 159.68 168.047 160.374C168.019 160.763 167.9 161.14 167.7 161.474C167.501 161.809 167.225 162.091 166.896 162.299L156.065 168.536C155.427 168.903 154.914 168.638 154.914 167.952C154.941 167.562 155.06 167.185 155.26 166.851C155.46 166.516 155.735 166.233 156.065 166.026V166.026Z" fill="#37474F"/>
<g opacity="0.7">
<path opacity="0.7" d="M156.065 166.026L166.896 159.789C167.534 159.423 168.047 159.68 168.047 160.374C168.019 160.763 167.9 161.14 167.7 161.474C167.501 161.809 167.225 162.091 166.896 162.299L156.065 168.536C155.427 168.903 154.914 168.638 154.914 167.952C154.941 167.562 155.06 167.185 155.26 166.851C155.46 166.516 155.735 166.233 156.065 166.026V166.026Z" fill="white"/>
</g>
<path d="M145.645 96.7204L205.446 62.1065C206.379 61.5686 207.134 62.0052 207.134 63.081V122.961C207.102 123.549 206.932 124.12 206.639 124.629C206.346 125.138 205.937 125.571 205.446 125.893L145.645 160.709C144.712 161.247 143.966 160.811 143.966 159.735V99.6438C143.996 99.0583 144.164 98.4882 144.456 97.9801C144.748 97.4721 145.155 97.0404 145.645 96.7204V96.7204Z" fill="#F5F5F5"/>
<path d="M167.596 110.433C167.443 110.209 167.232 110.031 166.985 109.918C166.739 109.805 166.467 109.762 166.198 109.793C165.929 109.825 165.673 109.929 165.459 110.096C165.245 110.262 165.08 110.484 164.983 110.737L143.989 150.715V159.735C143.989 160.81 144.767 161.247 145.669 160.709L205.47 126.072C205.961 125.75 206.37 125.318 206.663 124.808C206.956 124.299 207.125 123.728 207.157 123.141V103.183L195.797 82.9527C195.167 81.8222 194.289 81.8924 193.83 83.1008L178.707 123.289L167.596 110.433Z" fill="#37474F"/>
<g opacity="0.3">
<path opacity="0.3" d="M167.596 110.433C167.443 110.209 167.232 110.031 166.985 109.918C166.739 109.805 166.467 109.762 166.198 109.793C165.929 109.825 165.673 109.929 165.459 110.096C165.245 110.262 165.08 110.484 164.983 110.737L143.989 150.715V159.735C143.989 160.81 144.767 161.247 145.669 160.709L205.47 126.072C205.961 125.75 206.37 125.318 206.663 124.808C206.956 124.299 207.125 123.728 207.157 123.141V103.183L195.797 82.9527C195.167 81.8222 194.289 81.8924 193.83 83.1008L178.707 123.289L167.596 110.433Z" fill="#00564C"/>
</g>
<path d="M150.272 112.92C155.543 109.887 159.828 102.497 159.828 96.4161C159.828 93.2977 158.708 91.1617 156.927 90.1794L145.645 96.7046C145.155 97.0246 144.748 97.4563 144.456 97.9643C144.164 98.4724 143.996 99.0425 143.966 99.628V113.77C145.645 114.526 147.846 114.292 150.272 112.92Z" fill="#37474F"/>
<g opacity="0.6">
<path opacity="0.6" d="M150.272 112.92C155.543 109.887 159.828 102.497 159.828 96.4161C159.828 93.2977 158.708 91.1617 156.927 90.1794L145.645 96.7046C145.155 97.0246 144.748 97.4563 144.456 97.9643C144.164 98.4724 143.996 99.0425 143.966 99.628V113.77C145.645 114.526 147.846 114.292 150.272 112.92Z" fill="white"/>
</g>
<path d="M145.645 178.999L205.446 144.377C206.379 143.839 207.134 144.221 207.134 145.235C207.091 145.801 206.916 146.35 206.623 146.836C206.33 147.322 205.927 147.733 205.446 148.033L145.645 182.655C144.712 183.193 143.966 182.811 143.966 181.797C144.005 181.231 144.178 180.682 144.47 180.196C144.762 179.709 145.165 179.299 145.645 178.999V178.999Z" fill="#37474F"/>
<g opacity="0.6">
<path opacity="0.6" d="M145.645 178.999L205.446 144.377C206.379 143.839 207.134 144.221 207.134 145.235C207.091 145.801 206.916 146.35 206.623 146.836C206.33 147.322 205.927 147.733 205.446 148.033L145.645 182.655C144.712 183.193 143.966 182.811 143.966 181.797C144.005 181.231 144.178 180.682 144.47 180.196C144.762 179.709 145.165 179.299 145.645 178.999V178.999Z" fill="white"/>
</g>
<path d="M145.645 186.311L205.446 151.712C206.379 151.174 207.134 151.557 207.134 152.57C207.091 153.137 206.916 153.685 206.623 154.171C206.33 154.658 205.927 155.068 205.446 155.369L145.645 189.99C144.712 190.528 143.966 190.146 143.966 189.133C144.002 188.563 144.174 188.009 144.466 187.518C144.758 187.028 145.162 186.614 145.645 186.311V186.311Z" fill="#37474F"/>
<g opacity="0.6">
<path opacity="0.6" d="M145.645 186.311L205.446 151.712C206.379 151.174 207.134 151.557 207.134 152.57C207.091 153.137 206.916 153.685 206.623 154.171C206.33 154.658 205.927 155.068 205.446 155.369L145.645 189.99C144.712 190.528 143.966 190.146 143.966 189.133C144.002 188.563 144.174 188.009 144.466 187.518C144.758 187.028 145.162 186.614 145.645 186.311V186.311Z" fill="white"/>
</g>
<path d="M154.867 64.1257L197.531 39.4516C198.837 38.672 199.863 39.3113 199.863 40.8159C199.823 41.6329 199.591 42.4288 199.185 43.1387C198.78 43.8486 198.213 44.4524 197.531 44.901L154.875 69.5049C153.568 70.2844 152.542 69.6608 152.542 68.1796C152.586 67.3686 152.82 66.5794 153.223 65.8753C153.627 65.1713 154.19 64.572 154.867 64.1257V64.1257Z" fill="#FAFAFA"/>
<path d="M249.199 304.479C263.102 304.479 274.372 299.095 274.372 292.453C274.372 285.812 263.102 280.427 249.199 280.427C235.297 280.427 224.027 285.812 224.027 292.453C224.027 299.095 235.297 304.479 249.199 304.479Z" fill="#E6E6E6"/>
<path d="M257.296 163.641L254.487 158.349L256.742 151.812V147.809L249.83 151.812V155.814L252.801 160.987C252.847 161.068 252.919 161.131 253.005 161.166L257.296 163.641Z" fill="#11B5E4"/>
<path opacity="0.1" d="M257.296 163.641L254.487 158.349L256.742 151.812V147.809L249.83 151.812V155.814L252.801 160.987C252.847 161.068 252.919 161.131 253.005 161.166L257.296 163.641Z" fill="black"/>
<path d="M241.257 138.796L260.292 127.7C260.935 127.376 261.645 127.207 262.365 127.207C263.085 127.207 263.794 127.376 264.438 127.7L266.14 128.682C266.746 129.075 267.25 129.606 267.611 130.232C267.972 130.858 268.18 131.561 268.217 132.283V147.749C268.178 148.471 267.969 149.173 267.608 149.799C267.247 150.425 266.744 150.956 266.14 151.351L247.089 162.446C246.446 162.771 245.736 162.94 245.016 162.94C244.296 162.94 243.586 162.771 242.943 162.446L241.24 161.465C240.637 161.07 240.135 160.539 239.776 159.913C239.416 159.287 239.209 158.584 239.172 157.863V142.38C239.216 141.661 239.427 140.962 239.789 140.339C240.152 139.717 240.655 139.188 241.257 138.796V138.796Z" fill="#11B5E4"/>
<path opacity="0.3" d="M241.257 138.796L260.292 127.7C260.935 127.376 261.645 127.207 262.365 127.207C263.085 127.207 263.794 127.376 264.438 127.7L266.14 128.682C266.746 129.075 267.25 129.606 267.611 130.232C267.972 130.858 268.18 131.561 268.217 132.283V147.749C268.178 148.471 267.969 149.173 267.608 149.799C267.247 150.425 266.744 150.956 266.14 151.351L247.089 162.446C246.446 162.771 245.736 162.94 245.016 162.94C244.296 162.94 243.586 162.771 242.943 162.446L241.24 161.465C240.637 161.07 240.135 160.539 239.776 159.913C239.416 159.287 239.209 158.584 239.172 157.863V142.38C239.216 141.661 239.427 140.962 239.789 140.339C240.152 139.717 240.655 139.188 241.257 138.796V138.796Z" fill="white"/>
<path d="M247.097 162.429C245.947 163.087 245.02 162.557 245.02 161.226V145.76C245.059 145.039 245.268 144.336 245.629 143.711C245.99 143.085 246.493 142.553 247.097 142.158L266.148 131.063C267.297 130.397 268.225 130.935 268.225 132.266V147.732C268.186 148.454 267.977 149.156 267.616 149.782C267.255 150.407 266.752 150.939 266.148 151.334" fill="#11B5E4"/>
<path d="M239.189 157.846C239.227 158.567 239.434 159.269 239.793 159.895C240.153 160.521 240.655 161.053 241.258 161.448L242.961 162.429C243.545 162.723 244.184 162.89 244.837 162.918C245.49 162.946 246.142 162.834 246.749 162.591C245.778 162.967 245.046 162.412 245.046 161.226V145.76C245.074 145.036 245.285 144.331 245.659 143.712L239.819 140.298C239.448 140.918 239.24 141.623 239.215 142.346L239.189 157.846Z" fill="#11B5E4"/>
<path opacity="0.1" d="M239.189 157.846C239.227 158.567 239.434 159.269 239.793 159.895C240.153 160.521 240.655 161.053 241.258 161.448L242.961 162.429C243.545 162.723 244.184 162.89 244.837 162.918C245.49 162.946 246.142 162.834 246.749 162.591C245.778 162.967 245.046 162.412 245.046 161.226V145.76C245.074 145.036 245.285 144.331 245.659 143.712L239.819 140.298C239.448 140.918 239.24 141.623 239.215 142.346L239.189 157.846Z" fill="black"/>
<path d="M254.163 158.324L257.134 163.488C257.178 163.56 257.241 163.619 257.317 163.657C257.393 163.695 257.478 163.711 257.562 163.703C257.647 163.695 257.727 163.664 257.795 163.612C257.862 163.56 257.913 163.49 257.943 163.411L261.084 154.321V150.318L254.163 154.321V158.324Z" fill="#11B5E4"/>
<path d="M256.631 153.041L254.503 152.477C252.477 151.939 250.06 150.77 250.06 148.15C250.162 147.082 250.513 146.054 251.085 145.148C251.658 144.242 252.435 143.484 253.354 142.935C253.655 142.719 254.009 142.588 254.378 142.556C254.747 142.523 255.117 142.591 255.451 142.751C255.785 142.912 256.07 143.159 256.276 143.468C256.482 143.776 256.602 144.135 256.623 144.505C256.836 142.798 258.215 140.118 259.892 139.145C261.713 138.096 263.186 138.719 263.186 140.545C263.186 143.157 260.777 147.134 258.751 150.019L256.631 153.041Z" fill="white"/>
<path d="M267.869 206.803L271.18 212.889L266.03 217.318L261.306 209.816L267.869 206.803Z" fill="#F28F8F"/>
<path d="M255.44 193.241C258.726 193.241 262.344 194.47 263.587 197.056L268.695 207.674C268.695 207.674 265.792 211.941 261.187 211.634L255.44 193.241Z" fill="#E0E0E0"/>
<path d="M267.613 213.836C268.575 212.044 268.813 211.958 269.384 211.566C269.954 211.173 273.461 210.653 274.917 210.525C276.619 210.379 277.241 210.695 276.764 212.172C275.453 215.896 273.847 219.509 271.963 222.977C271.503 223.583 271.418 224.147 269.486 224.343C267.689 224.514 265.434 224.616 264.77 224.65C264.106 224.684 263.186 224.864 263.774 222.9C264.534 220.683 265.415 218.509 266.413 216.388C267.153 214.758 267.613 213.836 267.613 213.836Z" fill="#37474F"/>
<path d="M229.255 274.222C228.404 273.796 227.918 274.837 227.178 275.673C226.542 276.288 226.045 277.034 225.722 277.858C225.543 278.84 226.437 280.419 227.425 281.272C228.412 282.126 229.553 282.749 229.91 284.627C230.003 285.488 230.336 286.306 230.872 286.986C231.409 287.666 232.126 288.179 232.941 288.467C235.069 289.389 237.921 289.09 238.9 288.467C240.041 287.725 238.993 286.905 237.393 284.601C235.299 281.597 233.665 279.48 233.665 276.638L229.255 274.222Z" fill="#263238"/>
<path d="M230.932 271.756L229.229 274.316C228.862 274.839 228.717 275.487 228.825 276.118C228.934 276.748 229.287 277.31 229.808 277.679L229.859 277.722C230.383 278.033 230.999 278.152 231.6 278.057C232.202 277.962 232.751 277.659 233.154 277.201L235.844 274.265L230.932 271.756Z" fill="#FFA8A7"/>
<path d="M262.548 222.389C262.659 225.615 261.748 238.648 259.526 244.409C257.304 250.17 256.019 253.755 255.321 254.959C254.623 256.162 234.482 275.81 234.482 275.81C234.482 275.81 231.077 275.562 230.523 272.242C230.523 272.242 238.772 258.176 240.56 255.291C242.348 252.407 248.681 247.985 248.681 247.985L248.102 222.756L262.548 222.389Z" fill="#37474F"/>
<path d="M232.711 219.247C232.711 218.693 234.413 212.317 235.265 209.372L241.504 211.523L240.04 216.166L234.55 221.859C233.968 221.743 233.452 221.407 233.11 220.921C232.768 220.435 232.625 219.836 232.711 219.247V219.247Z" fill="#FFA8A7"/>
<path d="M258.111 291.051L262.369 290.08L260.959 283.863L256.701 284.834L258.111 291.051Z" fill="#FFA8A7"/>
<path d="M262.548 222.389H242.117C241.671 225.379 241.415 228.396 241.351 231.419C241.189 240.295 249.43 256.418 249.43 256.418C249.034 260.006 249.212 263.633 249.957 267.164C251.762 274.231 256.682 286.206 256.682 286.206C256.682 286.206 259.772 286.641 261.296 284.857C261.296 284.857 258.572 260.558 257.84 254.336C257.048 247.593 255.005 235.294 255.005 235.294C256.354 233.947 257.576 232.478 258.657 230.907C260.552 228.377 261.877 225.465 262.539 222.372" fill="#37474F"/>
<path d="M248.698 193.42C244.782 194.368 239.445 195.597 237.904 199.847C236.363 204.098 234.142 211.634 234.142 211.634C234.993 213.128 239.717 214.365 241.36 213.503L242.127 210.943V222.363C245.191 225.709 255.866 227.262 262.557 222.363V201.025C262.557 197.611 260.667 193.514 255.449 193.215L248.698 193.42Z" fill="#11B5E4"/>
<path d="M242.126 210.969L244.092 204.764L242.126 213.743V210.969Z" fill="#E0E0E0"/>
<path d="M247.226 175.983C246.874 175.944 246.519 175.985 246.186 176.103C245.852 176.221 245.55 176.414 245.302 176.666C244.451 177.519 244.646 179.081 245.302 182.692L247.856 182.982L247.226 175.983Z" fill="#263238"/>
<path d="M262.131 174.942C262.667 174.947 263.2 174.846 263.697 174.643C264.48 174.191 264.684 175.087 264.25 175.864C263.967 176.42 263.545 176.894 263.027 177.241C262.508 177.588 261.909 177.795 261.288 177.844C261.288 177.733 260.556 175.838 260.556 175.838L262.131 174.942Z" fill="#263238"/>
<path d="M248.426 182.982C248.051 183.212 247.506 182.478 247.038 181.992C246.855 181.78 246.621 181.618 246.358 181.522C246.095 181.426 245.812 181.399 245.536 181.444C245.26 181.488 244.999 181.602 244.78 181.776C244.56 181.95 244.388 182.177 244.28 182.435C243.505 184.074 245.268 186.259 246.306 186.976C246.594 187.229 246.954 187.383 247.335 187.417C247.716 187.45 248.098 187.362 248.426 187.164L248.698 193.437C249.157 194.442 249.856 195.318 250.734 195.986C251.612 196.655 252.641 197.096 253.729 197.269C257.407 197.765 256.649 194.709 255.432 193.241V190.962C256.352 191.157 257.298 191.203 258.232 191.099C258.709 190.971 259.85 189.588 260.59 188.034C262.161 184.924 262.51 181.336 261.569 177.98C260.25 172.364 254.231 172.193 250.648 174.455C247.064 176.717 248.426 182.982 248.426 182.982Z" fill="#FFA8A7"/>
<path d="M248.425 183.622C248.238 183.622 247.514 182.418 247.038 181.992C246.382 181.394 247.225 176.017 247.225 176.017C247.044 175.439 247.008 174.825 247.119 174.23C247.231 173.635 247.486 173.076 247.863 172.603C249.157 171.237 251.66 171.468 253.49 171.408C255.742 171.417 257.972 170.967 260.045 170.085C262.65 168.95 262.846 168.822 263.161 169.966C263.412 170.911 263.444 171.901 263.252 172.861C263.06 173.82 262.65 174.722 262.054 175.496L261.203 176.879C261.203 176.879 260.411 177.545 257.985 177.844C255.559 178.142 251.422 176.828 250.902 176.76C250.196 176.666 250.051 177.349 249.668 179.218C249.345 180.831 249.072 183.613 248.425 183.622Z" fill="#263238"/>
<path d="M247.234 176.41L244.936 175.172C245.009 175.022 245.111 174.887 245.237 174.777C245.362 174.666 245.508 174.581 245.667 174.527C245.825 174.473 245.992 174.451 246.159 174.462C246.325 174.473 246.488 174.517 246.638 174.592C246.954 174.758 247.192 175.04 247.304 175.38C247.415 175.719 247.39 176.089 247.234 176.41V176.41Z" fill="#263238"/>
<path d="M255.432 190.962C253.865 190.661 252.33 190.218 250.843 189.639C250.147 189.271 249.575 188.703 249.2 188.009C249.38 188.706 249.698 189.359 250.137 189.929C250.988 191.048 255.432 191.867 255.432 191.867V190.962Z" fill="#F28F8F"/>
<path d="M255.542 182.862C255.544 183.046 255.474 183.224 255.347 183.357C255.219 183.489 255.045 183.566 254.861 183.571C254.769 183.568 254.679 183.548 254.595 183.511C254.511 183.474 254.435 183.42 254.372 183.354C254.309 183.287 254.259 183.209 254.226 183.123C254.193 183.037 254.178 182.946 254.18 182.854C254.178 182.67 254.248 182.492 254.375 182.359C254.503 182.227 254.677 182.15 254.861 182.145C254.953 182.148 255.043 182.168 255.127 182.205C255.211 182.242 255.286 182.296 255.35 182.362C255.413 182.429 255.462 182.507 255.495 182.593C255.528 182.679 255.544 182.77 255.542 182.862V182.862Z" fill="#263238"/>
<path d="M254.818 180.276L253.362 181.13C253.307 181.031 253.272 180.922 253.259 180.809C253.247 180.696 253.256 180.582 253.288 180.473C253.32 180.365 253.373 180.263 253.444 180.175C253.515 180.087 253.603 180.014 253.703 179.96C253.894 179.862 254.116 179.84 254.322 179.899C254.529 179.957 254.706 180.092 254.818 180.276Z" fill="#263238"/>
<path d="M255.125 187.446L256.683 188.035C256.606 188.24 256.453 188.407 256.257 188.502C256.06 188.598 255.835 188.614 255.627 188.547C255.522 188.508 255.425 188.449 255.343 188.372C255.261 188.296 255.194 188.204 255.147 188.101C255.101 187.999 255.075 187.888 255.071 187.776C255.067 187.663 255.085 187.551 255.125 187.446V187.446Z" fill="#F28F8F"/>
<path d="M261.62 180.848L260.292 179.824C260.425 179.651 260.62 179.536 260.835 179.503C261.051 179.469 261.271 179.52 261.45 179.644C261.54 179.712 261.617 179.796 261.674 179.894C261.732 179.991 261.77 180.098 261.786 180.21C261.802 180.322 261.795 180.436 261.767 180.546C261.738 180.655 261.688 180.758 261.62 180.848V180.848Z" fill="#263238"/>
<path d="M261.211 182.666C261.213 182.85 261.143 183.028 261.015 183.161C260.888 183.293 260.714 183.37 260.53 183.375C260.438 183.372 260.348 183.352 260.264 183.315C260.18 183.278 260.104 183.224 260.041 183.158C259.978 183.091 259.928 183.013 259.895 182.927C259.862 182.841 259.847 182.749 259.849 182.658C259.847 182.473 259.917 182.296 260.044 182.163C260.172 182.031 260.346 181.954 260.53 181.949C260.714 181.956 260.889 182.035 261.016 182.169C261.143 182.303 261.213 182.481 261.211 182.666V182.666Z" fill="#263238"/>
<path d="M258.003 182.581L257.364 186.643L259.603 186.379L258.003 182.581Z" fill="#F28F8F"/>
<path d="M261.883 288.006L261.747 287.392C262.19 287.477 264.105 290.661 266.004 292.043C268.081 293.554 269.877 294.45 270.805 295.133C272.048 296.046 270.251 297.916 267.195 298.086C265.68 298.163 262.939 297.702 262.088 296.891C261.236 296.081 260.624 294.741 259.943 294.16C259.262 293.58 257.908 293.068 257.44 292.325C257.189 291.587 257.099 290.805 257.176 290.029C257.176 289.227 257.236 288.322 257.508 288.365L257.61 288.826C258.399 289.23 259.278 289.426 260.164 289.398C260.904 289.363 262.241 289.201 261.883 288.006Z" fill="#263238"/>
<path d="M257.313 250.204C257.313 250.204 255.5 237.291 255.015 235.294C256.471 234.496 257.826 233.524 259.05 232.4C258.206 233.611 257.284 234.765 256.292 235.857L257.313 250.204Z" fill="#263238"/>
<path d="M246.374 249.752C246.374 249.752 248.553 255.189 249.439 256.392C249.439 256.392 249.217 260.54 249.243 261.377L248.102 262.375C248.072 260.499 248.244 258.625 248.613 256.785C247.612 254.53 246.861 252.171 246.374 249.752Z" fill="#263238"/>
<path d="M240.066 216.166C240.066 216.166 257.236 218.01 259.253 217.387C261.271 216.764 263.978 214.758 265.4 213.905C266.821 213.051 267.902 213 267.902 213.35C267.902 213.7 266.659 215.603 266.379 216.397C266.098 217.191 267.715 217.191 269.852 216.695C271.988 216.2 272.84 214.988 273.393 215.688C273.946 216.388 272.21 219.956 268.668 221.296C265.127 222.636 262.497 221.74 259.568 221.868C256.64 221.996 238.602 223.148 234.541 221.868C234.434 221.215 234.508 220.546 234.756 219.933C235.004 219.32 235.415 218.787 235.946 218.394C237.173 217.407 238.569 216.652 240.066 216.166V216.166Z" fill="#FFA8A7"/>
<path d="M170.908 377C184.756 377 195.982 371.633 195.982 365.013C195.982 358.393 184.756 353.027 170.908 353.027C157.059 353.027 145.833 358.393 145.833 365.013C145.833 371.633 157.059 377 170.908 377Z" fill="#E6E6E6"/>
<path d="M154.251 275.056C154.296 274.477 155.389 268.238 156.136 264.745L163.451 266.991L162.278 271.883L156.198 277.783C155.585 277.668 155.041 277.319 154.678 276.811C154.316 276.303 154.163 275.674 154.251 275.056V275.056Z" fill="#FFA8A7"/>
<path d="M170.286 222.244H173.841C176.465 222.244 178.981 223.289 180.836 225.149C182.692 227.009 183.734 229.532 183.734 232.163V257.437H160.393V232.163C160.393 229.532 161.435 227.009 163.29 225.149C165.145 223.289 167.662 222.244 170.286 222.244Z" fill="#263238"/>
<path d="M189.636 261.947L193.094 268.301L187.707 272.917L182.783 265.084L189.636 261.947Z" fill="#F28F8F"/>
<path d="M176.659 247.777C180.09 247.777 183.868 249.06 185.166 251.76L190.499 262.847C190.499 262.847 187.468 267.303 182.659 266.991L176.659 247.777Z" fill="#455A64"/>
<path d="M179.432 357.723C180.612 359.307 181.94 360.775 183.396 362.108C183.63 362.296 183.816 362.537 183.938 362.812C184.089 363.275 184.285 364.389 182.232 364.844C181.191 365.073 180.113 365.074 179.072 364.848C178.03 364.622 177.05 364.174 176.196 363.534C174.694 362.322 174.872 360.192 173.485 358.793C172.454 357.768 171.059 357.367 170.285 356.119C169.743 355.228 170.037 354.167 170.525 352.857C171.014 351.547 171.361 350.353 171.832 350.522L171.672 351.182C172.161 352.225 175.227 352.884 176.73 352.385C177.538 354.21 178.44 355.992 179.432 357.723Z" fill="#263238"/>
<path d="M180.641 359.256C180.223 358.766 179.814 358.267 179.432 357.723C178.646 356.411 177.942 355.051 177.326 353.65C176.925 352.816 176.855 351.861 177.13 350.977L178.143 347.546L172.81 346.316L171.655 351.12C171.406 352.216 172.197 353.303 173.646 354.889C175.095 356.476 176.766 359.969 178.09 360.958C179.414 361.948 180.499 362.046 181.174 361.707C181.85 361.368 182.019 361.056 180.641 359.256Z" fill="#FFA8A7"/>
<path d="M165.085 360.744V359.987C165.388 360.878 166.756 364.674 168.836 366.581C170.499 368.088 172.756 369.843 173.325 371.528C173.894 373.212 170.187 373.871 168.641 373.595C166.577 373.248 164.684 372.23 163.254 370.699C162.366 369.603 161.797 368.301 161.157 367.437C160.517 366.572 159.059 365.655 158.721 364.621C158.614 363.689 158.714 362.746 159.015 361.858C159.263 360.967 159.521 359.906 159.841 359.987V360.61C160.602 361.205 161.543 361.519 162.508 361.502C163.237 361.502 165.094 361.332 165.085 360.744Z" fill="#263238"/>
<path d="M170.339 367.909L168.837 366.573C167.444 365.093 166.356 363.351 165.637 361.448C165.273 360.57 165.086 359.628 165.086 358.677V355.673H159.842V360.557V360.691C160.091 361.787 162.508 364.692 163.868 366.59C164.984 368.222 166.684 369.358 168.615 369.763C170.615 370.03 171.655 369.407 170.339 367.909Z" fill="#FFA8A7"/>
<path d="M160.881 278.968C156.819 287.88 161.032 319.259 161.032 319.259C160.908 320.712 159.255 323.555 158.65 329.954C157.921 337.475 159.788 356.351 159.788 356.351C160.591 356.823 161.498 357.09 162.428 357.127C163.358 357.165 164.283 356.971 165.121 356.565C165.121 356.565 170.125 328.127 171.068 320.65L174.072 296.659L178.516 320.07C177.327 321.905 176.343 323.866 175.583 325.917C174.525 329.223 172.383 348.063 172.383 348.063C173.106 348.725 173.97 349.213 174.91 349.49C175.85 349.766 176.84 349.824 177.805 349.658C177.805 349.658 188.071 323.813 188.534 318.537C188.809 315.374 184.205 277.703 184.205 277.703L160.881 278.968Z" fill="#37474F"/>
<path d="M174.037 296.623L174.748 291.472C174.748 291.472 180.339 290.313 182.872 287.907C181.123 289.963 178.836 291.488 176.268 292.309L175.522 297.282L176.41 308.805L174.037 296.623Z" fill="#263238"/>
<path d="M168.099 248.017C166.602 248.382 165.206 249.079 164.014 250.057C162.822 251.035 161.864 252.269 161.21 253.667C160.251 255.794 160.161 258.213 160.962 260.405L164.544 270.948C164.544 270.948 162.846 275.074 160.864 278.968C169.992 284.075 181.379 281.392 184.125 277.667C184.241 276.874 184.081 273.309 184.303 269.263C184.534 264.941 185.13 260.057 184.454 257.393C183.192 252.429 180.836 247.777 176.152 247.777L168.099 248.017Z" fill="#F03E3D"/>
<path d="M166.704 248.017C163.593 248.454 159.024 249.087 157.442 256.501C155.86 263.916 155.389 266.634 155.389 266.634C156.403 267.632 157.612 268.41 158.939 268.919C160.266 269.428 161.684 269.658 163.104 269.593L164.713 263.889L166.704 248.017Z" fill="#455A64"/>
<path d="M168.473 254.274C167.936 254.274 167.404 254.168 166.908 253.962C166.412 253.756 165.961 253.454 165.581 253.073C165.202 252.692 164.901 252.24 164.695 251.743C164.49 251.246 164.384 250.712 164.384 250.174V238.241H168.473V254.274Z" fill="#263238"/>
<path d="M179.903 226.976C181.139 227.707 182.659 230.817 182.508 237.332C182.383 242.857 180.597 244.229 179.699 244.622C178.801 245.014 177.077 244.773 175.397 244.488V247.803C175.397 247.803 177.717 250.477 177.575 252.036C177.432 253.596 174.215 253.917 172.037 252.428C170.634 251.408 169.429 250.14 168.482 248.685V240.665C168.305 240.882 168.086 241.062 167.839 241.194C167.592 241.326 167.322 241.408 167.043 241.434C166.765 241.461 166.484 241.432 166.216 241.349C165.949 241.265 165.701 241.13 165.486 240.95C163.628 239.711 163.557 236.654 164.642 235.603C165.726 234.551 168.046 234.854 168.482 236.369C170.678 236.272 172.817 235.629 174.704 234.498C176.103 233.746 177.304 232.673 178.208 231.365C179.112 230.057 179.693 228.553 179.903 226.976V226.976Z" fill="#FFA8A7"/>
<path d="M176.356 235.95C176.358 236.087 176.319 236.22 176.246 236.335C176.172 236.449 176.066 236.54 175.942 236.595C175.818 236.65 175.68 236.666 175.546 236.643C175.412 236.62 175.288 236.558 175.188 236.465C175.089 236.372 175.02 236.251 174.988 236.119C174.957 235.986 174.965 235.847 175.012 235.719C175.059 235.591 175.142 235.48 175.252 235.399C175.361 235.318 175.492 235.271 175.627 235.264C175.72 235.261 175.813 235.276 175.9 235.308C175.987 235.341 176.067 235.391 176.135 235.454C176.203 235.518 176.257 235.595 176.295 235.68C176.333 235.765 176.354 235.857 176.356 235.95V235.95Z" fill="#263238"/>
<path d="M176.544 240.629L178.153 241.146C178.124 241.254 178.074 241.356 178.005 241.445C177.936 241.533 177.85 241.607 177.752 241.661C177.654 241.715 177.546 241.749 177.435 241.76C177.323 241.771 177.211 241.759 177.104 241.725C176.888 241.65 176.709 241.494 176.605 241.29C176.5 241.085 176.479 240.849 176.544 240.629V240.629Z" fill="#F28F8F"/>
<path d="M182.036 233.811L180.641 232.84C180.699 232.745 180.776 232.663 180.868 232.599C180.959 232.535 181.062 232.491 181.171 232.468C181.28 232.445 181.393 232.446 181.502 232.468C181.611 232.491 181.714 232.535 181.805 232.599C181.992 232.732 182.121 232.933 182.164 233.159C182.207 233.385 182.161 233.618 182.036 233.811V233.811Z" fill="#263238"/>
<path d="M181.717 235.443C181.729 235.63 181.667 235.815 181.543 235.957C181.42 236.099 181.246 236.186 181.059 236.2C180.872 236.203 180.692 236.132 180.556 236.004C180.42 235.876 180.339 235.701 180.33 235.514C180.325 235.423 180.339 235.331 180.369 235.245C180.4 235.159 180.447 235.08 180.508 235.012C180.569 234.944 180.643 234.889 180.725 234.85C180.807 234.81 180.897 234.788 180.988 234.783C181.079 234.778 181.17 234.792 181.256 234.822C181.342 234.853 181.421 234.9 181.488 234.961C181.556 235.023 181.611 235.097 181.65 235.179C181.689 235.262 181.712 235.351 181.717 235.443V235.443Z" fill="#263238"/>
<path d="M178.445 235.05L178.561 239.23L180.756 238.544L178.445 235.05Z" fill="#F28F8F"/>
<path d="M175.397 244.488C173.619 244.256 169.975 243.205 169.406 241.761C169.633 242.493 170.08 243.138 170.686 243.606C171.771 244.541 175.397 245.602 175.397 245.602V244.488Z" fill="#F28F8F"/>
<path d="M189.361 269.281C190.366 267.409 190.614 267.329 191.219 266.919C191.823 266.509 195.476 265.957 196.996 265.823C198.774 265.671 199.423 266.001 198.925 267.552C197.539 271.436 195.851 275.206 193.877 278.826C193.397 279.467 193.299 280.055 191.29 280.251C189.281 280.447 187.05 280.537 186.357 280.581C185.664 280.626 184.704 280.795 185.326 278.745C186.118 276.431 187.035 274.161 188.072 271.945C188.881 270.261 189.361 269.281 189.361 269.281Z" fill="#37474F"/>
<path d="M162.278 271.919C162.278 271.919 178.535 273.639 180.642 272.988C182.748 272.338 185.575 270.226 187.095 269.352C188.615 268.479 189.708 268.408 189.708 268.764C189.708 269.121 188.411 271.126 188.108 271.946C187.806 272.766 189.513 272.774 191.735 272.258C193.957 271.741 194.855 270.475 195.441 271.206C196.028 271.937 194.206 275.662 190.508 277.061C186.811 278.46 184.064 277.533 181.006 277.658C177.949 277.783 160.438 279.155 156.198 277.819C156.086 277.137 156.164 276.438 156.423 275.798C156.681 275.158 157.111 274.602 157.665 274.191C159.036 273.133 160.605 272.36 162.278 271.919Z" fill="#FFA8A7"/>
<path d="M163.45 267.73C164.148 265.836 164.741 263.906 165.228 261.947C165.228 261.947 164.935 266.251 163.726 268.559L163.45 267.73Z" fill="#37474F"/>
<path d="M69.7007 202.397C84.214 202.397 95.9795 196.773 95.9795 189.835C95.9795 182.897 84.214 177.273 69.7007 177.273C55.1873 177.273 43.4219 182.897 43.4219 189.835C43.4219 196.773 55.1873 202.397 69.7007 202.397Z" fill="#E6E6E6"/>
<path d="M54.4611 92.4471L51.4336 99.0037L57.0694 103.842L61.9414 95.5946L54.4611 92.4471Z" fill="#F28F8F"/>
<path d="M68.3596 77.4474C64.7638 77.4474 60.8048 78.8017 59.4447 81.6224C58.0847 84.4431 53.8555 93.2506 53.8555 93.2506C53.8555 93.2506 57.032 97.9206 62.0717 97.5843L68.3596 77.4474Z" fill="#37474F"/>
<path d="M83.9539 181.485H78.9795V188.742H83.9539V181.485Z" fill="#FFA8A7"/>
<path d="M66.4637 172.506L61.4922 172.677L61.741 179.93L66.7125 179.759L66.4637 172.506Z" fill="#FFA8A7"/>
<path d="M83.6178 110.632C83.6178 115.396 84.2326 146.18 84.2326 146.18C84.3537 147.544 85.6299 150.075 85.3505 155.333C84.9779 162.478 84.363 182.325 84.363 182.325C84.363 182.325 82.0342 184.642 78.7738 182.325C78.7738 182.325 74.2651 155.352 73.3802 148.272C72.5977 142.098 71.2842 125.315 71.2842 125.315L66.6731 145.068C66.6731 145.068 67.4835 149.738 67.6698 152.989C67.8561 156.239 66.8221 175.208 66.8221 175.208C66.0161 175.713 65.0926 175.997 64.1432 176.033C63.1939 176.069 62.2516 175.856 61.4099 175.414C61.4099 175.414 57.4229 147.749 56.9105 144.788C56.3982 141.828 60.4038 110.632 60.4038 110.632H83.6178Z" fill="#37474F"/>
<path d="M76.1386 77.6716H76.2132C78.3471 78.2096 80.2401 79.4481 81.5907 81.1898C82.9412 82.9315 83.6716 85.0762 83.6655 87.2824V110.632C80.1815 114.434 68.0342 116.236 60.377 110.632V86.3484C60.377 82.4723 62.5288 77.8024 68.4627 77.4568L76.1386 77.6716Z" fill="#02897A"/>
<path d="M77.8149 57.8056C78.2145 57.7608 78.619 57.8073 78.9982 57.9415C79.3773 58.0758 79.7212 58.2944 80.0041 58.5808C80.9356 59.5148 80.7493 61.3361 80.0041 65.4363L77.0977 65.7726L77.8149 57.8056Z" fill="#263238"/>
<path d="M60.8513 56.666C60.2276 56.6677 59.6099 56.5438 59.0348 56.3017C58.1033 55.788 57.9077 56.806 58.3921 57.684C58.7167 58.3178 59.198 58.8576 59.79 59.2517C60.382 59.6458 61.065 59.881 61.7736 59.9349C61.7736 59.8135 62.6026 57.6653 62.6026 57.6653L60.8513 56.666Z" fill="#263238"/>
<path d="M76.4455 65.7724C76.8833 66.0339 77.4981 65.2026 78.0291 64.6422C78.2372 64.3993 78.5041 64.2141 78.8041 64.1044C79.1042 63.9947 79.4273 63.9641 79.7425 64.0157C80.0578 64.0673 80.3544 64.1993 80.6041 64.3989C80.8538 64.5986 81.0481 64.8593 81.1684 65.1559C82.0999 67.0239 80.0412 69.5083 78.8675 70.3209C78.5381 70.6086 78.1264 70.7843 77.6913 70.8229C77.2562 70.8615 76.8201 70.761 76.4455 70.5357L76.1381 77.6714C75.6166 78.8162 74.8204 79.8137 73.8208 80.5748C72.8211 81.3359 71.649 81.8369 70.4091 82.0332C66.2265 82.6029 67.0928 79.1471 68.4622 77.4473V74.8508C67.4192 75.0778 66.3466 75.1345 65.2856 75.0189C64.736 74.8694 63.4225 73.291 62.5935 71.5258C61.6619 69.5457 60.0876 66.0339 61.4849 60.0843C62.9847 53.6865 69.8688 53.4903 73.9117 56.0682C77.9546 58.646 76.4455 65.7724 76.4455 65.7724Z" fill="#FFA8A7"/>
<path d="M76.4454 66.5011C76.6689 66.5011 77.4887 65.1375 78.029 64.6331C78.7742 63.9513 77.8147 57.7963 77.8147 57.7963C77.8147 57.7963 78.5693 55.4706 77.0975 53.9202C75.6256 52.3698 72.7658 52.6313 70.6791 52.5566C68.1185 52.5723 65.582 52.0605 63.2268 51.0529C60.2645 49.7639 60.0409 49.6145 59.6776 50.9127C59.3902 51.9883 59.3541 53.1159 59.5722 54.2077C59.7904 55.2996 60.2568 56.3262 60.9352 57.2079L62.407 57.7496C62.407 57.7496 63.1989 58.4594 65.9655 58.7957C68.5168 58.9851 71.0801 58.9382 73.6228 58.6556C74.4239 58.5435 74.5543 59.3187 75.0294 61.4575C75.402 63.3255 75.7188 66.4918 76.4454 66.5011Z" fill="#263238"/>
<path d="M77.8055 58.2913L80.4231 56.8809C80.3401 56.7045 80.2222 56.5469 80.0765 56.4177C79.9308 56.2884 79.7604 56.1903 79.5756 56.1291C79.3909 56.0679 79.1957 56.0451 79.0019 56.062C78.8081 56.0788 78.6197 56.135 78.4483 56.2271C78.0976 56.4229 77.8353 56.7463 77.7157 57.1304C77.596 57.5146 77.6282 57.9302 77.8055 58.2913V58.2913Z" fill="#263238"/>
<path d="M68.4712 74.8507C70.2563 74.5146 72.006 74.0111 73.6972 73.347C74.493 72.9285 75.1428 72.2769 75.5603 71.479C75.3569 72.2719 74.9956 73.0153 74.4983 73.6645C73.5109 74.9348 68.4619 75.8688 68.4619 75.8688L68.4712 74.8507Z" fill="#F28F8F"/>
<path d="M69.4034 64.8009C69.4071 64.9556 69.4563 65.1058 69.5449 65.2325C69.6335 65.3592 69.7575 65.4569 69.9013 65.5131C70.0451 65.5693 70.2023 65.5817 70.3531 65.5485C70.5039 65.5154 70.6415 65.4383 70.7487 65.327C70.8559 65.2156 70.9278 65.075 70.9555 64.9227C70.9831 64.7705 70.9653 64.6134 70.9041 64.4713C70.8429 64.3292 70.7412 64.2084 70.6118 64.1242C70.4823 64.0399 70.3309 63.9959 70.1765 63.9977C69.9682 64.0026 69.7701 64.0896 69.6254 64.24C69.4806 64.3904 69.4009 64.5919 69.4034 64.8009Z" fill="#263238"/>
<path d="M70.2227 61.8683L71.8901 62.8023C72.0057 62.5729 72.0296 62.3079 71.9569 62.0614C71.8842 61.8149 71.7204 61.6055 71.4989 61.476C71.3898 61.4161 71.2698 61.3787 71.146 61.366C71.0222 61.3533 70.8972 61.3656 70.7782 61.4022C70.6592 61.4387 70.5488 61.4988 70.4534 61.5789C70.358 61.6589 70.2795 61.7574 70.2227 61.8683Z" fill="#263238"/>
<path d="M69.4584 70.0778L67.6885 70.7503C67.7272 70.8692 67.7894 70.979 67.8713 71.0734C67.9531 71.1677 68.0531 71.2446 68.1651 71.2994C68.2772 71.3543 68.3991 71.3861 68.5237 71.3928C68.6482 71.3996 68.7729 71.3812 68.8902 71.3387C69.1303 71.2446 69.3243 71.0599 69.4304 70.8243C69.5366 70.5887 69.5467 70.3208 69.4584 70.0778V70.0778Z" fill="#F28F8F"/>
<path d="M62.4822 62.5127L63.982 61.3359C63.9099 61.2336 63.818 61.147 63.7119 61.0811C63.6057 61.0151 63.4874 60.9713 63.364 60.9521C63.2406 60.9329 63.1146 60.9388 62.9935 60.9695C62.8725 61.0001 62.7588 61.0548 62.6592 61.1304C62.458 61.2937 62.3273 61.5285 62.2943 61.786C62.2614 62.0434 62.3287 62.3037 62.4822 62.5127V62.5127Z" fill="#263238"/>
<path d="M62.947 64.586C62.9445 64.795 63.0243 64.9965 63.1691 65.1469C63.3138 65.2973 63.5118 65.3844 63.7202 65.3893C63.9311 65.3844 64.1315 65.2963 64.278 65.1442C64.4245 64.992 64.5052 64.7881 64.5027 64.5767C64.5147 64.4671 64.5035 64.3562 64.4699 64.2513C64.4363 64.1463 64.3809 64.0496 64.3076 63.9676C64.2342 63.8855 64.1443 63.8198 64.0439 63.7748C63.9435 63.7299 63.8348 63.7067 63.7249 63.7067C63.6149 63.7067 63.5062 63.7299 63.4058 63.7748C63.3054 63.8198 63.2156 63.8855 63.1422 63.9676C63.0688 64.0496 63.0135 64.1463 62.9799 64.2513C62.9462 64.3562 62.9351 64.4671 62.947 64.5767V64.586Z" fill="#263238"/>
<path d="M66.907 63.8484L66.6462 68.5277L64.2148 67.6964L66.907 63.8484Z" fill="#F28F8F"/>
<path d="M78.9796 186.276V185.557C78.5045 185.762 77.396 189.993 75.4304 191.796C73.8561 193.225 71.7043 194.887 71.1733 196.466C70.6423 198.044 74.1542 199.044 75.6168 198.782C77.3215 198.483 80.2745 197.278 81.0104 196.167C81.7463 195.055 82.1003 193.412 82.6965 192.59C83.2927 191.768 84.69 190.862 85.016 189.919C85.1119 189.036 85.0133 188.143 84.7272 187.303C84.4944 186.425 84.2522 185.435 83.9541 185.538C83.9541 185.641 83.9541 186.08 83.9541 186.08C83.2466 186.639 82.3678 186.936 81.4669 186.92C80.7496 186.976 78.9703 186.836 78.9796 186.276Z" fill="#263238"/>
<path d="M61.6988 178.384C61.438 178.384 61.2237 178.757 60.6555 179.374C59.8073 180.239 58.8181 180.953 57.7305 181.485C55.8674 182.419 52.253 183.857 50.6135 184.595C49.5981 185.062 49.682 186.295 50.6973 187.005C51.7127 187.714 54.3117 188.219 57.3765 187.528C59.0439 187.154 61.2237 185.613 62.5931 185.66C63.9625 185.706 66.5429 185.725 67.5582 185.024C68.5736 184.324 68.1731 182.82 67.8843 181.531C67.5955 180.242 67.1204 177.982 66.6546 178.076V178.515C66.0585 179.449 63.0123 179.794 61.6988 179.131V178.384Z" fill="#263238"/>
<path d="M55.0479 99.9941C53.9953 98.0234 53.7345 97.9393 53.101 97.5097C52.4676 97.08 48.6389 96.501 47.046 96.3702C45.1829 96.2114 44.5029 96.557 45.0245 98.1728C46.4671 102.245 48.2237 106.198 50.2784 109.997C50.7815 110.66 50.8839 111.277 52.9892 111.482C55.0945 111.688 57.4327 111.781 58.1593 111.828C58.8859 111.874 59.8919 112.052 59.2399 109.904C58.4077 107.479 57.4468 105.1 56.3614 102.777C55.5975 101.012 55.0479 99.9941 55.0479 99.9941Z" fill="#37474F"/>
<path d="M93.2317 105.915C93.1851 105.299 91.3686 98.3314 90.437 95.1091L83.6182 97.4628L85.2204 102.534L91.2195 108.764C91.8555 108.639 92.4192 108.273 92.7937 107.743C93.1683 107.213 93.3251 106.558 93.2317 105.915V105.915Z" fill="#FFA8A7"/>
<path d="M85.1923 102.534C85.1923 102.534 66.3937 104.552 64.186 103.87C61.9782 103.188 59.0159 100.974 57.423 100.059C55.8301 99.1438 54.6843 99.0691 54.6843 99.452C54.6843 99.835 56.0443 101.918 56.3611 102.777C56.6778 103.636 54.8892 103.646 52.5604 103.104C50.2315 102.562 49.2906 101.236 48.6758 102.002C48.061 102.768 49.9707 106.672 53.8459 108.138C57.7211 109.605 60.5996 108.633 63.8041 108.764C67.0086 108.895 86.7479 110.165 91.1914 108.764C91.3093 108.051 91.2281 107.32 90.9568 106.65C90.6855 105.981 90.2347 105.4 89.6543 104.972C88.3238 103.899 86.8127 103.074 85.1923 102.534V102.534Z" fill="#FFA8A7"/>
<path d="M77.7119 78.204C80.6649 79.1847 86.5243 79.6797 88.4153 86.0869C90.3063 92.4941 91.2565 96.6503 91.2565 96.6503C90.1387 98.1447 85.6673 99.8726 83.6179 99.2282L77.7119 78.204Z" fill="#455A64"/>
<path d="M83.6191 99.2278L81.5977 92.036L83.6191 102.161V99.2278Z" fill="#37474F"/>
<path d="M26.3555 349.653C40.9112 349.653 52.7109 344.015 52.7109 337.06C52.7109 330.104 40.9112 324.466 26.3555 324.466C11.7997 324.466 0 330.104 0 337.06C0 344.015 11.7997 349.653 26.3555 349.653Z" fill="#E6E6E6"/>
<path d="M10.043 154.854L31.8001 142.232C32.5332 141.857 33.3444 141.661 34.1673 141.661C34.9902 141.661 35.8014 141.857 36.5345 142.232L38.4789 143.343C39.1664 143.795 39.7384 144.403 40.1488 145.117C40.5591 145.832 40.7963 146.633 40.8412 147.456V165.118C40.7963 165.942 40.5591 166.743 40.1488 167.457C39.7384 168.172 39.1664 168.779 38.4789 169.232L16.7509 181.854C16.0161 182.229 15.2033 182.425 14.3788 182.425C13.5544 182.425 12.7416 182.229 12.0068 181.854L10.0624 180.743C9.36378 180.291 8.7825 179.679 8.36665 178.956C7.95079 178.234 7.71231 177.424 7.6709 176.591V158.968C7.71386 158.143 7.95124 157.34 8.36358 156.625C8.77591 155.91 9.35146 155.303 10.043 154.854V154.854Z" fill="#FF7800"/>
<path opacity="0.3" d="M10.043 154.854L31.8001 142.232C32.5332 141.857 33.3444 141.661 34.1673 141.661C34.9902 141.661 35.8014 141.857 36.5345 142.232L38.4789 143.343C39.1664 143.795 39.7384 144.403 40.1488 145.117C40.5591 145.832 40.7963 146.633 40.8412 147.456V165.118C40.7963 165.942 40.5591 166.743 40.1488 167.457C39.7384 168.172 39.1664 168.779 38.4789 169.232L16.7509 181.854C16.0161 182.229 15.2033 182.425 14.3788 182.425C13.5544 182.425 12.7416 182.229 12.0068 181.854L10.0624 180.743C9.36378 180.291 8.7825 179.679 8.36665 178.956C7.95079 178.234 7.71231 177.424 7.6709 176.591V158.968C7.71386 158.143 7.95124 157.34 8.36358 156.625C8.77591 155.91 9.35146 155.303 10.043 154.854V154.854Z" fill="white"/>
<path d="M28.3491 183.248L25.141 177.195L27.727 169.729V165.158L19.8232 169.768V174.339L23.2258 180.188C23.2772 180.278 23.3554 180.349 23.4494 180.392V180.392L28.3491 183.248Z" fill="#FF7800"/>
<path opacity="0.1" d="M28.3491 183.248L25.141 177.195L27.727 169.729V165.158L19.8232 169.768V174.339L23.2258 180.188C23.2772 180.278 23.3554 180.349 23.4494 180.392V180.392L28.3491 183.248Z" fill="black"/>
<path d="M16.751 181.854C15.4386 182.614 14.3789 182 14.3789 180.48V162.818C14.4241 161.995 14.6626 161.194 15.0748 160.481C15.487 159.768 16.0613 159.163 16.751 158.714L38.5178 146.043C39.8205 145.292 40.8802 145.906 40.8802 147.417V165.079C40.8352 165.902 40.598 166.704 40.1877 167.418C39.7774 168.132 39.2054 168.74 38.5178 169.193" fill="#FF7800"/>
<path d="M7.6709 176.591C7.71617 177.415 7.95453 178.217 8.36666 178.932C8.77879 179.646 9.35308 180.254 10.043 180.704L11.9873 181.815C12.6561 182.15 13.3877 182.341 14.1346 182.375C14.8815 182.408 15.6272 182.284 16.3232 182.01C15.2052 182.429 14.3788 181.796 14.3788 180.441V162.818C14.4074 161.992 14.6449 161.187 15.0691 160.479L8.40974 156.628C7.98217 157.336 7.74128 158.141 7.70978 158.968L7.6709 176.591Z" fill="#FF7800"/>
<path opacity="0.1" d="M7.6709 176.591C7.71617 177.415 7.95453 178.217 8.36666 178.932C8.77879 179.646 9.35308 180.254 10.043 180.704L11.9873 181.815C12.6561 182.15 13.3877 182.341 14.1346 182.375C14.8815 182.408 15.6272 182.284 16.3232 182.01C15.2052 182.429 14.3788 181.796 14.3788 180.441V162.818C14.4074 161.992 14.6449 161.187 15.0691 160.479L8.40974 156.628C7.98217 157.336 7.74128 158.141 7.70978 158.968L7.6709 176.591Z" fill="black"/>
<path d="M24.7812 177.166L28.1741 183.014C28.2227 183.098 28.2943 183.166 28.3802 183.21C28.4661 183.254 28.5629 183.273 28.659 183.264C28.7552 183.254 28.8466 183.218 28.9226 183.158C28.9987 183.098 29.056 183.018 29.088 182.927L32.6752 172.546V167.974L24.7812 172.546V177.166Z" fill="#FF7800"/>
<path d="M19.3757 166.619C18.7199 167.042 18.1752 167.618 17.7877 168.296C17.4003 168.975 17.1813 169.737 17.1494 170.518C17.1494 171.941 18.1216 172.468 19.3757 171.805C20.0271 171.377 20.5683 170.801 20.9552 170.123C21.3421 169.446 21.5637 168.686 21.6019 167.906C21.6117 166.483 20.6395 165.869 19.3757 166.619Z" fill="white"/>
<path d="M27.5905 161.853C26.9362 162.278 26.3922 162.854 26.0034 163.532C25.6147 164.21 25.3922 164.971 25.3545 165.752C25.3545 167.175 26.3267 167.75 27.5905 167.038C28.2419 166.61 28.7831 166.034 29.17 165.356C29.5569 164.679 29.7785 163.919 29.8167 163.139C29.8167 161.716 28.8154 161.141 27.5905 161.853Z" fill="white"/>
<path d="M35.7956 157.096C35.1442 157.524 34.603 158.1 34.2161 158.778C33.8292 159.455 33.6075 160.215 33.5693 160.995C33.5693 162.418 34.5415 162.945 35.7956 162.282C36.4514 161.859 36.9961 161.283 37.3835 160.605C37.771 159.926 37.9899 159.164 38.0219 158.383C38.0219 156.95 37.0302 156.375 35.7956 157.096Z" fill="white"/>
<path d="M56.1813 219.235C56.084 219.362 55.2577 220.736 55.2577 220.736L51.4565 226.194L47.7526 231.76C47.6359 231.93 47.4686 232.058 47.2747 232.126C47.0808 232.194 46.8703 232.199 46.6735 232.14L46.4207 232.052C45.1374 231.575 43.2126 230.766 40.6558 229.586C38.6045 228.612 38.7114 228.329 38.7114 227.978C38.6847 227.699 38.6847 227.419 38.7114 227.14V227.14C39.1295 226.341 40.4224 224.342 42.1626 221.818C45.2541 217.315 46.7415 215.316 47.6651 214.02C47.7969 213.831 47.9914 213.695 48.2139 213.636C48.4364 213.577 48.6725 213.599 48.8803 213.698C50.5427 214.254 53.9161 215.706 55.6855 216.428H55.7632C56.716 216.944 56.191 219.196 56.1813 219.235Z" fill="#37474F"/>
<path d="M56.2792 219.059L55.3071 220.736L51.5934 226.302L47.7047 231.731C47.588 231.9 47.4207 232.028 47.2268 232.097C47.033 232.165 46.8225 232.17 46.6256 232.111L46.3729 232.023C45.0896 231.546 43.1647 230.737 40.6079 229.557C38.5566 228.582 38.6636 228.3 38.6636 227.949C38.6369 227.67 38.6369 227.389 38.6636 227.111V227.111C40.6079 227.968 46.7617 230.892 46.9659 230.785C47.452 230.551 51.6226 223.845 53.8391 220.424C54.9474 218.718 55.4432 217.997 55.7834 217.412C55.8459 217.342 55.8925 217.26 55.9198 217.17C55.9471 217.08 55.9545 216.986 55.9415 216.893C55.9286 216.8 55.8955 216.711 55.8447 216.632C55.7939 216.554 55.7265 216.487 55.6473 216.437H55.5696C55.7879 216.553 55.9763 216.718 56.1197 216.919C56.2632 217.12 56.3578 217.353 56.3959 217.597C56.5019 217.831 56.5468 218.088 56.5264 218.343C56.506 218.599 56.4209 218.846 56.2792 219.059V219.059Z" fill="#37474F"/>
<path opacity="0.1" d="M56.2792 219.059L55.3071 220.736L51.5934 226.302L47.7047 231.731C47.588 231.9 47.4207 232.028 47.2268 232.097C47.033 232.165 46.8225 232.17 46.6256 232.111L46.3729 232.023C45.0896 231.546 43.1647 230.737 40.6079 229.557C38.5566 228.582 38.6636 228.3 38.6636 227.949C38.6369 227.67 38.6369 227.389 38.6636 227.111V227.111C40.6079 227.968 46.7617 230.892 46.9659 230.785C47.452 230.551 51.6226 223.845 53.8391 220.424C54.9474 218.718 55.4432 217.997 55.7834 217.412C55.8459 217.342 55.8925 217.26 55.9198 217.17C55.9471 217.08 55.9545 216.986 55.9415 216.893C55.9286 216.8 55.8955 216.711 55.8447 216.632C55.7939 216.554 55.7265 216.487 55.6473 216.437H55.5696C55.7879 216.553 55.9763 216.718 56.1197 216.919C56.2632 217.12 56.3578 217.353 56.3959 217.597C56.5019 217.831 56.5468 218.088 56.5264 218.343C56.506 218.599 56.4209 218.846 56.2792 219.059V219.059Z" fill="black"/>
<path d="M47.7144 215.297L54.539 218.163L47.2672 229.001L40.4814 225.873L47.7144 215.297Z" fill="#FAFAFA"/>
<path d="M45.7986 253.068C47.6652 252.532 50.4844 245.572 52.6038 237.677C54.7231 229.781 55.8411 228.037 55.9091 225.551C55.9772 223.066 55.8022 219.8 55.8022 219.8L52.108 225.21C51.9477 224.166 51.6194 223.156 51.1358 222.218C50.6594 221.243 49.765 220.473 49.0359 221.058C48.647 221.37 49.6775 222.705 49.4539 225.688C49.4357 226.877 49.5531 228.064 49.8039 229.226L42.9404 245.894L45.7986 253.068Z" fill="#FFA8A7"/>
<path d="M18.1797 218.504C16.0118 217.89 14.1744 219.05 13.1536 222.51C11.3642 229.025 10.0644 235.665 9.26496 242.375C8.97331 244.782 8.64276 247.707 10.9371 247.931C12.687 248.106 17.7423 247.131 18.6269 246.254C19.813 245.104 19.5991 240.464 19.5991 240.464H16.9742C16.9742 240.464 17.5381 236.809 17.7034 235.698C18.2867 231.965 19.1519 227.257 19.1519 227.257L18.1797 218.504Z" fill="#F28F8F"/>
<path d="M30.9056 215.082L30.0209 222.89L22.3408 223.786L23.4491 213.425L30.9056 215.082Z" fill="#FFA8A7"/>
<path d="M14.4658 203.688C15.0977 196.475 18.9961 193.512 22.0098 192.791C28.0956 191.358 34.1036 193.405 36.5923 197.664C37.162 198.998 37.4557 200.434 37.4557 201.885C37.4557 203.336 37.162 204.772 36.5923 206.105C35.2702 209.127 14.495 203.669 14.495 203.669" fill="#263238"/>
<path d="M36.9718 207.567C36.9718 207.567 38.0703 210.54 37.7787 210.765C37.3203 210.93 36.8369 211.016 36.3496 211.018L36.9718 207.567Z" fill="#FFA8A7"/>
<path d="M33.6958 198.171C35.1444 199.419 37.5845 201.68 36.9332 207.918C36.2138 214.371 34.6583 216.116 33.6084 216.739C32.9084 217.159 29.8072 216.428 28.3684 215.58C26.5796 214.517 22.6131 211.778 21.4077 208.084C19.9786 203.737 20.698 198.551 23.8283 197.196C25.4212 196.509 27.1617 196.238 28.8874 196.409C30.613 196.579 32.2674 197.185 33.6958 198.171Z" fill="#FFA8A7"/>
<path d="M35.4843 198.337C35.5154 200.062 35.1583 201.772 34.4396 203.34C33.7209 204.907 32.6591 206.292 31.3331 207.392C31.3331 207.392 30.429 205.043 28.4166 205.579C26.4042 206.115 26.4723 208.776 27.9111 210.219C28.2841 210.631 28.7668 210.928 29.3024 211.075C29.838 211.222 30.4042 211.212 30.9345 211.047C30.6477 212.891 29.7868 214.597 28.475 215.921C26.3815 216.404 24.1947 216.285 22.1656 215.578C20.1365 214.871 18.3473 213.605 17.0034 211.925C12.5606 206.573 13.873 198.074 20.8143 195.569C23.2686 194.581 25.9531 194.317 28.552 194.808C31.1508 195.298 33.5559 196.522 35.4843 198.337V198.337Z" fill="#263238"/>
<path d="M21.4165 332.547L24.7316 337.167C23.2215 337.852 21.5762 338.185 19.9193 338.142C16.9542 338.259 16.1376 337.284 16.0307 337.05C15.5251 335.968 16.3126 334.028 16.5265 332.362L21.4165 332.547Z" fill="#263238"/>
<path d="M24.5272 334.935C24.5272 334.935 28.5423 334.672 31.3324 334.321C34.1225 333.97 36.3099 335.295 35.6585 336.475C35.0072 337.654 33.4712 338.58 31.0894 339.399C29.0575 340.091 26.6077 340.588 24.4786 341.222C22.3496 341.855 20.901 342.635 19.6664 342.196C18.2859 341.719 17.7221 341.163 17.8095 340.159C18.1107 338.728 18.4838 337.313 18.9275 335.919L24.5272 334.935Z" fill="#263238"/>
<path d="M16.0312 327.887C16.0312 327.887 16.5271 332.079 16.5659 332.985C16.6048 333.892 20.649 334.174 21.4268 332.527L21.5532 327.4L16.0312 327.887Z" fill="#F28F8F"/>
<path d="M20.1049 330.47L18.6953 336.835C18.6953 336.835 18.5495 337.605 21.8646 338.102C25.1796 338.599 30.3516 336.367 31.2362 335.919C32.1209 335.471 32.2084 334.564 28.9711 334.74C25.7338 334.915 24.5769 334.935 24.5769 334.935L25.6366 332.108L20.1049 330.47Z" fill="#FFA8A7"/>
<path d="M16.0312 245.26C13.2605 249.578 10.6356 253.38 10.0718 258.234C8.88574 268.488 12.7744 280.204 13.6008 287.787C12.0288 289.945 11.1198 292.517 10.9856 295.186C10.9856 298.324 16.0312 327.888 16.0312 327.888C16.0312 327.888 19.6962 329.009 21.5434 327.4L25.014 273.011L23.1863 266.392L16.0312 245.26Z" fill="#455A64"/>
<path d="M25.0134 273.01L23.1858 266.392C19.7459 265.495 16.4264 264.186 13.2988 262.493C13.2988 262.493 15.1751 265.904 20.5318 267.776L23.3219 276.285L23.5649 295.78L25.0134 273.01Z" fill="#37474F"/>
<path d="M16.031 245.26C14.5533 247.678 11.0049 251.83 11.7632 255.807C12.677 260.68 15.263 264.024 23.1861 266.392L30.6135 293.363C30.6135 293.363 26.7248 296.999 25.5679 300.449C24.4111 303.9 20.1044 330.471 20.1044 330.471C20.1044 330.471 21.4265 332.635 25.6068 332.108C25.6068 332.108 40.1893 298.782 41.1615 296.638C42.4054 294.443 42.8423 291.88 42.3962 289.396C41.9295 285.906 36.9715 247.677 36.9715 247.677L16.031 245.26Z" fill="#455A64"/>
<path d="M14.68 220.921C14.978 220.126 15.5396 219.457 16.2706 219.028C17.0015 218.599 17.8575 218.434 18.6951 218.562C23.8767 219.975 31.936 221.837 33.4623 222.286C33.4623 222.286 32.7721 232.296 38.7412 235.825C38.4592 238.057 36.9427 247.677 36.9427 247.677C36.9427 247.677 29.7681 251.167 23.867 249.451C17.966 247.736 15.9827 245.26 15.9827 245.26L18.8992 240.435C18.2673 238.866 15.8272 233.534 14.2523 228.582C13.7058 226.036 13.8536 223.39 14.68 220.921Z" fill="#FFB900"/>
<path d="M18.1797 238.534C20.6341 240.015 23.2061 241.289 25.8695 242.346C23.4488 242.283 21.0823 241.613 18.9866 240.396L18.1797 238.534Z" fill="#E0E0E0"/>
<path d="M38.6152 235.074C36.4947 234.099 34.7501 232.456 33.6475 230.395C33.8263 231.979 34.3677 233.499 35.2294 234.838C36.0912 236.177 37.2499 237.299 38.6152 238.115V235.074Z" fill="#E0E0E0"/>
<path d="M33.5104 222.285C36.7672 223.26 38.7893 223.572 40.5489 225.151C42.8627 227.237 45.2542 239.031 45.7403 241.468C46.5861 245.689 47.5193 250.075 46.6055 252.044C45.9444 253.467 42.3474 254.529 40.7725 249.929C40.442 248.954 40.3739 248.506 40.0823 247.628C38.5949 243.223 36.3589 234.801 36.3589 234.801C36.3589 234.801 31.9549 232.364 33.5104 222.285Z" fill="#FFA8A7"/>
<path d="M17.7229 195.568C16.566 196.241 14.4758 196.894 13.1731 202.986C12.1126 208.097 11.4817 213.287 11.2871 218.504C11.3357 220.395 15.2438 225.648 23.4878 225.151C31.7318 224.654 34.7261 219.81 34.7261 219.81C34.7261 219.81 30.6721 218.153 30.9929 211.037C30.9929 211.037 29.5639 213.854 25.646 212.441C21.7282 211.028 17.7229 195.568 17.7229 195.568Z" fill="#263238"/>
</svg>
