<svg width="223" height="171" viewBox="0 0 223 171" fill="none" xmlns="http://www.w3.org/2000/svg">
<path d="M154.97 170.05H46.6296L49.4996 163.81C67.3396 127.29 90.5896 104.62 112.19 90.54L108.44 82.47C88.1996 89.41 71.0997 99.21 58.0797 108.24C31.1397 126.92 15.3496 146.43 15.1996 146.62L0.599609 163.64L76.2996 0.72998L111.26 75.97C128.97 70.4 148.87 67.06 170.42 68.09L194.91 69.26L170.74 73.34C170.58 73.37 170.32 73.41 169.97 73.46C161.03 74.74 141.19 78.98 118.96 92.53L154.97 170.05ZM54.9396 164.75H146.66L114.44 95.4C93.9696 108.88 72.0096 130.4 54.9396 164.75ZM76.2996 13.31L20.9096 132.5C28.3496 124.98 39.8596 114.44 54.9096 103.98C68.1696 94.77 85.5796 84.77 106.18 77.64L76.2996 13.31ZM113.51 80.82L116.71 87.71C127.11 81.43 137.01 77.1 145.57 74.13C134.24 75.35 123.53 77.71 113.51 80.82Z" fill="#EB5A2E"/>
<path d="M190.192 69.6431C195.104 51.0331 198.385 35.7615 197.52 35.5332C196.655 35.3048 191.972 50.2062 187.06 68.8163C182.148 87.4263 178.867 102.698 179.732 102.926C180.597 103.154 185.281 88.2531 190.192 69.6431Z" fill="#EB5A2E"/>
<path d="M222.323 78.1234C222.551 77.2583 207.65 72.5752 189.04 67.6633C170.43 62.7515 155.158 59.4709 154.93 60.336C154.702 61.2011 169.603 65.8842 188.213 70.7961C206.823 75.7079 222.095 78.9885 222.323 78.1234Z" fill="#EB5A2E"/>
</svg>
